{"glyphs":{"0":{"ha":963,"x_min":0,"x_max":0,"o":"m 482 -22 b 901 492 740 -22 901 175 b 482 1008 901 811 740 1008 b 61 492 222 1008 61 810 b 482 -22 61 174 222 -22 z m 482 156 b 279 492 350 156 279 269 b 482 831 279 715 350 831 b 683 492 613 831 683 715 b 482 156 683 269 613 156 z "},"1":{"ha":624,"x_min":0,"x_max":0,"o":"m 267 0 l 478 0 l 478 986 l 310 986 b 138 803 310 847 261 803 l 53 803 l 53 649 l 267 649 z "},"2":{"ha":907,"x_min":0,"x_max":0,"o":"m 81 0 l 828 0 l 828 178 l 332 178 b 569 389 338 231 411 304 b 828 711 756 489 828 557 b 469 1008 828 889 696 1008 b 82 672 239 1008 100 882 l 299 660 b 472 831 313 769 371 831 b 611 708 563 831 611 781 b 431 526 611 633 565 597 b 81 0 175 390 81 253 z "},"3":{"ha":903,"x_min":0,"x_max":0,"o":"m 450 -22 b 842 276 689 -22 842 89 b 638 522 842 401 768 488 b 808 732 747 557 808 631 b 447 1008 808 903 681 1008 b 76 732 229 1008 94 899 l 289 721 b 447 831 300 786 347 831 b 592 710 547 831 592 785 b 443 590 592 624 528 590 l 356 590 l 356 433 l 443 433 b 624 292 554 433 624 386 b 450 156 624 200 549 156 b 276 297 350 156 286 199 l 61 289 b 450 -22 71 97 206 -22 z "},"4":{"ha":911,"x_min":0,"x_max":0,"o":"m 524 0 l 735 0 l 735 188 l 850 188 l 850 365 l 735 365 l 735 986 l 483 986 l 33 356 l 33 188 l 524 188 z m 257 365 l 524 726 l 524 365 z "},"5":{"ha":932,"x_min":0,"x_max":0,"o":"m 464 -22 b 854 328 700 -22 854 113 b 522 658 854 517 726 658 b 308 581 431 658 357 629 l 336 808 l 786 808 l 786 986 l 157 986 l 89 410 l 300 410 b 463 503 324 463 382 503 b 638 328 571 503 638 432 b 464 156 638 219 572 156 b 292 282 368 156 307 197 l 78 272 b 464 -22 93 93 222 -22 z "},"6":{"ha":871,"x_min":0,"x_max":0,"o":"m 446 -22 b 824 325 669 -22 824 104 b 489 647 824 519 690 647 b 267 553 385 647 310 607 b 478 835 286 744 360 835 b 624 736 563 835 601 797 l 818 750 b 478 1008 782 908 669 1008 b 61 435 192 1008 61 764 b 446 -22 61 146 190 -22 z m 444 146 b 274 322 340 146 274 218 b 450 497 274 428 347 497 b 613 322 547 497 613 426 b 444 146 613 214 544 146 z "},"7":{"ha":756,"x_min":0,"x_max":0,"o":"m 228 0 l 442 0 b 756 821 442 350 549 588 l 756 986 l 28 986 l 28 808 l 542 808 b 228 0 351 586 228 306 z "},"8":{"ha":922,"x_min":0,"x_max":0,"o":"m 461 -22 b 875 268 714 -22 875 78 b 672 529 875 399 797 490 b 826 738 769 565 826 636 b 461 1008 826 899 696 1008 b 96 738 226 1008 96 899 b 249 529 96 638 153 564 b 47 268 124 490 47 397 b 461 -22 47 78 210 -22 z m 461 599 b 310 715 367 599 310 636 b 461 832 310 786 363 832 b 613 715 560 832 613 786 b 461 599 613 636 556 599 z m 461 156 b 265 300 343 156 265 208 b 461 450 265 390 336 450 b 657 300 586 450 657 390 b 461 156 657 208 579 156 z "},"9":{"ha":876,"x_min":0,"x_max":0,"o":"m 407 -22 b 815 528 688 -22 815 183 b 417 1008 815 836 686 1008 b 47 651 194 1008 47 871 b 376 321 47 453 181 321 b 607 424 479 321 557 356 b 407 151 596 231 532 151 b 267 235 332 151 286 181 l 65 222 b 407 -22 111 64 222 -22 z m 422 472 b 258 656 324 472 258 543 b 425 840 258 768 322 840 b 592 654 531 840 592 767 b 422 472 592 540 525 472 z "},"A":{"ha":1014,"x_min":0,"x_max":0,"o":"m 26 0 l 244 0 l 317 210 l 696 210 l 768 0 l 988 0 l 632 986 l 382 986 z m 376 383 l 507 764 l 638 383 z "},"Á":{"ha":1014,"x_min":0,"x_max":0,"o":"m 413 1063 l 571 1063 l 696 1268 l 494 1268 z m 26 0 l 244 0 l 317 210 l 696 210 l 768 0 l 988 0 l 632 986 l 382 986 z m 376 383 l 507 764 l 638 383 z "},"Ă":{"ha":1014,"x_min":0,"x_max":0,"o":"m 507 1064 b 725 1268 636 1064 719 1138 l 604 1268 b 507 1178 597 1204 563 1178 b 410 1268 451 1178 417 1204 l 289 1268 b 507 1064 294 1138 378 1064 z m 26 0 l 244 0 l 317 210 l 696 210 l 768 0 l 988 0 l 632 986 l 382 986 z m 376 383 l 507 764 l 638 383 z "},"Ǎ":{"ha":1014,"x_min":0,"x_max":0,"o":"m 274 1275 l 407 1063 l 607 1063 l 740 1275 l 596 1275 l 507 1151 l 419 1275 z m 26 0 l 244 0 l 317 210 l 696 210 l 768 0 l 988 0 l 632 986 l 382 986 z m 376 383 l 507 764 l 638 383 z "},"Â":{"ha":1014,"x_min":0,"x_max":0,"o":"m 274 1063 l 419 1063 l 507 1186 l 596 1063 l 740 1063 l 607 1275 l 407 1275 z m 26 0 l 244 0 l 317 210 l 696 210 l 768 0 l 988 0 l 632 986 l 382 986 z m 376 383 l 507 764 l 638 383 z "},"Ä":{"ha":1014,"x_min":0,"x_max":0,"o":"m 258 1074 l 457 1074 l 457 1242 l 258 1242 z m 557 1074 l 756 1074 l 756 1242 l 557 1242 z m 26 0 l 244 0 l 317 210 l 696 210 l 768 0 l 988 0 l 632 986 l 382 986 z m 376 383 l 507 764 l 638 383 z "},"À":{"ha":1014,"x_min":0,"x_max":0,"o":"m 440 1063 l 600 1063 l 518 1267 l 315 1267 z m 26 0 l 244 0 l 317 210 l 696 210 l 768 0 l 988 0 l 632 986 l 382 986 z m 376 383 l 507 764 l 638 383 z "},"Ā":{"ha":1014,"x_min":0,"x_max":0,"o":"m 300 1085 l 715 1085 l 715 1238 l 300 1238 z m 26 0 l 244 0 l 317 210 l 696 210 l 768 0 l 988 0 l 632 986 l 382 986 z m 376 383 l 507 764 l 638 383 z "},"Ą":{"ha":1014,"x_min":0,"x_max":0,"o":"m 26 0 l 244 0 l 317 210 l 696 210 l 768 0 l 824 0 l 803 -28 b 733 -183 768 -72 733 -126 b 890 -301 733 -260 792 -301 b 1039 -265 950 -301 1014 -286 l 1000 -160 b 938 -178 986 -169 961 -178 b 901 -143 918 -178 901 -165 b 946 -56 901 -119 918 -92 l 988 0 l 632 986 l 382 986 z m 376 383 l 507 764 l 638 383 z "},"Å":{"ha":1022,"x_min":0,"x_max":0,"o":"m 504 1049 b 647 1189 585 1049 647 1108 b 504 1331 647 1269 585 1331 b 361 1189 424 1331 361 1269 b 504 1049 361 1108 424 1049 z m 504 1138 b 453 1189 474 1138 453 1160 b 504 1242 453 1219 474 1242 b 556 1189 535 1242 556 1219 b 504 1138 556 1160 535 1138 z m 18 0 l 236 0 l 308 210 l 688 210 l 761 0 l 979 0 l 624 986 l 374 986 z m 368 383 l 499 764 l 629 383 z "},"Ã":{"ha":1022,"x_min":0,"x_max":0,"o":"m 576 1083 b 736 1283 676 1083 733 1161 l 632 1283 b 581 1207 628 1224 608 1207 b 526 1232 563 1207 549 1215 b 414 1274 490 1261 458 1274 b 260 1076 318 1274 261 1197 l 364 1076 b 417 1150 368 1133 390 1150 b 471 1125 436 1150 450 1142 b 576 1083 506 1094 533 1083 z m 18 0 l 236 0 l 308 210 l 688 210 l 761 0 l 979 0 l 624 986 l 374 986 z m 368 383 l 499 764 l 629 383 z "},"Æ":{"ha":1447,"x_min":0,"x_max":0,"o":"m 26 0 l 249 0 l 357 211 l 728 211 l 728 0 l 1385 0 l 1385 178 l 939 178 l 939 407 l 1357 407 l 1357 582 l 939 582 l 939 808 l 1374 808 l 1374 986 l 554 986 z m 728 811 l 728 382 l 446 382 l 668 811 z "},"B":{"ha":976,"x_min":0,"x_max":0,"o":"m 103 0 l 533 0 b 906 272 772 0 906 89 b 660 510 906 408 819 497 b 864 718 790 522 864 599 b 486 986 864 903 731 986 l 103 986 z m 314 578 l 314 814 l 481 814 b 651 696 588 814 651 778 b 481 578 651 618 585 578 z m 314 172 l 314 425 l 524 425 b 693 297 625 425 693 381 b 524 172 693 213 625 172 z "},"C":{"ha":1019,"x_min":0,"x_max":0,"o":"m 521 -22 b 968 360 778 -22 928 119 l 747 368 b 524 156 728 235 656 156 b 276 492 372 156 276 283 b 525 831 276 697 368 831 b 744 633 647 831 722 757 l 964 642 b 525 1008 922 876 783 1008 b 58 492 240 1008 58 806 b 521 -22 58 169 251 -22 z "},"Ć":{"ha":1019,"x_min":0,"x_max":0,"o":"m 429 1063 l 588 1063 l 713 1268 l 511 1268 z m 521 -22 b 968 360 778 -22 928 119 l 747 368 b 524 156 728 235 656 156 b 276 492 372 156 276 283 b 525 831 276 697 368 831 b 744 633 647 831 722 757 l 964 642 b 525 1008 922 876 783 1008 b 58 492 240 1008 58 806 b 521 -22 58 169 251 -22 z "},"Č":{"ha":1019,"x_min":0,"x_max":0,"o":"m 290 1275 l 424 1063 l 624 1063 l 757 1275 l 611 1275 l 524 1151 l 436 1275 z m 521 -22 b 968 360 778 -22 928 119 l 747 368 b 524 156 728 235 656 156 b 276 492 372 156 276 283 b 525 831 276 697 368 831 b 744 633 647 831 722 757 l 964 642 b 525 1008 922 876 783 1008 b 58 492 240 1008 58 806 b 521 -22 58 169 251 -22 z "},"Ç":{"ha":1019,"x_min":0,"x_max":0,"o":"m 518 -322 b 693 -175 615 -322 693 -275 b 560 -43 693 -106 653 -51 l 575 -19 b 968 360 799 -1 931 136 l 747 368 b 524 156 728 235 656 156 b 276 492 372 156 276 283 b 525 831 276 697 368 831 b 744 633 647 831 722 757 l 964 642 b 525 1008 922 876 783 1008 b 58 492 240 1008 58 806 b 460 -18 58 194 222 8 l 433 -62 l 489 -117 b 581 -171 564 -117 581 -139 b 514 -221 581 -203 554 -221 b 431 -168 469 -221 446 -204 l 339 -207 b 518 -322 364 -275 425 -322 z "},"Ĉ":{"ha":1019,"x_min":0,"x_max":0,"o":"m 290 1063 l 436 1063 l 524 1186 l 611 1063 l 757 1063 l 624 1275 l 424 1275 z m 521 -22 b 968 360 778 -22 928 119 l 747 368 b 524 156 728 235 656 156 b 276 492 372 156 276 283 b 525 831 276 697 368 831 b 744 633 647 831 722 757 l 964 642 b 525 1008 922 876 783 1008 b 58 492 240 1008 58 806 b 521 -22 58 169 251 -22 z "},"Ċ":{"ha":1019,"x_min":0,"x_max":0,"o":"m 415 1078 l 632 1078 l 632 1244 l 415 1244 z m 521 -22 b 968 360 778 -22 928 119 l 747 368 b 524 156 728 235 656 156 b 276 492 372 156 276 283 b 525 831 276 697 368 831 b 744 633 647 831 722 757 l 964 642 b 525 1008 922 876 783 1008 b 58 492 240 1008 58 806 b 521 -22 58 169 251 -22 z "},"D":{"ha":1000,"x_min":0,"x_max":0,"o":"m 103 0 l 451 0 b 942 492 765 0 942 176 b 443 986 942 808 763 986 l 103 986 z m 314 178 l 314 808 l 443 808 b 724 493 633 808 724 707 b 443 178 724 279 633 178 z "},"Ď":{"ha":1000,"x_min":0,"x_max":0,"o":"m 218 1275 l 351 1063 l 553 1063 l 686 1275 l 540 1275 l 451 1151 l 364 1275 z m 103 0 l 451 0 b 942 492 765 0 942 176 b 443 986 942 808 763 986 l 103 986 z m 314 178 l 314 808 l 443 808 b 724 493 633 808 724 707 b 443 178 724 279 633 178 z "},"Đ":{"ha":1000,"x_min":0,"x_max":0,"o":"m 103 0 l 451 0 b 942 492 765 0 942 176 b 443 986 942 808 763 986 l 103 986 l 103 574 l 13 574 l 13 413 l 103 413 z m 314 178 l 314 413 l 571 413 l 571 574 l 314 574 l 314 808 l 443 808 b 724 493 633 808 724 707 b 443 178 724 279 633 178 z "},"Ð":{"ha":1000,"x_min":0,"x_max":0,"o":"m 103 0 l 451 0 b 942 492 765 0 942 176 b 443 986 942 808 763 986 l 103 986 l 103 574 l 13 574 l 13 413 l 103 413 z m 314 178 l 314 413 l 571 413 l 571 574 l 314 574 l 314 808 l 443 808 b 724 493 633 808 724 707 b 443 178 724 279 633 178 z "},"E":{"ha":864,"x_min":0,"x_max":0,"o":"m 103 0 l 800 0 l 800 178 l 314 178 l 314 407 l 772 407 l 772 582 l 314 582 l 314 808 l 789 808 l 789 986 l 103 986 z "},"É":{"ha":864,"x_min":0,"x_max":0,"o":"m 353 1063 l 511 1063 l 636 1268 l 433 1268 z m 103 0 l 800 0 l 800 178 l 314 178 l 314 407 l 772 407 l 772 582 l 314 582 l 314 808 l 789 808 l 789 986 l 103 986 z "},"Ě":{"ha":864,"x_min":0,"x_max":0,"o":"m 214 1275 l 347 1063 l 547 1063 l 681 1275 l 535 1275 l 447 1151 l 358 1275 z m 103 0 l 800 0 l 800 178 l 314 178 l 314 407 l 772 407 l 772 582 l 314 582 l 314 808 l 789 808 l 789 986 l 103 986 z "},"Ê":{"ha":864,"x_min":0,"x_max":0,"o":"m 214 1063 l 358 1063 l 447 1186 l 535 1063 l 681 1063 l 547 1275 l 347 1275 z m 103 0 l 800 0 l 800 178 l 314 178 l 314 407 l 772 407 l 772 582 l 314 582 l 314 808 l 789 808 l 789 986 l 103 986 z "},"Ë":{"ha":864,"x_min":0,"x_max":0,"o":"m 199 1074 l 397 1074 l 397 1242 l 199 1242 z m 497 1074 l 696 1074 l 696 1242 l 497 1242 z m 103 0 l 800 0 l 800 178 l 314 178 l 314 407 l 772 407 l 772 582 l 314 582 l 314 808 l 789 808 l 789 986 l 103 986 z "},"Ė":{"ha":864,"x_min":0,"x_max":0,"o":"m 339 1078 l 554 1078 l 554 1244 l 339 1244 z m 103 0 l 800 0 l 800 178 l 314 178 l 314 407 l 772 407 l 772 582 l 314 582 l 314 808 l 789 808 l 789 986 l 103 986 z "},"È":{"ha":864,"x_min":0,"x_max":0,"o":"m 381 1063 l 539 1063 l 458 1267 l 256 1267 z m 103 0 l 800 0 l 800 178 l 314 178 l 314 407 l 772 407 l 772 582 l 314 582 l 314 808 l 789 808 l 789 986 l 103 986 z "},"Ē":{"ha":864,"x_min":0,"x_max":0,"o":"m 239 1085 l 654 1085 l 654 1238 l 239 1238 z m 103 0 l 800 0 l 800 178 l 314 178 l 314 407 l 772 407 l 772 582 l 314 582 l 314 808 l 789 808 l 789 986 l 103 986 z "},"Ę":{"ha":864,"x_min":0,"x_max":0,"o":"m 103 0 l 636 0 l 615 -28 b 546 -183 581 -72 546 -126 b 703 -301 546 -260 604 -301 b 851 -265 763 -301 826 -286 l 813 -160 b 750 -178 799 -169 774 -178 b 714 -143 731 -178 714 -165 b 758 -56 714 -119 731 -92 l 800 0 l 800 178 l 314 178 l 314 407 l 772 407 l 772 582 l 314 582 l 314 808 l 789 808 l 789 986 l 103 986 z "},"Ẽ":{"ha":864,"x_min":0,"x_max":0,"o":"m 525 1075 b 685 1275 625 1075 682 1153 l 581 1275 b 529 1199 576 1215 557 1199 b 475 1224 511 1199 497 1207 b 363 1265 439 1253 407 1265 b 208 1068 267 1265 210 1189 l 313 1068 b 365 1142 317 1125 339 1142 b 419 1117 385 1142 399 1133 b 525 1075 454 1086 482 1075 z m 103 0 l 800 0 l 800 178 l 314 178 l 314 407 l 772 407 l 772 582 l 314 582 l 314 808 l 789 808 l 789 986 l 103 986 z "},"Ə":{"ha":1051,"x_min":0,"x_max":0,"o":"m 993 493 b 517 1008 993 822 796 1008 b 86 696 303 1008 147 888 l 308 683 b 515 831 349 779 428 831 b 774 561 654 831 754 733 l 58 561 l 58 483 b 517 -22 58 149 274 -22 b 993 493 778 -22 993 154 z m 519 156 b 285 396 393 156 310 229 l 772 396 b 519 156 750 238 657 156 z "},"F":{"ha":839,"x_min":0,"x_max":0,"o":"m 103 0 l 314 0 l 314 394 l 758 394 l 758 569 l 314 569 l 314 808 l 783 808 l 783 986 l 103 986 z "},"G":{"ha":1025,"x_min":0,"x_max":0,"o":"m 514 -22 b 822 140 653 -22 771 42 l 829 0 l 960 0 l 960 513 l 528 513 l 528 358 l 753 358 b 532 156 743 240 663 156 b 276 492 354 156 276 294 b 528 831 276 685 358 831 b 739 653 657 831 718 763 l 957 663 b 526 1008 914 872 782 1008 b 58 492 232 1008 58 789 b 514 -22 58 188 229 -22 z "},"Ğ":{"ha":1025,"x_min":0,"x_max":0,"o":"m 528 1064 b 746 1268 657 1064 740 1138 l 625 1268 b 528 1178 618 1204 583 1178 b 431 1268 472 1178 438 1204 l 310 1268 b 528 1064 315 1138 399 1064 z m 514 -22 b 822 140 653 -22 771 42 l 829 0 l 960 0 l 960 513 l 528 513 l 528 358 l 753 358 b 532 156 743 240 663 156 b 276 492 354 156 276 294 b 528 831 276 685 358 831 b 739 653 657 831 718 763 l 957 663 b 526 1008 914 872 782 1008 b 58 492 232 1008 58 789 b 514 -22 58 188 229 -22 z "},"Ǧ":{"ha":1025,"x_min":0,"x_max":0,"o":"m 294 1275 l 428 1063 l 628 1063 l 761 1275 l 617 1275 l 528 1151 l 440 1275 z m 514 -22 b 822 140 653 -22 771 42 l 829 0 l 960 0 l 960 513 l 528 513 l 528 358 l 753 358 b 532 156 743 240 663 156 b 276 492 354 156 276 294 b 528 831 276 685 358 831 b 739 653 657 831 718 763 l 957 663 b 526 1008 914 872 782 1008 b 58 492 232 1008 58 789 b 514 -22 58 188 229 -22 z "},"Ĝ":{"ha":1025,"x_min":0,"x_max":0,"o":"m 294 1063 l 440 1063 l 528 1186 l 617 1063 l 761 1063 l 628 1275 l 428 1275 z m 514 -22 b 822 140 653 -22 771 42 l 829 0 l 960 0 l 960 513 l 528 513 l 528 358 l 753 358 b 532 156 743 240 663 156 b 276 492 354 156 276 294 b 528 831 276 685 358 831 b 739 653 657 831 718 763 l 957 663 b 526 1008 914 872 782 1008 b 58 492 232 1008 58 789 b 514 -22 58 188 229 -22 z "},"Ģ":{"ha":1025,"x_min":0,"x_max":0,"o":"m 514 -22 b 822 140 653 -22 771 42 l 829 0 l 960 0 l 960 513 l 528 513 l 528 358 l 753 358 b 532 156 743 240 663 156 b 276 492 354 156 276 294 b 528 831 276 685 358 831 b 739 653 657 831 718 763 l 957 663 b 526 1008 914 872 782 1008 b 58 492 232 1008 58 789 b 514 -22 58 188 229 -22 z m 418 -351 l 540 -351 l 622 -214 l 622 -68 l 442 -68 l 442 -229 l 490 -229 z "},"Ġ":{"ha":1025,"x_min":0,"x_max":0,"o":"m 421 1078 l 636 1078 l 636 1244 l 421 1244 z m 514 -22 b 822 140 653 -22 771 42 l 829 0 l 960 0 l 960 513 l 528 513 l 528 358 l 753 358 b 532 156 743 240 663 156 b 276 492 354 156 276 294 b 528 831 276 685 358 831 b 739 653 657 831 718 763 l 957 663 b 526 1008 914 872 782 1008 b 58 492 232 1008 58 789 b 514 -22 58 188 229 -22 z "},"Ḡ":{"ha":1025,"x_min":0,"x_max":0,"o":"m 321 1085 l 736 1085 l 736 1238 l 321 1238 z m 514 -22 b 822 140 653 -22 771 42 l 829 0 l 960 0 l 960 513 l 528 513 l 528 358 l 753 358 b 532 156 743 240 663 156 b 276 492 354 156 276 294 b 528 831 276 685 358 831 b 739 653 657 831 718 763 l 957 663 b 526 1008 914 872 782 1008 b 58 492 232 1008 58 789 b 514 -22 58 188 229 -22 z "},"Ǥ":{"ha":1082,"x_min":0,"x_max":0,"o":"m 529 -22 b 926 235 722 -22 864 64 l 1031 235 l 1031 335 l 951 335 b 960 454 957 372 960 411 l 960 513 l 528 513 l 528 396 l 753 396 b 747 335 753 374 750 354 l 528 335 l 528 235 l 710 235 b 525 156 672 182 610 156 b 276 492 357 156 276 294 b 531 831 276 685 354 831 b 739 653 661 831 719 761 l 957 663 b 535 1008 918 876 774 1008 b 58 492 229 1008 58 785 b 529 -22 58 199 217 -22 z "},"H":{"ha":1001,"x_min":0,"x_max":0,"o":"m 103 0 l 314 0 l 314 407 l 688 407 l 688 0 l 899 0 l 899 986 l 688 986 l 688 585 l 314 585 l 314 986 l 103 986 z "},"Ħ":{"ha":1001,"x_min":0,"x_max":0,"o":"m 103 0 l 314 0 l 314 407 l 688 407 l 688 0 l 899 0 l 899 722 l 999 722 l 999 876 l 899 876 l 899 986 l 688 986 l 688 876 l 314 876 l 314 986 l 103 986 l 103 876 l 4 876 l 4 722 l 103 722 z m 314 585 l 314 722 l 688 722 l 688 585 z "},"Ĥ":{"ha":1001,"x_min":0,"x_max":0,"o":"m 267 1063 l 413 1063 l 501 1186 l 589 1063 l 735 1063 l 601 1275 l 400 1275 z m 103 0 l 314 0 l 314 407 l 688 407 l 688 0 l 899 0 l 899 986 l 688 986 l 688 585 l 314 585 l 314 986 l 103 986 z "},"I":{"ha":417,"x_min":0,"x_max":0,"o":"m 103 0 l 314 0 l 314 986 l 103 986 z "},"Ĳ":{"ha":1268,"x_min":0,"x_max":0,"o":"m 103 0 l 314 0 l 314 986 l 103 986 z m 826 -22 b 1186 354 1042 -22 1186 125 l 1186 986 l 975 986 l 975 354 b 826 156 975 219 919 156 b 678 361 735 156 679 221 l 465 351 b 826 -22 468 135 597 -22 z "},"Í":{"ha":417,"x_min":0,"x_max":0,"o":"m 114 1063 l 272 1063 l 397 1268 l 196 1268 z m 103 0 l 314 0 l 314 986 l 103 986 z "},"Î":{"ha":417,"x_min":0,"x_max":0,"o":"m -25 1063 l 121 1063 l 208 1186 l 296 1063 l 442 1063 l 308 1275 l 108 1275 z m 103 0 l 314 0 l 314 986 l 103 986 z "},"Ï":{"ha":417,"x_min":0,"x_max":0,"o":"m -40 1074 l 158 1074 l 158 1242 l -40 1242 z m 258 1074 l 457 1074 l 457 1242 l 258 1242 z m 103 0 l 314 0 l 314 986 l 103 986 z "},"İ":{"ha":417,"x_min":0,"x_max":0,"o":"m 100 1078 l 317 1078 l 317 1244 l 100 1244 z m 103 0 l 314 0 l 314 986 l 103 986 z "},"Ì":{"ha":417,"x_min":0,"x_max":0,"o":"m 142 1063 l 301 1063 l 219 1267 l 17 1267 z m 103 0 l 314 0 l 314 986 l 103 986 z "},"Ī":{"ha":417,"x_min":0,"x_max":0,"o":"m 0 1085 l 417 1085 l 417 1238 l 0 1238 z m 103 0 l 314 0 l 314 986 l 103 986 z "},"Į":{"ha":417,"x_min":0,"x_max":0,"o":"m 103 0 l 150 0 l 129 -28 b 60 -183 94 -72 60 -126 b 217 -301 60 -260 118 -301 b 365 -265 276 -301 340 -286 l 326 -160 b 264 -178 313 -169 288 -178 b 228 -143 244 -178 228 -165 b 272 -56 228 -119 244 -92 l 314 0 l 314 986 l 103 986 z "},"Ĩ":{"ha":417,"x_min":0,"x_max":0,"o":"m 286 1075 b 446 1275 388 1075 443 1153 l 342 1275 b 290 1199 338 1215 318 1199 b 236 1224 272 1199 258 1207 b 124 1265 200 1253 168 1265 b -31 1068 28 1265 -29 1189 l 74 1068 b 126 1142 78 1125 100 1142 b 181 1117 146 1142 160 1133 b 286 1075 217 1086 243 1075 z m 103 0 l 314 0 l 314 986 l 103 986 z "},"J":{"ha":871,"x_min":0,"x_max":0,"o":"m 429 -22 b 789 354 644 -22 789 125 l 789 986 l 578 986 l 578 354 b 429 156 578 219 522 156 b 281 361 338 156 282 221 l 68 351 b 429 -22 71 135 200 -22 z "},"Ĵ":{"ha":871,"x_min":0,"x_max":0,"o":"m 450 1063 l 596 1063 l 683 1186 l 772 1063 l 918 1063 l 785 1275 l 583 1275 z m 429 -22 b 789 354 644 -22 789 125 l 789 986 l 578 986 l 578 354 b 429 156 578 219 522 156 b 281 361 338 156 282 221 l 68 351 b 429 -22 71 135 200 -22 z "},"K":{"ha":957,"x_min":0,"x_max":0,"o":"m 103 0 l 314 0 l 314 290 l 417 410 l 700 0 l 940 0 l 556 551 l 918 986 l 672 986 l 314 556 l 314 986 l 103 986 z "},"Ǩ":{"ha":957,"x_min":0,"x_max":0,"o":"m 247 1275 l 381 1063 l 581 1063 l 714 1275 l 568 1275 l 481 1151 l 393 1275 z m 103 0 l 314 0 l 314 290 l 417 410 l 700 0 l 940 0 l 556 551 l 918 986 l 672 986 l 314 556 l 314 986 l 103 986 z "},"Ķ":{"ha":957,"x_min":0,"x_max":0,"o":"m 103 0 l 314 0 l 314 290 l 417 410 l 700 0 l 940 0 l 556 551 l 918 986 l 672 986 l 314 556 l 314 986 l 103 986 z m 382 -351 l 504 -351 l 586 -214 l 586 -68 l 406 -68 l 406 -229 l 454 -229 z "},"L":{"ha":818,"x_min":0,"x_max":0,"o":"m 103 0 l 768 0 l 768 178 l 314 178 l 314 986 l 103 986 z "},"Ĺ":{"ha":818,"x_min":0,"x_max":0,"o":"m 114 1063 l 272 1063 l 397 1268 l 196 1268 z m 103 0 l 768 0 l 768 178 l 314 178 l 314 986 l 103 986 z "},"Ľ":{"ha":818,"x_min":0,"x_max":0,"o":"m 103 0 l 768 0 l 768 178 l 314 178 l 314 986 l 103 986 z m 531 589 l 675 589 l 750 986 l 571 986 z "},"Ļ":{"ha":818,"x_min":0,"x_max":0,"o":"m 103 0 l 768 0 l 768 178 l 314 178 l 314 986 l 103 986 z m 321 -351 l 443 -351 l 526 -214 l 526 -68 l 346 -68 l 346 -229 l 393 -229 z "},"Ł":{"ha":818,"x_min":0,"x_max":0,"o":"m 103 0 l 768 0 l 768 178 l 314 178 l 314 485 l 503 576 l 503 718 l 314 626 l 314 986 l 103 986 l 103 525 l 7 479 l 7 336 l 103 383 z "},"M":{"ha":1271,"x_min":0,"x_max":0,"o":"m 103 0 l 314 0 l 314 639 l 544 3 l 725 3 l 957 639 l 957 0 l 1168 0 l 1168 986 l 886 986 l 636 268 l 385 986 l 103 986 z "},"N":{"ha":1042,"x_min":0,"x_max":0,"o":"m 103 0 l 314 0 l 314 657 l 703 0 l 939 0 l 939 986 l 728 986 l 728 306 l 336 986 l 103 986 z "},"Ń":{"ha":1042,"x_min":0,"x_max":0,"o":"m 435 1063 l 593 1063 l 718 1268 l 517 1268 z m 103 0 l 314 0 l 314 657 l 703 0 l 939 0 l 939 986 l 728 986 l 728 306 l 336 986 l 103 986 z "},"Ň":{"ha":1042,"x_min":0,"x_max":0,"o":"m 296 1275 l 429 1063 l 629 1063 l 763 1275 l 618 1275 l 529 1151 l 442 1275 z m 103 0 l 314 0 l 314 657 l 703 0 l 939 0 l 939 986 l 728 986 l 728 306 l 336 986 l 103 986 z "},"Ņ":{"ha":1042,"x_min":0,"x_max":0,"o":"m 103 0 l 314 0 l 314 657 l 703 0 l 939 0 l 939 986 l 728 986 l 728 306 l 336 986 l 103 986 z m 404 -351 l 526 -351 l 608 -214 l 608 -68 l 428 -68 l 428 -229 l 476 -229 z "},"Ñ":{"ha":1042,"x_min":0,"x_max":0,"o":"m 607 1075 b 767 1275 708 1075 764 1153 l 663 1275 b 611 1199 658 1215 639 1199 b 557 1224 594 1199 581 1207 b 444 1265 521 1253 489 1265 b 290 1068 349 1265 292 1189 l 394 1068 b 447 1142 399 1125 421 1142 b 501 1117 467 1142 481 1133 b 607 1075 538 1086 564 1075 z m 103 0 l 314 0 l 314 657 l 703 0 l 939 0 l 939 986 l 728 986 l 728 306 l 336 986 l 103 986 z "},"Ŋ":{"ha":1042,"x_min":0,"x_max":0,"o":"m 103 0 l 314 0 l 314 657 l 703 0 l 739 0 l 739 -11 b 665 -81 739 -61 715 -81 l 535 -81 l 535 -225 l 715 -225 b 939 -8 863 -225 939 -143 l 939 986 l 728 986 l 728 307 l 336 986 l 103 986 z "},"O":{"ha":1078,"x_min":0,"x_max":0,"o":"m 539 -22 b 1019 492 839 -22 1019 174 b 539 1008 1019 810 839 1008 b 58 492 239 1008 58 810 b 539 -22 58 174 239 -22 z m 539 156 b 276 492 374 156 276 278 b 539 831 276 706 374 831 b 801 492 703 831 801 706 b 539 156 801 278 703 156 z "},"Ó":{"ha":1078,"x_min":0,"x_max":0,"o":"m 443 1063 l 603 1063 l 728 1268 l 525 1268 z m 539 -22 b 1019 492 839 -22 1019 174 b 539 1008 1019 810 839 1008 b 58 492 239 1008 58 810 b 539 -22 58 174 239 -22 z m 539 156 b 276 492 374 156 276 278 b 539 831 276 706 374 831 b 801 492 703 831 801 706 b 539 156 801 278 703 156 z "},"Ô":{"ha":1078,"x_min":0,"x_max":0,"o":"m 304 1063 l 450 1063 l 539 1186 l 626 1063 l 772 1063 l 639 1275 l 438 1275 z m 539 -22 b 1019 492 839 -22 1019 174 b 539 1008 1019 810 839 1008 b 58 492 239 1008 58 810 b 539 -22 58 174 239 -22 z m 539 156 b 276 492 374 156 276 278 b 539 831 276 706 374 831 b 801 492 703 831 801 706 b 539 156 801 278 703 156 z "},"Ö":{"ha":1078,"x_min":0,"x_max":0,"o":"m 290 1074 l 489 1074 l 489 1242 l 290 1242 z m 588 1074 l 788 1074 l 788 1242 l 588 1242 z m 539 -22 b 1019 492 839 -22 1019 174 b 539 1008 1019 810 839 1008 b 58 492 239 1008 58 810 b 539 -22 58 174 239 -22 z m 539 156 b 276 492 374 156 276 278 b 539 831 276 706 374 831 b 801 492 703 831 801 706 b 539 156 801 278 703 156 z "},"Ò":{"ha":1078,"x_min":0,"x_max":0,"o":"m 472 1063 l 631 1063 l 549 1267 l 347 1267 z m 539 -22 b 1019 492 839 -22 1019 174 b 539 1008 1019 810 839 1008 b 58 492 239 1008 58 810 b 539 -22 58 174 239 -22 z m 539 156 b 276 492 374 156 276 278 b 539 831 276 706 374 831 b 801 492 703 831 801 706 b 539 156 801 278 703 156 z "},"Ő":{"ha":1078,"x_min":0,"x_max":0,"o":"m 336 1063 l 494 1063 l 619 1268 l 417 1268 z m 582 1063 l 740 1063 l 865 1268 l 664 1268 z m 539 -22 b 1019 492 839 -22 1019 174 b 539 1008 1019 810 839 1008 b 58 492 239 1008 58 810 b 539 -22 58 174 239 -22 z m 539 156 b 276 492 374 156 276 278 b 539 831 276 706 374 831 b 801 492 703 831 801 706 b 539 156 801 278 703 156 z "},"Ō":{"ha":1078,"x_min":0,"x_max":0,"o":"m 331 1085 l 746 1085 l 746 1238 l 331 1238 z m 539 -22 b 1019 492 839 -22 1019 174 b 539 1008 1019 810 839 1008 b 58 492 239 1008 58 810 b 539 -22 58 174 239 -22 z m 539 156 b 276 492 374 156 276 278 b 539 831 276 706 374 831 b 801 492 703 831 801 706 b 539 156 801 278 703 156 z "},"Ø":{"ha":1078,"x_min":0,"x_max":0,"o":"m 100 -22 l 256 -22 l 294 33 b 539 -22 363 -3 444 -22 b 1019 492 839 -22 1019 174 b 885 876 1019 654 971 786 l 978 1008 l 822 1008 l 783 953 b 539 1008 714 989 632 1008 b 58 492 239 1008 58 810 b 192 110 58 329 106 199 z m 276 492 b 539 831 276 706 374 831 b 672 794 590 831 635 818 l 317 288 b 276 492 290 342 276 410 z m 539 156 b 404 190 486 156 442 168 l 760 697 b 801 492 786 643 801 574 b 539 156 801 278 703 156 z "},"Õ":{"ha":1078,"x_min":0,"x_max":0,"o":"m 617 1075 b 775 1275 717 1075 774 1153 l 672 1275 b 619 1199 668 1215 649 1199 b 567 1224 603 1199 589 1207 b 453 1265 531 1253 497 1265 b 300 1068 357 1265 301 1189 l 404 1068 b 457 1142 408 1125 431 1142 b 511 1117 476 1142 489 1133 b 617 1075 546 1086 574 1075 z m 539 -22 b 1019 492 839 -22 1019 174 b 539 1008 1019 810 839 1008 b 58 492 239 1008 58 810 b 539 -22 58 174 239 -22 z m 539 156 b 276 492 374 156 276 278 b 539 831 276 706 374 831 b 801 492 703 831 801 706 b 539 156 801 278 703 156 z "},"Œ":{"ha":1556,"x_min":0,"x_max":0,"o":"m 536 -22 b 833 96 661 -22 761 19 l 833 0 l 1492 0 l 1492 178 l 1044 178 l 1044 407 l 1464 407 l 1464 582 l 1044 582 l 1044 808 l 1481 808 l 1481 986 l 833 986 l 833 890 b 536 1008 761 967 661 1008 b 58 492 246 1008 58 814 b 536 -22 58 174 247 -22 z m 536 156 b 276 492 360 156 276 300 b 536 831 276 685 358 831 b 800 492 719 831 800 685 b 536 156 800 300 719 156 z "},"P":{"ha":933,"x_min":0,"x_max":0,"o":"m 103 0 l 314 0 l 314 340 l 497 340 b 876 664 733 340 876 464 b 497 986 876 864 733 986 l 103 986 z m 314 518 l 314 808 l 485 808 b 660 664 596 808 660 760 b 485 518 660 568 596 518 z "},"Þ":{"ha":892,"x_min":0,"x_max":0,"o":"m 103 0 l 314 0 l 314 207 l 467 207 b 835 510 700 207 835 317 b 467 810 835 699 700 810 l 314 810 l 314 986 l 103 986 z m 463 631 b 618 508 567 631 618 590 b 463 385 618 426 567 385 l 314 385 l 314 631 z "},"Q":{"ha":1068,"x_min":0,"x_max":0,"o":"m 788 -86 l 961 -86 l 831 76 b 1010 492 944 168 1010 308 b 535 1008 1010 785 843 1008 b 58 492 226 1008 58 785 b 535 -22 58 192 243 -22 b 711 10 607 -22 668 -11 z m 535 156 b 276 492 356 156 276 313 b 535 831 276 672 354 831 b 792 492 714 831 792 672 b 707 238 792 369 761 290 l 635 333 l 460 333 l 597 165 b 535 156 579 158 558 156 z "},"R":{"ha":968,"x_min":0,"x_max":0,"o":"m 103 0 l 314 0 l 314 361 l 524 361 b 665 250 624 361 660 325 l 683 0 l 899 0 l 874 283 b 715 453 865 383 814 439 b 889 692 818 485 889 572 b 535 986 889 871 751 986 l 103 986 z m 314 538 l 314 808 l 504 808 b 672 674 614 808 672 761 b 511 538 672 588 613 538 z "},"Ŕ":{"ha":968,"x_min":0,"x_max":0,"o":"m 385 1063 l 543 1063 l 668 1268 l 465 1268 z m 103 0 l 314 0 l 314 361 l 524 361 b 665 250 624 361 660 325 l 683 0 l 899 0 l 874 283 b 715 453 865 383 814 439 b 889 692 818 485 889 572 b 535 986 889 871 751 986 l 103 986 z m 314 538 l 314 808 l 504 808 b 672 674 614 808 672 761 b 511 538 672 588 613 538 z "},"Ř":{"ha":968,"x_min":0,"x_max":0,"o":"m 246 1275 l 379 1063 l 579 1063 l 713 1275 l 567 1275 l 479 1151 l 390 1275 z m 103 0 l 314 0 l 314 361 l 524 361 b 665 250 624 361 660 325 l 683 0 l 899 0 l 874 283 b 715 453 865 383 814 439 b 889 692 818 485 889 572 b 535 986 889 871 751 986 l 103 986 z m 314 538 l 314 808 l 504 808 b 672 674 614 808 672 761 b 511 538 672 588 613 538 z "},"Ŗ":{"ha":968,"x_min":0,"x_max":0,"o":"m 103 0 l 314 0 l 314 361 l 524 361 b 665 250 624 361 660 325 l 683 0 l 899 0 l 874 283 b 715 453 865 383 814 439 b 889 692 818 485 889 572 b 535 986 889 871 751 986 l 103 986 z m 314 538 l 314 808 l 504 808 b 672 674 614 808 672 761 b 511 538 672 588 613 538 z m 386 -351 l 508 -351 l 590 -214 l 590 -68 l 410 -68 l 410 -229 l 458 -229 z "},"S":{"ha":946,"x_min":0,"x_max":0,"o":"m 493 -22 b 874 276 726 -22 874 92 b 510 581 874 426 783 525 b 304 718 350 614 304 644 b 458 833 304 788 363 833 b 647 664 571 833 636 767 l 858 675 b 461 1008 838 869 706 1008 b 92 711 229 1008 92 888 b 442 417 92 543 189 474 b 661 267 626 375 661 335 b 496 153 661 192 600 153 b 285 335 368 153 301 218 l 72 325 b 493 -22 88 114 238 -22 z "},"Ś":{"ha":946,"x_min":0,"x_max":0,"o":"m 368 1063 l 526 1063 l 651 1268 l 450 1268 z m 493 -22 b 874 276 726 -22 874 92 b 510 581 874 426 783 525 b 304 718 350 614 304 644 b 458 833 304 788 363 833 b 647 664 571 833 636 767 l 858 675 b 461 1008 838 869 706 1008 b 92 711 229 1008 92 888 b 442 417 92 543 189 474 b 661 267 626 375 661 335 b 496 153 661 192 600 153 b 285 335 368 153 301 218 l 72 325 b 493 -22 88 114 238 -22 z "},"Š":{"ha":946,"x_min":0,"x_max":0,"o":"m 229 1275 l 363 1063 l 563 1063 l 696 1275 l 550 1275 l 463 1151 l 375 1275 z m 493 -22 b 874 276 726 -22 874 92 b 510 581 874 426 783 525 b 304 718 350 614 304 644 b 458 833 304 788 363 833 b 647 664 571 833 636 767 l 858 675 b 461 1008 838 869 706 1008 b 92 711 229 1008 92 888 b 442 417 92 543 189 474 b 661 267 626 375 661 335 b 496 153 661 192 600 153 b 285 335 368 153 301 218 l 72 325 b 493 -22 88 114 238 -22 z "},"Ş":{"ha":946,"x_min":0,"x_max":0,"o":"m 476 -322 b 653 -175 574 -322 653 -275 b 519 -43 653 -106 613 -51 l 535 -21 b 874 276 744 -8 874 103 b 510 581 874 426 783 525 b 304 718 350 614 304 644 b 458 833 304 788 363 833 b 647 664 571 833 636 767 l 858 675 b 461 1008 838 869 706 1008 b 92 711 229 1008 92 888 b 442 417 92 543 189 474 b 661 267 626 375 661 335 b 496 153 661 192 600 153 b 285 335 368 153 301 218 l 72 325 b 418 -18 86 136 208 6 l 392 -62 l 449 -117 b 539 -171 522 -117 539 -139 b 472 -221 539 -203 513 -221 b 390 -168 429 -221 406 -204 l 299 -207 b 476 -322 324 -275 383 -322 z "},"Ŝ":{"ha":946,"x_min":0,"x_max":0,"o":"m 229 1063 l 375 1063 l 463 1186 l 550 1063 l 696 1063 l 563 1275 l 363 1275 z m 493 -22 b 874 276 726 -22 874 92 b 510 581 874 426 783 525 b 304 718 350 614 304 644 b 458 833 304 788 363 833 b 647 664 571 833 636 767 l 858 675 b 461 1008 838 869 706 1008 b 92 711 229 1008 92 888 b 442 417 92 543 189 474 b 661 267 626 375 661 335 b 496 153 661 192 600 153 b 285 335 368 153 301 218 l 72 325 b 493 -22 88 114 238 -22 z "},"Ș":{"ha":946,"x_min":0,"x_max":0,"o":"m 493 -22 b 874 276 726 -22 874 92 b 510 581 874 426 783 525 b 304 718 350 614 304 644 b 458 833 304 788 363 833 b 647 664 571 833 636 767 l 858 675 b 461 1008 838 869 706 1008 b 92 711 229 1008 92 888 b 442 417 92 543 189 474 b 661 267 626 375 661 335 b 496 153 661 192 600 153 b 285 335 368 153 301 218 l 72 325 b 493 -22 88 114 238 -22 z m 371 -351 l 493 -351 l 575 -214 l 575 -68 l 394 -68 l 394 -229 l 443 -229 z "},"ẞ":{"ha":1029,"x_min":0,"x_max":0,"o":"m 103 0 l 314 0 l 314 651 b 463 808 314 756 364 808 l 664 808 l 426 588 l 426 442 l 563 442 b 743 310 675 442 743 394 b 575 178 743 226 679 178 l 407 178 l 407 0 l 575 0 b 960 307 819 0 960 113 b 667 585 960 461 858 558 l 911 804 l 911 986 l 463 986 b 103 651 228 986 103 868 z "},"T":{"ha":832,"x_min":0,"x_max":0,"o":"m 310 0 l 522 0 l 522 808 l 818 808 l 818 986 l 15 986 l 15 808 l 310 808 z "},"Ŧ":{"ha":832,"x_min":0,"x_max":0,"o":"m 310 0 l 522 0 l 522 374 l 696 374 l 696 533 l 522 533 l 522 808 l 818 808 l 818 986 l 15 986 l 15 808 l 310 808 l 310 533 l 138 533 l 138 374 l 310 374 z "},"Ť":{"ha":832,"x_min":0,"x_max":0,"o":"m 182 1275 l 315 1063 l 517 1063 l 650 1275 l 504 1275 l 415 1151 l 328 1275 z m 310 0 l 522 0 l 522 808 l 818 808 l 818 986 l 15 986 l 15 808 l 310 808 z "},"Ţ":{"ha":832,"x_min":0,"x_max":0,"o":"m 310 0 l 360 0 l 324 -62 l 379 -117 b 469 -171 453 -117 469 -139 b 403 -221 469 -203 444 -221 b 321 -168 360 -221 336 -204 l 229 -207 b 408 -322 254 -275 315 -322 b 583 -175 504 -322 583 -275 b 450 -43 583 -106 543 -51 l 479 0 l 522 0 l 522 808 l 818 808 l 818 986 l 15 986 l 15 808 l 310 808 z "},"Ț":{"ha":832,"x_min":0,"x_max":0,"o":"m 310 0 l 522 0 l 522 808 l 818 808 l 818 986 l 15 986 l 15 808 l 310 808 z m 301 -351 l 424 -351 l 506 -214 l 506 -68 l 325 -68 l 325 -229 l 374 -229 z "},"U":{"ha":976,"x_min":0,"x_max":0,"o":"m 489 -22 b 894 356 738 -22 894 125 l 894 988 l 683 988 l 683 356 b 489 156 683 228 614 156 b 293 356 363 156 293 228 l 293 988 l 82 988 l 82 356 b 489 -22 82 125 239 -22 z "},"Ú":{"ha":976,"x_min":0,"x_max":0,"o":"m 393 1063 l 553 1063 l 678 1268 l 475 1268 z m 489 -22 b 894 356 738 -22 894 125 l 894 988 l 683 988 l 683 356 b 489 156 683 228 614 156 b 293 356 363 156 293 228 l 293 988 l 82 988 l 82 356 b 489 -22 82 125 239 -22 z "},"Ŭ":{"ha":976,"x_min":0,"x_max":0,"o":"m 489 1064 b 706 1268 617 1064 700 1138 l 585 1268 b 489 1178 578 1204 544 1178 b 392 1268 433 1178 397 1204 l 271 1268 b 489 1064 276 1138 360 1064 z m 489 -22 b 894 356 738 -22 894 125 l 894 988 l 683 988 l 683 356 b 489 156 683 228 614 156 b 293 356 363 156 293 228 l 293 988 l 82 988 l 82 356 b 489 -22 82 125 239 -22 z "},"Û":{"ha":976,"x_min":0,"x_max":0,"o":"m 254 1063 l 400 1063 l 489 1186 l 576 1063 l 722 1063 l 589 1275 l 388 1275 z m 489 -22 b 894 356 738 -22 894 125 l 894 988 l 683 988 l 683 356 b 489 156 683 228 614 156 b 293 356 363 156 293 228 l 293 988 l 82 988 l 82 356 b 489 -22 82 125 239 -22 z "},"Ü":{"ha":976,"x_min":0,"x_max":0,"o":"m 240 1074 l 439 1074 l 439 1242 l 240 1242 z m 538 1074 l 738 1074 l 738 1242 l 538 1242 z m 489 -22 b 894 356 738 -22 894 125 l 894 988 l 683 988 l 683 356 b 489 156 683 228 614 156 b 293 356 363 156 293 228 l 293 988 l 82 988 l 82 356 b 489 -22 82 125 239 -22 z "},"Ù":{"ha":976,"x_min":0,"x_max":0,"o":"m 422 1063 l 581 1063 l 499 1267 l 297 1267 z m 489 -22 b 894 356 738 -22 894 125 l 894 988 l 683 988 l 683 356 b 489 156 683 228 614 156 b 293 356 363 156 293 228 l 293 988 l 82 988 l 82 356 b 489 -22 82 125 239 -22 z "},"Ű":{"ha":976,"x_min":0,"x_max":0,"o":"m 286 1063 l 444 1063 l 569 1268 l 367 1268 z m 532 1063 l 690 1063 l 815 1268 l 614 1268 z m 489 -22 b 894 356 738 -22 894 125 l 894 988 l 683 988 l 683 356 b 489 156 683 228 614 156 b 293 356 363 156 293 228 l 293 988 l 82 988 l 82 356 b 489 -22 82 125 239 -22 z "},"Ū":{"ha":976,"x_min":0,"x_max":0,"o":"m 281 1085 l 696 1085 l 696 1238 l 281 1238 z m 489 -22 b 894 356 738 -22 894 125 l 894 988 l 683 988 l 683 356 b 489 156 683 228 614 156 b 293 356 363 156 293 228 l 293 988 l 82 988 l 82 356 b 489 -22 82 125 239 -22 z "},"Ų":{"ha":976,"x_min":0,"x_max":0,"o":"m 551 -300 b 699 -264 611 -300 674 -283 l 661 -158 b 599 -175 647 -168 622 -175 b 563 -142 579 -175 563 -164 b 606 -53 563 -118 579 -90 l 647 1 b 894 356 803 51 894 179 l 894 988 l 683 988 l 683 356 b 489 156 683 228 614 156 b 293 356 363 156 293 228 l 293 988 l 82 988 l 82 356 b 465 -22 82 132 229 -14 l 463 -25 b 394 -181 429 -71 394 -125 b 551 -300 394 -258 453 -300 z "},"Ů":{"ha":976,"x_min":0,"x_max":0,"o":"m 489 1040 b 631 1181 569 1040 631 1100 b 489 1322 631 1261 569 1322 b 346 1181 408 1322 346 1261 b 489 1040 346 1100 408 1040 z m 489 1129 b 436 1181 458 1129 436 1151 b 489 1233 436 1211 458 1233 b 540 1181 518 1233 540 1211 b 489 1129 540 1151 518 1129 z m 489 -22 b 894 356 738 -22 894 125 l 894 988 l 683 988 l 683 356 b 489 156 683 228 614 156 b 293 356 363 156 293 228 l 293 988 l 82 988 l 82 356 b 489 -22 82 125 239 -22 z "},"Ũ":{"ha":976,"x_min":0,"x_max":0,"o":"m 567 1075 b 725 1275 667 1075 724 1153 l 622 1275 b 569 1199 618 1215 599 1199 b 517 1224 553 1199 539 1207 b 403 1265 481 1253 447 1265 b 250 1068 307 1265 251 1189 l 354 1068 b 407 1142 358 1125 381 1142 b 461 1117 426 1142 439 1133 b 567 1075 496 1086 524 1075 z m 489 -22 b 894 356 738 -22 894 125 l 894 988 l 683 988 l 683 356 b 489 156 683 228 614 156 b 293 356 363 156 293 228 l 293 988 l 82 988 l 82 356 b 489 -22 82 125 239 -22 z "},"V":{"ha":1014,"x_min":0,"x_max":0,"o":"m 382 0 l 631 0 l 988 986 l 769 986 l 507 238 l 244 986 l 26 986 z "},"W":{"ha":1410,"x_min":0,"x_max":0,"o":"m 318 0 l 543 0 l 704 631 l 865 0 l 1093 0 l 1358 986 l 1138 986 l 969 292 l 797 986 l 613 986 l 442 292 l 272 986 l 51 986 z "},"Ẃ":{"ha":1410,"x_min":0,"x_max":0,"o":"m 610 1063 l 769 1063 l 894 1268 l 692 1268 z m 318 0 l 543 0 l 704 631 l 865 0 l 1093 0 l 1358 986 l 1138 986 l 969 292 l 797 986 l 613 986 l 442 292 l 272 986 l 51 986 z "},"Ŵ":{"ha":1410,"x_min":0,"x_max":0,"o":"m 471 1063 l 617 1063 l 704 1186 l 793 1063 l 939 1063 l 806 1275 l 604 1275 z m 318 0 l 543 0 l 704 631 l 865 0 l 1093 0 l 1358 986 l 1138 986 l 969 292 l 797 986 l 613 986 l 442 292 l 272 986 l 51 986 z "},"Ẅ":{"ha":1410,"x_min":0,"x_max":0,"o":"m 456 1074 l 656 1074 l 656 1242 l 456 1242 z m 754 1074 l 953 1074 l 953 1242 l 754 1242 z m 318 0 l 543 0 l 704 631 l 865 0 l 1093 0 l 1358 986 l 1138 986 l 969 292 l 797 986 l 613 986 l 442 292 l 272 986 l 51 986 z "},"Ẁ":{"ha":1410,"x_min":0,"x_max":0,"o":"m 639 1063 l 797 1063 l 715 1267 l 514 1267 z m 318 0 l 543 0 l 704 631 l 865 0 l 1093 0 l 1358 986 l 1138 986 l 969 292 l 797 986 l 613 986 l 442 292 l 272 986 l 51 986 z "},"X":{"ha":956,"x_min":0,"x_max":0,"o":"m 17 0 l 263 0 l 476 338 l 693 0 l 939 0 l 603 497 l 935 986 l 689 986 l 479 654 l 264 986 l 19 986 l 351 494 z "},"Y":{"ha":876,"x_min":0,"x_max":0,"o":"m 333 0 l 544 0 l 544 383 l 886 986 l 653 986 l 439 589 l 224 986 l -10 986 l 333 383 z "},"Ý":{"ha":876,"x_min":0,"x_max":0,"o":"m 344 1063 l 503 1063 l 628 1268 l 426 1268 z m 333 0 l 544 0 l 544 383 l 886 986 l 653 986 l 439 589 l 224 986 l -10 986 l 333 383 z "},"Ŷ":{"ha":876,"x_min":0,"x_max":0,"o":"m 206 1063 l 351 1063 l 439 1186 l 528 1063 l 672 1063 l 539 1275 l 339 1275 z m 333 0 l 544 0 l 544 383 l 886 986 l 653 986 l 439 589 l 224 986 l -10 986 l 333 383 z "},"Ÿ":{"ha":876,"x_min":0,"x_max":0,"o":"m 190 1074 l 389 1074 l 389 1242 l 190 1242 z m 489 1074 l 688 1074 l 688 1242 l 489 1242 z m 333 0 l 544 0 l 544 383 l 886 986 l 653 986 l 439 589 l 224 986 l -10 986 l 333 383 z "},"Ỳ":{"ha":876,"x_min":0,"x_max":0,"o":"m 372 1063 l 532 1063 l 450 1267 l 247 1267 z m 333 0 l 544 0 l 544 383 l 886 986 l 653 986 l 439 589 l 224 986 l -10 986 l 333 383 z "},"Ỹ":{"ha":876,"x_min":0,"x_max":0,"o":"m 517 1075 b 676 1275 618 1075 674 1153 l 572 1275 b 521 1199 568 1215 549 1199 b 467 1224 504 1199 490 1207 b 354 1265 431 1253 399 1265 b 200 1068 258 1265 201 1189 l 304 1068 b 357 1142 308 1125 331 1142 b 411 1117 376 1142 390 1133 b 517 1075 447 1086 474 1075 z m 333 0 l 544 0 l 544 383 l 886 986 l 653 986 l 439 589 l 224 986 l -10 986 l 333 383 z "},"Z":{"ha":825,"x_min":0,"x_max":0,"o":"m 38 0 l 788 0 l 788 178 l 290 178 l 769 814 l 769 986 l 60 986 l 60 808 l 507 808 l 38 172 z "},"Ź":{"ha":825,"x_min":0,"x_max":0,"o":"m 331 1063 l 489 1063 l 614 1268 l 411 1268 z m 38 0 l 788 0 l 788 178 l 290 178 l 769 814 l 769 986 l 60 986 l 60 808 l 507 808 l 38 172 z "},"Ž":{"ha":825,"x_min":0,"x_max":0,"o":"m 192 1275 l 325 1063 l 525 1063 l 658 1275 l 513 1275 l 425 1151 l 336 1275 z m 38 0 l 788 0 l 788 178 l 290 178 l 769 814 l 769 986 l 60 986 l 60 808 l 507 808 l 38 172 z "},"Ż":{"ha":825,"x_min":0,"x_max":0,"o":"m 317 1078 l 532 1078 l 532 1244 l 317 1244 z m 38 0 l 788 0 l 788 178 l 290 178 l 769 814 l 769 986 l 60 986 l 60 808 l 507 808 l 38 172 z "},"Ꞌ":{"ha":314,"x_min":0,"x_max":0,"o":"m 76 458 l 238 458 l 256 792 l 256 986 l 58 986 l 58 792 z "},"a":{"ha":825,"x_min":0,"x_max":0,"o":"m 313 -17 b 569 114 440 -17 532 35 b 733 -8 588 19 656 -8 b 807 0 761 -8 794 -4 l 807 143 l 786 143 b 744 196 758 143 744 154 l 744 450 b 410 761 744 653 632 761 b 64 513 215 761 92 676 l 274 503 b 410 610 288 572 331 610 b 536 464 492 610 536 561 l 296 417 b 51 186 133 383 51 317 b 313 -17 51 58 157 -17 z m 363 126 b 265 206 299 126 265 156 b 367 297 265 254 299 283 l 536 333 l 536 297 b 363 126 536 190 467 126 z "},"á":{"ha":825,"x_min":0,"x_max":0,"o":"m 317 821 l 476 821 l 601 1026 l 399 1026 z m 313 -17 b 569 114 440 -17 532 35 b 733 -8 588 19 656 -8 b 807 0 761 -8 794 -4 l 807 143 l 786 143 b 744 196 758 143 744 154 l 744 450 b 410 761 744 653 632 761 b 64 513 215 761 92 676 l 274 503 b 410 610 288 572 331 610 b 536 464 492 610 536 561 l 296 417 b 51 186 133 383 51 317 b 313 -17 51 58 157 -17 z m 363 126 b 265 206 299 126 265 156 b 367 297 265 254 299 283 l 536 333 l 536 297 b 363 126 536 190 467 126 z "},"ă":{"ha":825,"x_min":0,"x_max":0,"o":"m 413 822 b 629 1026 540 822 624 896 l 508 1026 b 413 936 501 963 468 936 b 315 1026 357 936 321 963 l 194 1026 b 413 822 200 896 283 822 z m 313 -17 b 569 114 440 -17 532 35 b 733 -8 588 19 656 -8 b 807 0 761 -8 794 -4 l 807 143 l 786 143 b 744 196 758 143 744 154 l 744 450 b 410 761 744 653 632 761 b 64 513 215 761 92 676 l 274 503 b 410 610 288 572 331 610 b 536 464 492 610 536 561 l 296 417 b 51 186 133 383 51 317 b 313 -17 51 58 157 -17 z m 363 126 b 265 206 299 126 265 156 b 367 297 265 254 299 283 l 536 333 l 536 297 b 363 126 536 190 467 126 z "},"ǎ":{"ha":825,"x_min":0,"x_max":0,"o":"m 178 1033 l 311 821 l 513 821 l 646 1033 l 500 1033 l 413 910 l 324 1033 z m 313 -17 b 569 114 440 -17 532 35 b 733 -8 588 19 656 -8 b 807 0 761 -8 794 -4 l 807 143 l 786 143 b 744 196 758 143 744 154 l 744 450 b 410 761 744 653 632 761 b 64 513 215 761 92 676 l 274 503 b 410 610 288 572 331 610 b 536 464 492 610 536 561 l 296 417 b 51 186 133 383 51 317 b 313 -17 51 58 157 -17 z m 363 126 b 265 206 299 126 265 156 b 367 297 265 254 299 283 l 536 333 l 536 297 b 363 126 536 190 467 126 z "},"â":{"ha":825,"x_min":0,"x_max":0,"o":"m 178 821 l 324 821 l 413 944 l 500 821 l 646 821 l 513 1033 l 311 1033 z m 313 -17 b 569 114 440 -17 532 35 b 733 -8 588 19 656 -8 b 807 0 761 -8 794 -4 l 807 143 l 786 143 b 744 196 758 143 744 154 l 744 450 b 410 761 744 653 632 761 b 64 513 215 761 92 676 l 274 503 b 410 610 288 572 331 610 b 536 464 492 610 536 561 l 296 417 b 51 186 133 383 51 317 b 313 -17 51 58 157 -17 z m 363 126 b 265 206 299 126 265 156 b 367 297 265 254 299 283 l 536 333 l 536 297 b 363 126 536 190 467 126 z "},"ä":{"ha":825,"x_min":0,"x_max":0,"o":"m 164 832 l 363 832 l 363 1000 l 164 1000 z m 461 832 l 661 832 l 661 1000 l 461 1000 z m 313 -17 b 569 114 440 -17 532 35 b 733 -8 588 19 656 -8 b 807 0 761 -8 794 -4 l 807 143 l 786 143 b 744 196 758 143 744 154 l 744 450 b 410 761 744 653 632 761 b 64 513 215 761 92 676 l 274 503 b 410 610 288 572 331 610 b 536 464 492 610 536 561 l 296 417 b 51 186 133 383 51 317 b 313 -17 51 58 157 -17 z m 363 126 b 265 206 299 126 265 156 b 367 297 265 254 299 283 l 536 333 l 536 297 b 363 126 536 190 467 126 z "},"à":{"ha":825,"x_min":0,"x_max":0,"o":"m 346 821 l 504 821 l 422 1025 l 221 1025 z m 313 -17 b 569 114 440 -17 532 35 b 733 -8 588 19 656 -8 b 807 0 761 -8 794 -4 l 807 143 l 786 143 b 744 196 758 143 744 154 l 744 450 b 410 761 744 653 632 761 b 64 513 215 761 92 676 l 274 503 b 410 610 288 572 331 610 b 536 464 492 610 536 561 l 296 417 b 51 186 133 383 51 317 b 313 -17 51 58 157 -17 z m 363 126 b 265 206 299 126 265 156 b 367 297 265 254 299 283 l 536 333 l 536 297 b 363 126 536 190 467 126 z "},"ā":{"ha":825,"x_min":0,"x_max":0,"o":"m 204 843 l 619 843 l 619 996 l 204 996 z m 313 -17 b 569 114 440 -17 532 35 b 733 -8 588 19 656 -8 b 807 0 761 -8 794 -4 l 807 143 l 786 143 b 744 196 758 143 744 154 l 744 450 b 410 761 744 653 632 761 b 64 513 215 761 92 676 l 274 503 b 410 610 288 572 331 610 b 536 464 492 610 536 561 l 296 417 b 51 186 133 383 51 317 b 313 -17 51 58 157 -17 z m 363 126 b 265 206 299 126 265 156 b 367 297 265 254 299 283 l 536 333 l 536 297 b 363 126 536 190 467 126 z "},"ą":{"ha":825,"x_min":0,"x_max":0,"o":"m 313 -17 b 569 114 440 -17 532 35 b 649 7 581 57 610 24 l 622 -28 b 553 -183 588 -72 553 -126 b 711 -301 553 -260 611 -301 b 858 -265 769 -301 833 -286 l 819 -160 b 757 -178 806 -169 782 -178 b 721 -143 738 -178 721 -165 b 765 -56 721 -119 738 -92 l 807 0 l 807 143 l 786 143 b 744 196 758 143 744 154 l 744 450 b 410 761 744 653 632 761 b 64 513 215 761 92 676 l 274 503 b 410 610 288 572 331 610 b 536 464 492 610 536 561 l 296 417 b 51 186 133 383 51 317 b 313 -17 51 58 157 -17 z m 363 126 b 265 206 299 126 265 156 b 367 297 265 254 299 283 l 536 333 l 536 297 b 363 126 536 190 467 126 z "},"å":{"ha":825,"x_min":0,"x_max":0,"o":"m 413 799 b 554 939 493 799 554 858 b 413 1081 554 1019 493 1081 b 269 939 332 1081 269 1019 b 413 799 269 858 332 799 z m 413 888 b 360 939 382 888 360 910 b 413 992 360 969 382 992 b 464 939 442 992 464 969 b 413 888 464 910 442 888 z m 313 -17 b 569 114 440 -17 532 35 b 733 -8 588 19 656 -8 b 807 0 761 -8 794 -4 l 807 143 l 786 143 b 744 196 758 143 744 154 l 744 450 b 410 761 744 653 632 761 b 64 513 215 761 92 676 l 274 503 b 410 610 288 572 331 610 b 536 464 492 610 536 561 l 296 417 b 51 186 133 383 51 317 b 313 -17 51 58 157 -17 z m 363 126 b 265 206 299 126 265 156 b 367 297 265 254 299 283 l 536 333 l 536 297 b 363 126 536 190 467 126 z "},"ã":{"ha":825,"x_min":0,"x_max":0,"o":"m 490 833 b 649 1033 590 833 647 911 l 546 1033 b 493 957 542 974 522 957 b 440 982 476 957 463 965 b 326 1024 404 1011 371 1024 b 174 826 231 1024 175 947 l 278 826 b 331 900 282 883 304 900 b 385 875 350 900 363 892 b 490 833 419 844 447 833 z m 313 -17 b 569 114 440 -17 532 35 b 733 -8 588 19 656 -8 b 807 0 761 -8 794 -4 l 807 143 l 786 143 b 744 196 758 143 744 154 l 744 450 b 410 761 744 653 632 761 b 64 513 215 761 92 676 l 274 503 b 410 610 288 572 331 610 b 536 464 492 610 536 561 l 296 417 b 51 186 133 383 51 317 b 313 -17 51 58 157 -17 z m 363 126 b 265 206 299 126 265 156 b 367 297 265 254 299 283 l 536 333 l 536 297 b 363 126 536 190 467 126 z "},"æ":{"ha":1332,"x_min":0,"x_max":0,"o":"m 314 -17 b 611 129 451 -17 556 33 b 918 -17 676 36 783 -17 b 1269 219 1096 -17 1229 71 l 1060 232 b 921 142 1040 171 990 142 b 757 317 825 142 763 199 l 1281 317 l 1281 358 b 915 761 1281 608 1138 761 b 665 675 814 761 729 731 b 406 761 608 733 519 761 b 64 513 214 761 93 674 l 274 503 b 407 610 285 568 329 610 b 536 458 490 610 535 563 l 296 417 b 51 186 150 389 51 331 b 314 -17 51 54 160 -17 z m 757 444 b 915 607 768 547 828 607 b 1068 444 1001 607 1061 553 z m 378 125 b 265 206 299 121 265 151 b 367 297 265 253 296 286 l 536 328 l 536 294 b 378 125 536 183 472 128 z "},"b":{"ha":881,"x_min":0,"x_max":0,"o":"m 519 -17 b 829 372 708 -17 829 136 b 519 761 829 608 708 761 b 300 639 418 761 339 708 l 300 986 l 92 986 l 92 0 l 290 0 l 294 110 b 519 -17 336 29 415 -17 z m 461 143 b 300 372 360 143 300 229 b 463 601 300 517 360 601 b 615 372 556 601 615 517 b 461 143 615 228 554 143 z "},"c":{"ha":831,"x_min":0,"x_max":0,"o":"m 429 -17 b 793 283 632 -17 772 100 l 578 292 b 429 143 567 190 510 143 b 265 372 325 143 265 228 b 429 600 265 517 325 600 b 578 460 508 600 565 551 l 793 469 b 429 761 771 653 628 761 b 51 372 200 761 51 607 b 429 -17 51 138 200 -17 z "},"ć":{"ha":831,"x_min":0,"x_max":0,"o":"m 335 821 l 493 821 l 618 1026 l 417 1026 z m 429 -17 b 793 283 632 -17 772 100 l 578 292 b 429 143 567 190 510 143 b 265 372 325 143 265 228 b 429 600 265 517 325 600 b 578 460 508 600 565 551 l 793 469 b 429 761 771 653 628 761 b 51 372 200 761 51 607 b 429 -17 51 138 200 -17 z "},"č":{"ha":831,"x_min":0,"x_max":0,"o":"m 196 1033 l 329 821 l 529 821 l 663 1033 l 518 1033 l 429 910 l 342 1033 z m 429 -17 b 793 283 632 -17 772 100 l 578 292 b 429 143 567 190 510 143 b 265 372 325 143 265 228 b 429 600 265 517 325 600 b 578 460 508 600 565 551 l 793 469 b 429 761 771 653 628 761 b 51 372 200 761 51 607 b 429 -17 51 138 200 -17 z "},"ç":{"ha":831,"x_min":0,"x_max":0,"o":"m 421 -322 b 597 -175 518 -322 597 -275 b 464 -43 597 -106 557 -51 l 483 -14 b 793 283 656 6 775 117 l 578 292 b 429 143 567 190 510 143 b 265 372 325 143 265 228 b 429 600 265 517 325 600 b 578 460 508 600 565 551 l 793 469 b 429 761 771 653 628 761 b 51 372 200 761 51 607 b 367 -12 51 160 174 14 l 336 -62 l 393 -117 b 483 -171 467 -117 483 -139 b 417 -221 483 -203 457 -221 b 335 -168 374 -221 350 -204 l 243 -207 b 421 -322 268 -275 328 -322 z "},"ĉ":{"ha":831,"x_min":0,"x_max":0,"o":"m 196 821 l 342 821 l 429 944 l 518 821 l 663 821 l 529 1033 l 329 1033 z m 429 -17 b 793 283 632 -17 772 100 l 578 292 b 429 143 567 190 510 143 b 265 372 325 143 265 228 b 429 600 265 517 325 600 b 578 460 508 600 565 551 l 793 469 b 429 761 771 653 628 761 b 51 372 200 761 51 607 b 429 -17 51 138 200 -17 z "},"ċ":{"ha":831,"x_min":0,"x_max":0,"o":"m 322 836 l 538 836 l 538 1003 l 322 1003 z m 429 -17 b 793 283 632 -17 772 100 l 578 292 b 429 143 567 190 510 143 b 265 372 325 143 265 228 b 429 600 265 517 325 600 b 578 460 508 600 565 551 l 793 469 b 429 761 771 653 628 761 b 51 372 200 761 51 607 b 429 -17 51 138 200 -17 z "},"d":{"ha":881,"x_min":0,"x_max":0,"o":"m 357 -17 b 586 110 460 -17 544 29 l 590 0 l 789 0 l 789 986 l 581 986 l 581 639 b 357 761 542 715 463 761 b 51 372 171 761 51 610 b 357 -17 51 133 168 -17 z m 425 143 b 265 372 329 143 265 233 b 425 601 265 514 328 601 b 581 372 525 601 581 524 b 425 143 581 222 525 143 z "},"ď":{"ha":1029,"x_min":0,"x_max":0,"o":"m 357 -17 b 586 110 460 -17 544 29 l 590 0 l 789 0 l 789 986 l 581 986 l 581 639 b 357 761 542 715 463 761 b 51 372 171 761 51 610 b 357 -17 51 133 168 -17 z m 853 589 l 997 589 l 1074 986 l 893 986 z m 425 143 b 265 372 329 143 265 233 b 425 601 265 514 328 601 b 581 372 525 601 581 524 b 425 143 581 222 525 143 z "},"đ":{"ha":881,"x_min":0,"x_max":0,"o":"m 357 -17 b 586 110 460 -17 544 29 l 590 0 l 789 0 l 789 800 l 882 800 l 882 921 l 789 921 l 789 986 l 581 986 l 581 921 l 399 921 l 399 800 l 581 800 l 581 639 b 357 761 542 715 463 761 b 51 372 171 761 51 610 b 357 -17 51 133 168 -17 z m 425 143 b 265 372 329 143 265 233 b 425 601 265 514 328 601 b 581 372 525 601 581 524 b 425 143 581 222 525 143 z "},"ð":{"ha":858,"x_min":0,"x_max":0,"o":"m 429 -17 b 807 365 674 -17 807 113 b 656 838 807 550 761 719 l 790 894 l 751 989 l 568 913 b 299 1003 497 961 408 993 l 243 861 b 385 835 297 858 344 849 l 282 792 l 321 696 l 499 771 b 590 632 540 735 571 688 b 429 669 542 654 486 669 b 51 326 185 669 51 539 b 429 -17 51 113 185 -17 z m 429 140 b 265 326 325 140 265 211 b 429 513 265 440 325 513 b 593 332 533 513 593 440 b 429 140 593 210 533 140 z "},"e":{"ha":840,"x_min":0,"x_max":0,"o":"m 426 -17 b 779 219 606 -17 739 71 l 569 232 b 431 142 550 171 500 142 b 267 317 335 142 272 199 l 790 317 l 790 358 b 425 761 790 608 646 761 b 51 372 199 761 51 607 b 426 -17 51 138 199 -17 z m 267 444 b 425 607 278 547 338 607 b 576 444 511 607 571 553 z "},"é":{"ha":840,"x_min":0,"x_max":0,"o":"m 335 818 l 493 818 l 618 1024 l 417 1024 z m 426 -17 b 779 219 606 -17 739 71 l 569 232 b 431 142 550 171 500 142 b 267 317 335 142 272 199 l 790 317 l 790 358 b 425 761 790 608 646 761 b 51 372 199 761 51 607 b 426 -17 51 138 199 -17 z m 267 444 b 425 607 278 547 338 607 b 576 444 511 607 571 553 z "},"ě":{"ha":840,"x_min":0,"x_max":0,"o":"m 196 1031 l 329 818 l 529 818 l 663 1031 l 518 1031 l 429 907 l 342 1031 z m 426 -17 b 779 219 606 -17 739 71 l 569 232 b 431 142 550 171 500 142 b 267 317 335 142 272 199 l 790 317 l 790 358 b 425 761 790 608 646 761 b 51 372 199 761 51 607 b 426 -17 51 138 199 -17 z m 267 444 b 425 607 278 547 338 607 b 576 444 511 607 571 553 z "},"ê":{"ha":840,"x_min":0,"x_max":0,"o":"m 196 818 l 342 818 l 429 942 l 518 818 l 663 818 l 529 1031 l 329 1031 z m 426 -17 b 779 219 606 -17 739 71 l 569 232 b 431 142 550 171 500 142 b 267 317 335 142 272 199 l 790 317 l 790 358 b 425 761 790 608 646 761 b 51 372 199 761 51 607 b 426 -17 51 138 199 -17 z m 267 444 b 425 607 278 547 338 607 b 576 444 511 607 571 553 z "},"ë":{"ha":840,"x_min":0,"x_max":0,"o":"m 181 829 l 379 829 l 379 997 l 181 997 z m 479 829 l 678 829 l 678 997 l 479 997 z m 426 -17 b 779 219 606 -17 739 71 l 569 232 b 431 142 550 171 500 142 b 267 317 335 142 272 199 l 790 317 l 790 358 b 425 761 790 608 646 761 b 51 372 199 761 51 607 b 426 -17 51 138 199 -17 z m 267 444 b 425 607 278 547 338 607 b 576 444 511 607 571 553 z "},"ė":{"ha":840,"x_min":0,"x_max":0,"o":"m 322 833 l 538 833 l 538 1000 l 322 1000 z m 426 -17 b 779 219 606 -17 739 71 l 569 232 b 431 142 550 171 500 142 b 267 317 335 142 272 199 l 790 317 l 790 358 b 425 761 790 608 646 761 b 51 372 199 761 51 607 b 426 -17 51 138 199 -17 z m 267 444 b 425 607 278 547 338 607 b 576 444 511 607 571 553 z "},"è":{"ha":840,"x_min":0,"x_max":0,"o":"m 363 818 l 522 818 l 440 1022 l 238 1022 z m 426 -17 b 779 219 606 -17 739 71 l 569 232 b 431 142 550 171 500 142 b 267 317 335 142 272 199 l 790 317 l 790 358 b 425 761 790 608 646 761 b 51 372 199 761 51 607 b 426 -17 51 138 199 -17 z m 267 444 b 425 607 278 547 338 607 b 576 444 511 607 571 553 z "},"ē":{"ha":840,"x_min":0,"x_max":0,"o":"m 222 840 l 638 840 l 638 993 l 222 993 z m 426 -17 b 779 219 606 -17 739 71 l 569 232 b 431 142 550 171 500 142 b 267 317 335 142 272 199 l 790 317 l 790 358 b 425 761 790 608 646 761 b 51 372 199 761 51 607 b 426 -17 51 138 199 -17 z m 267 444 b 425 607 278 547 338 607 b 576 444 511 607 571 553 z "},"ę":{"ha":840,"x_min":0,"x_max":0,"o":"m 426 -17 b 458 -15 438 -17 449 -17 l 447 -29 b 386 -175 410 -71 386 -117 b 542 -301 386 -256 443 -301 b 686 -265 601 -301 661 -286 l 649 -160 b 589 -178 635 -169 611 -178 b 553 -139 569 -178 553 -165 b 596 -47 553 -114 567 -83 l 718 99 l 717 100 b 779 219 746 133 767 174 l 569 232 b 431 142 550 171 500 142 b 267 317 335 142 272 199 l 790 317 l 790 358 b 425 761 790 608 646 761 b 51 372 199 761 51 607 b 426 -17 51 138 199 -17 z m 267 444 b 425 607 278 547 338 607 b 576 444 511 607 571 553 z "},"ẽ":{"ha":840,"x_min":0,"x_max":0,"o":"m 507 831 b 667 1031 608 831 664 908 l 563 1031 b 511 954 558 971 539 954 b 457 979 494 954 481 963 b 344 1021 421 1008 389 1021 b 190 824 249 1021 192 944 l 294 824 b 347 897 299 881 321 897 b 401 872 367 897 381 889 b 507 831 438 842 464 831 z m 426 -17 b 779 219 606 -17 739 71 l 569 232 b 431 142 550 171 500 142 b 267 317 335 142 272 199 l 790 317 l 790 358 b 425 761 790 608 646 761 b 51 372 199 761 51 607 b 426 -17 51 138 199 -17 z m 267 444 b 425 607 278 547 338 607 b 576 444 511 607 571 553 z "},"ə":{"ha":840,"x_min":0,"x_max":0,"o":"m 414 761 b 61 525 235 761 101 674 l 271 513 b 411 603 292 574 340 603 b 574 428 507 603 569 546 l 51 428 l 51 386 b 417 -17 51 136 194 -17 b 790 372 642 -17 790 138 b 414 761 790 607 642 761 z m 574 300 b 417 138 563 197 503 138 b 264 300 329 138 269 192 z "},"f":{"ha":621,"x_min":0,"x_max":0,"o":"m 172 0 l 381 0 l 381 561 l 565 561 l 565 717 l 381 717 l 381 744 b 463 831 381 801 404 831 l 576 831 l 576 986 l 418 986 b 172 754 250 986 172 901 l 172 717 l 64 717 l 64 561 l 172 561 z "},"g":{"ha":881,"x_min":0,"x_max":0,"o":"m 425 -225 b 789 74 640 -225 789 -126 l 789 744 l 585 744 l 585 629 b 361 761 546 708 469 761 b 51 397 179 761 51 611 b 364 35 51 176 181 35 b 579 149 460 35 543 79 l 579 69 b 425 -79 579 -35 524 -79 b 288 -1 338 -79 303 -50 l 74 -17 b 425 -225 107 -139 213 -225 z m 424 189 b 265 399 326 189 265 271 b 424 608 265 525 324 608 b 581 399 521 608 582 529 b 424 189 581 267 519 189 z "},"ğ":{"ha":881,"x_min":0,"x_max":0,"o":"m 429 822 b 647 1026 558 822 642 896 l 526 1026 b 429 936 519 963 485 936 b 332 1026 374 936 339 963 l 213 1026 b 429 822 218 896 301 822 z m 425 -225 b 789 74 640 -225 789 -126 l 789 744 l 585 744 l 585 629 b 361 761 546 708 469 761 b 51 397 179 761 51 611 b 364 35 51 176 181 35 b 579 149 460 35 543 79 l 579 69 b 425 -79 579 -35 524 -79 b 288 -1 338 -79 303 -50 l 74 -17 b 425 -225 107 -139 213 -225 z m 424 189 b 265 399 326 189 265 271 b 424 608 265 525 324 608 b 581 399 521 608 582 529 b 424 189 581 267 519 189 z "},"ǧ":{"ha":881,"x_min":0,"x_max":0,"o":"m 196 1033 l 329 821 l 531 821 l 664 1033 l 518 1033 l 429 910 l 342 1033 z m 425 -225 b 789 74 640 -225 789 -126 l 789 744 l 585 744 l 585 629 b 361 761 546 708 469 761 b 51 397 179 761 51 611 b 364 35 51 176 181 35 b 579 149 460 35 543 79 l 579 69 b 425 -79 579 -35 524 -79 b 288 -1 338 -79 303 -50 l 74 -17 b 425 -225 107 -139 213 -225 z m 424 189 b 265 399 326 189 265 271 b 424 608 265 525 324 608 b 581 399 521 608 582 529 b 424 189 581 267 519 189 z "},"ĝ":{"ha":881,"x_min":0,"x_max":0,"o":"m 196 821 l 342 821 l 429 944 l 518 821 l 664 821 l 531 1033 l 329 1033 z m 425 -225 b 789 74 640 -225 789 -126 l 789 744 l 585 744 l 585 629 b 361 761 546 708 469 761 b 51 397 179 761 51 611 b 364 35 51 176 181 35 b 579 149 460 35 543 79 l 579 69 b 425 -79 579 -35 524 -79 b 288 -1 338 -79 303 -50 l 74 -17 b 425 -225 107 -139 213 -225 z m 424 189 b 265 399 326 189 265 271 b 424 608 265 525 324 608 b 581 399 521 608 582 529 b 424 189 581 267 519 189 z "},"ģ":{"ha":881,"x_min":0,"x_max":0,"o":"m 340 822 l 521 822 l 521 983 l 472 983 l 544 1106 l 422 1106 l 340 967 z m 425 -225 b 789 74 640 -225 789 -126 l 789 744 l 585 744 l 585 629 b 361 761 546 708 469 761 b 51 397 179 761 51 611 b 364 35 51 176 181 35 b 579 149 460 35 543 79 l 579 69 b 425 -79 579 -35 524 -79 b 288 -1 338 -79 303 -50 l 74 -17 b 425 -225 107 -139 213 -225 z m 424 189 b 265 399 326 189 265 271 b 424 608 265 525 324 608 b 581 399 521 608 582 529 b 424 189 581 267 519 189 z "},"ġ":{"ha":881,"x_min":0,"x_max":0,"o":"m 322 836 l 538 836 l 538 1003 l 322 1003 z m 425 -225 b 789 74 640 -225 789 -126 l 789 744 l 585 744 l 585 629 b 361 761 546 708 469 761 b 51 397 179 761 51 611 b 364 35 51 176 181 35 b 579 149 460 35 543 79 l 579 69 b 425 -79 579 -35 524 -79 b 288 -1 338 -79 303 -50 l 74 -17 b 425 -225 107 -139 213 -225 z m 424 189 b 265 399 326 189 265 271 b 424 608 265 525 324 608 b 581 399 521 608 582 529 b 424 189 581 267 519 189 z "},"ḡ":{"ha":881,"x_min":0,"x_max":0,"o":"m 222 843 l 638 843 l 638 996 l 222 996 z m 425 -225 b 789 74 640 -225 789 -126 l 789 744 l 585 744 l 585 629 b 361 761 546 708 469 761 b 51 397 179 761 51 611 b 364 35 51 176 181 35 b 579 149 460 35 543 79 l 579 69 b 425 -79 579 -35 524 -79 b 288 -1 338 -79 303 -50 l 74 -17 b 425 -225 107 -139 213 -225 z m 424 189 b 265 399 326 189 265 271 b 424 608 265 525 324 608 b 581 399 521 608 582 529 b 424 189 581 267 519 189 z "},"ǥ":{"ha":914,"x_min":0,"x_max":0,"o":"m 425 -225 b 789 74 640 -225 789 -126 l 789 331 l 879 331 l 879 453 l 789 453 l 789 744 l 585 744 l 585 629 b 361 761 546 708 469 761 b 51 397 179 761 51 611 b 364 35 51 176 181 35 b 579 149 460 35 543 79 l 579 69 b 425 -79 579 -35 524 -79 b 288 -1 338 -79 303 -50 l 74 -17 b 425 -225 107 -139 213 -225 z m 424 189 b 265 399 326 189 265 271 b 424 608 265 525 324 608 b 578 453 506 608 563 550 l 388 453 l 388 331 l 574 331 b 424 189 556 240 501 189 z "},"h":{"ha":849,"x_min":0,"x_max":0,"o":"m 92 0 l 300 0 l 300 424 b 436 596 300 536 350 596 b 549 429 517 596 549 539 l 549 0 l 757 0 l 757 479 b 506 761 757 644 672 761 b 300 653 417 761 340 726 l 300 986 l 92 986 z "},"ħ":{"ha":849,"x_min":0,"x_max":0,"o":"m 92 0 l 300 0 l 300 424 b 436 596 300 536 350 596 b 549 429 517 596 549 539 l 549 0 l 757 0 l 757 479 b 506 761 757 644 672 761 b 300 653 417 761 340 726 l 300 800 l 481 800 l 481 921 l 300 921 l 300 986 l 92 986 l 92 921 l -3 921 l -3 800 l 92 800 z "},"ĥ":{"ha":849,"x_min":0,"x_max":0,"o":"m -36 1035 l 110 1035 l 197 1158 l 286 1035 l 432 1035 l 299 1247 l 97 1247 z m 92 0 l 300 0 l 300 424 b 436 596 300 536 350 596 b 549 429 517 596 549 539 l 549 0 l 757 0 l 757 479 b 506 761 757 644 672 761 b 300 653 417 761 340 726 l 300 986 l 92 986 z "},"i":{"ha":390,"x_min":0,"x_max":0,"o":"m 88 836 l 303 836 l 303 1003 l 88 1003 z m 92 0 l 300 0 l 300 744 l 92 744 z "},"ı":{"ha":390,"x_min":0,"x_max":0,"o":"m 92 0 l 300 0 l 300 744 l 92 744 z "},"í":{"ha":390,"x_min":0,"x_max":0,"o":"m 100 821 l 260 821 l 385 1026 l 182 1026 z m 92 0 l 300 0 l 300 744 l 92 744 z "},"î":{"ha":390,"x_min":0,"x_max":0,"o":"m -39 821 l 107 821 l 196 944 l 283 821 l 429 821 l 296 1033 l 94 1033 z m 92 0 l 300 0 l 300 744 l 92 744 z "},"ï":{"ha":390,"x_min":0,"x_max":0,"o":"m -53 832 l 146 832 l 146 1000 l -53 1000 z m 244 832 l 444 832 l 444 1000 l 244 1000 z m 92 0 l 300 0 l 300 744 l 92 744 z "},"ì":{"ha":390,"x_min":0,"x_max":0,"o":"m 129 821 l 288 821 l 206 1025 l 4 1025 z m 92 0 l 300 0 l 300 744 l 92 744 z "},"ī":{"ha":390,"x_min":0,"x_max":0,"o":"m -12 843 l 403 843 l 403 996 l -12 996 z m 92 0 l 300 0 l 300 744 l 92 744 z "},"į":{"ha":390,"x_min":0,"x_max":0,"o":"m 88 836 l 303 836 l 303 1003 l 88 1003 z m 92 0 l 136 0 l 114 -28 b 46 -183 81 -72 46 -126 b 203 -301 46 -260 104 -301 b 350 -265 263 -301 325 -286 l 313 -160 b 250 -178 299 -169 274 -178 b 214 -143 231 -178 214 -165 b 257 -56 214 -119 231 -92 l 300 0 l 300 744 l 92 744 z "},"ĩ":{"ha":390,"x_min":0,"x_max":0,"o":"m 274 833 b 432 1033 374 833 431 911 l 329 1033 b 276 957 325 974 306 957 b 224 982 260 957 246 965 b 110 1024 188 1011 154 1024 b -43 826 14 1024 -42 947 l 61 826 b 114 900 65 883 88 900 b 168 875 133 900 146 892 b 274 833 203 844 231 833 z m 92 0 l 300 0 l 300 744 l 92 744 z "},"ĳ":{"ha":813,"x_min":0,"x_max":0,"o":"m 88 836 l 303 836 l 303 1003 l 88 1003 z m 508 836 l 725 836 l 725 1003 l 508 1003 z m 92 0 l 300 0 l 300 744 l 92 744 z m 349 -208 l 472 -208 b 721 25 654 -208 721 -142 l 721 744 l 511 744 l 511 31 b 429 -53 511 -35 483 -53 l 349 -53 z "},"j":{"ha":460,"x_min":0,"x_max":0,"o":"m 157 836 l 372 836 l 372 1003 l 157 1003 z m -4 -208 l 121 -208 b 369 25 303 -208 369 -142 l 369 744 l 160 744 l 160 31 b 78 -53 160 -35 132 -53 l -4 -53 z "},"ȷ":{"ha":460,"x_min":0,"x_max":0,"o":"m -4 -208 l 121 -208 b 369 25 303 -208 369 -142 l 369 744 l 160 744 l 160 31 b 78 -53 160 -35 132 -53 l -4 -53 z "},"ĵ":{"ha":460,"x_min":0,"x_max":0,"o":"m 32 821 l 176 821 l 265 944 l 353 821 l 499 821 l 365 1033 l 165 1033 z m -4 -208 l 121 -208 b 369 25 303 -208 369 -142 l 369 744 l 160 744 l 160 31 b 78 -53 160 -35 132 -53 l -4 -53 z "},"k":{"ha":899,"x_min":0,"x_max":0,"o":"m 92 0 l 300 0 l 300 210 l 403 319 l 607 0 l 835 0 l 538 438 l 826 744 l 576 744 l 300 439 l 300 986 l 92 986 z "},"ǩ":{"ha":899,"x_min":0,"x_max":0,"o":"m -39 1244 l 94 1032 l 296 1032 l 429 1244 l 283 1244 l 196 1121 l 107 1244 z m 92 0 l 300 0 l 300 210 l 403 319 l 607 0 l 835 0 l 538 438 l 826 744 l 576 744 l 300 439 l 300 986 l 92 986 z "},"ķ":{"ha":899,"x_min":0,"x_max":0,"o":"m 92 0 l 300 0 l 300 210 l 403 319 l 607 0 l 835 0 l 538 438 l 826 744 l 576 744 l 300 439 l 300 986 l 92 986 z m 325 -351 l 447 -351 l 531 -214 l 531 -68 l 350 -68 l 350 -229 l 397 -229 z "},"l":{"ha":435,"x_min":0,"x_max":0,"o":"m 286 0 l 410 0 l 410 156 l 360 156 b 300 217 321 156 300 172 l 300 986 l 92 986 l 92 194 b 286 0 92 57 164 0 z "},"ĺ":{"ha":435,"x_min":0,"x_max":0,"o":"m 100 1032 l 260 1032 l 385 1238 l 182 1238 z m 286 0 l 410 0 l 410 156 l 360 156 b 300 217 321 156 300 172 l 300 986 l 92 986 l 92 194 b 286 0 92 57 164 0 z "},"ľ":{"ha":542,"x_min":0,"x_max":0,"o":"m 286 0 l 410 0 l 410 156 l 360 156 b 300 217 321 156 300 172 l 300 986 l 92 986 l 92 194 b 286 0 92 57 164 0 z m 367 589 l 511 589 l 586 986 l 406 986 z "},"ļ":{"ha":435,"x_min":0,"x_max":0,"o":"m 286 0 l 410 0 l 410 156 l 360 156 b 300 217 321 156 300 172 l 300 986 l 92 986 l 92 194 b 286 0 92 57 164 0 z m 140 -351 l 263 -351 l 346 -214 l 346 -68 l 165 -68 l 165 -229 l 213 -229 z "},"ł":{"ha":435,"x_min":0,"x_max":0,"o":"m 286 0 l 410 0 l 410 156 l 360 156 b 300 217 321 156 300 172 l 300 507 l 426 557 l 426 693 l 300 643 l 300 986 l 92 986 l 92 561 l 3 526 l 3 390 l 92 425 l 92 194 b 286 0 92 57 164 0 z "},"m":{"ha":1250,"x_min":0,"x_max":0,"o":"m 92 0 l 300 0 l 300 418 b 419 596 300 531 343 596 b 531 418 500 596 531 533 l 531 0 l 718 0 l 718 418 b 838 596 718 531 761 596 b 950 421 915 596 950 538 l 950 0 l 1158 0 l 1158 479 b 908 761 1158 663 1061 761 b 699 610 810 761 733 708 b 486 761 667 703 593 761 b 283 624 396 761 321 711 l 279 744 l 92 744 z "},"n":{"ha":849,"x_min":0,"x_max":0,"o":"m 92 0 l 300 0 l 300 410 b 435 596 300 529 349 596 b 549 410 522 596 549 529 l 549 0 l 757 0 l 757 479 b 504 761 757 651 664 761 b 283 621 406 761 324 722 l 279 744 l 92 744 z "},"ń":{"ha":849,"x_min":0,"x_max":0,"o":"m 329 821 l 489 821 l 614 1026 l 411 1026 z m 92 0 l 300 0 l 300 410 b 435 596 300 529 349 596 b 549 410 522 596 549 529 l 549 0 l 757 0 l 757 479 b 504 761 757 651 664 761 b 283 621 406 761 324 722 l 279 744 l 92 744 z "},"ň":{"ha":849,"x_min":0,"x_max":0,"o":"m 190 1033 l 324 821 l 525 821 l 658 1033 l 513 1033 l 424 910 l 336 1033 z m 92 0 l 300 0 l 300 410 b 435 596 300 529 349 596 b 549 410 522 596 549 529 l 549 0 l 757 0 l 757 479 b 504 761 757 651 664 761 b 283 621 406 761 324 722 l 279 744 l 92 744 z "},"ņ":{"ha":849,"x_min":0,"x_max":0,"o":"m 92 0 l 300 0 l 300 410 b 435 596 300 529 349 596 b 549 410 522 596 549 529 l 549 0 l 757 0 l 757 479 b 504 761 757 651 664 761 b 283 621 406 761 324 722 l 279 744 l 92 744 z m 310 -351 l 432 -351 l 514 -214 l 514 -68 l 333 -68 l 333 -229 l 382 -229 z "},"ñ":{"ha":849,"x_min":0,"x_max":0,"o":"m 501 833 b 661 1033 603 833 660 911 l 557 1033 b 506 957 554 974 533 957 b 453 982 489 957 475 965 b 339 1024 417 1011 383 1024 b 186 826 243 1024 186 947 l 289 826 b 343 900 294 883 315 900 b 396 875 363 900 375 892 b 501 833 432 844 460 833 z m 92 0 l 300 0 l 300 410 b 435 596 300 529 349 596 b 549 410 522 596 549 529 l 549 0 l 757 0 l 757 479 b 504 761 757 651 664 761 b 283 621 406 761 324 722 l 279 744 l 92 744 z "},"ŋ":{"ha":849,"x_min":0,"x_max":0,"o":"m 92 0 l 300 0 l 300 410 b 435 596 300 529 349 596 b 549 410 522 596 549 529 l 549 13 b 467 -67 549 -36 518 -67 l 383 -67 l 383 -208 l 524 -208 b 757 -4 668 -208 757 -121 l 757 479 b 504 761 757 651 664 761 b 283 621 406 761 324 722 l 279 744 l 92 744 z "},"o":{"ha":858,"x_min":0,"x_max":0,"o":"m 429 -17 b 807 372 657 -17 807 136 b 429 761 807 607 657 761 b 51 372 201 761 51 607 b 429 -17 51 136 201 -17 z m 429 143 b 265 372 325 143 265 228 b 429 601 265 517 325 601 b 593 372 533 601 593 517 b 429 143 593 228 533 143 z "},"ó":{"ha":858,"x_min":0,"x_max":0,"o":"m 335 821 l 493 821 l 618 1026 l 417 1026 z m 429 -17 b 807 372 657 -17 807 136 b 429 761 807 607 657 761 b 51 372 201 761 51 607 b 429 -17 51 136 201 -17 z m 429 143 b 265 372 325 143 265 228 b 429 601 265 517 325 601 b 593 372 533 601 593 517 b 429 143 593 228 533 143 z "},"ô":{"ha":858,"x_min":0,"x_max":0,"o":"m 196 821 l 342 821 l 429 944 l 518 821 l 663 821 l 529 1033 l 329 1033 z m 429 -17 b 807 372 657 -17 807 136 b 429 761 807 607 657 761 b 51 372 201 761 51 607 b 429 -17 51 136 201 -17 z m 429 143 b 265 372 325 143 265 228 b 429 601 265 517 325 601 b 593 372 533 601 593 517 b 429 143 593 228 533 143 z "},"ö":{"ha":858,"x_min":0,"x_max":0,"o":"m 181 832 l 379 832 l 379 1000 l 181 1000 z m 479 832 l 678 832 l 678 1000 l 479 1000 z m 429 -17 b 807 372 657 -17 807 136 b 429 761 807 607 657 761 b 51 372 201 761 51 607 b 429 -17 51 136 201 -17 z m 429 143 b 265 372 325 143 265 228 b 429 601 265 517 325 601 b 593 372 533 601 593 517 b 429 143 593 228 533 143 z "},"ò":{"ha":858,"x_min":0,"x_max":0,"o":"m 363 821 l 522 821 l 440 1025 l 238 1025 z m 429 -17 b 807 372 657 -17 807 136 b 429 761 807 607 657 761 b 51 372 201 761 51 607 b 429 -17 51 136 201 -17 z m 429 143 b 265 372 325 143 265 228 b 429 601 265 517 325 601 b 593 372 533 601 593 517 b 429 143 593 228 533 143 z "},"ő":{"ha":858,"x_min":0,"x_max":0,"o":"m 226 821 l 386 821 l 511 1026 l 308 1026 z m 472 821 l 632 821 l 757 1026 l 554 1026 z m 429 -17 b 807 372 657 -17 807 136 b 429 761 807 607 657 761 b 51 372 201 761 51 607 b 429 -17 51 136 201 -17 z m 429 143 b 265 372 325 143 265 228 b 429 601 265 517 325 601 b 593 372 533 601 593 517 b 429 143 593 228 533 143 z "},"ō":{"ha":858,"x_min":0,"x_max":0,"o":"m 222 843 l 638 843 l 638 996 l 222 996 z m 429 -17 b 807 372 657 -17 807 136 b 429 761 807 607 657 761 b 51 372 201 761 51 607 b 429 -17 51 136 201 -17 z m 429 143 b 265 372 325 143 265 228 b 429 601 265 517 325 601 b 593 372 533 601 593 517 b 429 143 593 228 533 143 z "},"ø":{"ha":858,"x_min":0,"x_max":0,"o":"m 86 -19 l 218 -19 l 247 22 b 429 -17 300 -3 361 -17 b 807 372 657 -17 807 136 b 699 660 807 493 768 592 l 772 764 l 640 764 l 611 722 b 429 761 558 747 497 761 b 51 372 201 761 51 607 b 160 85 51 251 90 153 z m 265 372 b 429 601 265 517 325 601 b 510 579 460 601 488 593 l 282 257 b 265 372 271 289 265 328 z m 429 143 b 349 165 399 143 371 151 l 576 488 b 593 372 588 456 593 417 b 429 143 593 228 533 143 z "},"õ":{"ha":858,"x_min":0,"x_max":0,"o":"m 507 833 b 667 1033 608 833 664 911 l 563 1033 b 511 957 558 974 539 957 b 457 982 494 957 481 965 b 344 1024 421 1011 389 1024 b 190 826 249 1024 192 947 l 294 826 b 347 900 299 883 321 900 b 401 875 367 900 381 892 b 507 833 438 844 464 833 z m 429 -17 b 807 372 657 -17 807 136 b 429 761 807 607 657 761 b 51 372 201 761 51 607 b 429 -17 51 136 201 -17 z m 429 143 b 265 372 325 143 265 228 b 429 601 265 517 325 601 b 593 372 533 601 593 517 b 429 143 593 228 533 143 z "},"œ":{"ha":1386,"x_min":0,"x_max":0,"o":"m 429 -17 b 701 86 542 -17 635 21 b 972 -17 767 21 860 -17 b 1324 219 1150 -17 1283 71 l 1114 232 b 975 142 1094 171 1044 142 b 811 317 879 142 817 199 l 1335 317 l 1335 358 b 969 761 1335 608 1192 761 b 701 657 858 761 765 724 b 429 761 635 724 542 761 b 51 372 201 761 51 607 b 429 -17 51 136 201 -17 z m 811 444 b 969 607 822 547 882 607 b 1122 444 1056 607 1115 553 z m 429 143 b 265 372 325 143 265 228 b 429 601 265 517 325 601 b 593 372 533 601 593 517 b 429 143 593 228 533 143 z "},"p":{"ha":881,"x_min":0,"x_max":0,"o":"m 92 -208 l 300 -208 l 300 104 b 514 -17 340 29 421 -17 b 829 372 722 -17 829 154 b 515 761 829 590 724 761 b 294 633 418 761 338 717 l 292 744 l 92 744 z m 457 143 b 300 372 358 143 300 222 b 457 601 300 522 360 601 b 615 372 554 601 615 514 b 457 143 615 231 554 143 z "},"þ":{"ha":867,"x_min":0,"x_max":0,"o":"m 92 -208 l 303 -208 l 303 64 b 488 -17 343 13 408 -17 b 815 372 701 -17 815 154 b 488 761 815 590 701 761 b 303 681 399 761 338 731 l 303 986 l 92 986 z m 444 158 b 289 372 338 158 289 258 b 444 590 289 489 338 590 b 600 372 553 590 600 490 b 444 158 600 257 553 158 z "},"q":{"ha":881,"x_min":0,"x_max":0,"o":"m 789 -208 l 789 744 l 589 744 l 586 633 b 365 761 543 717 463 761 b 51 372 157 761 51 590 b 367 -17 51 154 158 -17 b 581 104 460 -17 540 29 l 581 -208 z m 424 143 b 265 372 326 143 265 231 b 424 601 265 514 326 601 b 581 372 521 601 581 522 b 424 143 581 222 522 143 z "},"r":{"ha":590,"x_min":0,"x_max":0,"o":"m 92 0 l 300 0 l 300 418 b 471 572 300 529 354 572 l 539 572 l 539 744 l 471 744 b 294 596 381 744 324 700 l 289 744 l 92 744 z "},"ŕ":{"ha":590,"x_min":0,"x_max":0,"o":"m 226 821 l 386 821 l 511 1026 l 308 1026 z m 92 0 l 300 0 l 300 418 b 471 572 300 529 354 572 l 539 572 l 539 744 l 471 744 b 294 596 381 744 324 700 l 289 744 l 92 744 z "},"ř":{"ha":590,"x_min":0,"x_max":0,"o":"m 88 1033 l 221 821 l 422 821 l 556 1033 l 410 1033 l 321 910 l 233 1033 z m 92 0 l 300 0 l 300 418 b 471 572 300 529 354 572 l 539 572 l 539 744 l 471 744 b 294 596 381 744 324 700 l 289 744 l 92 744 z "},"ŗ":{"ha":590,"x_min":0,"x_max":0,"o":"m 92 0 l 300 0 l 300 418 b 471 572 300 529 354 572 l 539 572 l 539 744 l 471 744 b 294 596 381 744 324 700 l 289 744 l 92 744 z m 81 -351 l 203 -351 l 286 -214 l 286 -68 l 106 -68 l 106 -229 l 153 -229 z "},"s":{"ha":792,"x_min":0,"x_max":0,"o":"m 410 -17 b 739 208 613 -17 739 64 b 422 439 739 338 657 404 b 289 531 319 454 289 476 b 403 614 289 581 329 614 b 532 497 489 614 529 567 l 740 506 b 406 761 729 651 629 761 b 74 522 185 761 74 665 b 376 293 74 393 143 333 b 525 206 500 272 525 251 b 410 131 525 156 485 131 b 263 242 315 131 275 171 l 51 235 b 410 -17 63 89 169 -17 z "},"ś":{"ha":792,"x_min":0,"x_max":0,"o":"m 304 821 l 463 821 l 588 1026 l 386 1026 z m 410 -17 b 739 208 613 -17 739 64 b 422 439 739 338 657 404 b 289 531 319 454 289 476 b 403 614 289 581 329 614 b 532 497 489 614 529 567 l 740 506 b 406 761 729 651 629 761 b 74 522 185 761 74 665 b 376 293 74 393 143 333 b 525 206 500 272 525 251 b 410 131 525 156 485 131 b 263 242 315 131 275 171 l 51 235 b 410 -17 63 89 169 -17 z "},"š":{"ha":792,"x_min":0,"x_max":0,"o":"m 165 1033 l 299 821 l 499 821 l 632 1033 l 486 1033 l 399 910 l 311 1033 z m 410 -17 b 739 208 613 -17 739 64 b 422 439 739 338 657 404 b 289 531 319 454 289 476 b 403 614 289 581 329 614 b 532 497 489 614 529 567 l 740 506 b 406 761 729 651 629 761 b 74 522 185 761 74 665 b 376 293 74 393 143 333 b 525 206 500 272 525 251 b 410 131 525 156 485 131 b 263 242 315 131 275 171 l 51 235 b 410 -17 63 89 169 -17 z "},"ş":{"ha":792,"x_min":0,"x_max":0,"o":"m 397 -322 b 574 -175 494 -322 574 -275 b 440 -43 574 -106 532 -51 l 458 -15 b 739 208 633 -3 739 76 b 422 439 739 338 657 404 b 289 531 319 454 289 476 b 403 614 289 581 329 614 b 532 497 489 614 529 567 l 740 506 b 406 761 729 651 629 761 b 74 522 185 761 74 665 b 376 293 74 393 143 333 b 525 206 500 272 525 251 b 410 131 525 156 485 131 b 263 242 315 131 275 171 l 51 235 b 342 -14 61 103 150 4 l 313 -62 l 369 -117 b 460 -171 443 -117 460 -139 b 393 -221 460 -203 433 -221 b 311 -168 350 -221 326 -204 l 219 -207 b 397 -322 243 -275 304 -322 z "},"ŝ":{"ha":792,"x_min":0,"x_max":0,"o":"m 165 821 l 311 821 l 399 944 l 486 821 l 632 821 l 499 1033 l 299 1033 z m 410 -17 b 739 208 613 -17 739 64 b 422 439 739 338 657 404 b 289 531 319 454 289 476 b 403 614 289 581 329 614 b 532 497 489 614 529 567 l 740 506 b 406 761 729 651 629 761 b 74 522 185 761 74 665 b 376 293 74 393 143 333 b 525 206 500 272 525 251 b 410 131 525 156 485 131 b 263 242 315 131 275 171 l 51 235 b 410 -17 63 89 169 -17 z "},"ș":{"ha":792,"x_min":0,"x_max":0,"o":"m 410 -17 b 739 208 613 -17 739 64 b 422 439 739 338 657 404 b 289 531 319 454 289 476 b 403 614 289 581 329 614 b 532 497 489 614 529 567 l 740 506 b 406 761 729 651 629 761 b 74 522 185 761 74 665 b 376 293 74 393 143 333 b 525 206 500 272 525 251 b 410 131 525 156 485 131 b 263 242 315 131 275 171 l 51 235 b 410 -17 63 89 169 -17 z m 292 -351 l 414 -351 l 496 -214 l 496 -68 l 315 -68 l 315 -229 l 364 -229 z "},"ß":{"ha":911,"x_min":0,"x_max":0,"o":"m 92 0 l 300 0 l 300 643 b 464 825 300 757 363 825 b 596 714 551 825 596 781 b 457 599 596 642 542 599 l 400 599 l 400 429 l 467 429 b 653 300 592 429 653 383 b 476 175 653 215 592 175 l 388 175 l 388 0 l 479 0 b 867 274 728 0 867 101 b 635 522 867 400 778 493 b 806 733 740 553 806 629 b 464 1000 806 899 681 1000 b 92 643 229 1000 92 869 z "},"t":{"ha":618,"x_min":0,"x_max":0,"o":"m 400 0 l 581 0 l 581 156 l 476 156 b 385 249 415 156 385 176 l 385 589 l 581 589 l 581 744 l 385 744 l 385 919 l 176 919 l 176 744 l 57 744 l 57 589 l 176 589 l 176 224 b 400 0 176 68 246 0 z "},"ŧ":{"ha":618,"x_min":0,"x_max":0,"o":"m 64 332 l 176 332 l 176 224 b 400 0 176 68 246 0 l 581 0 l 581 156 l 476 156 b 385 249 415 156 385 176 l 385 332 l 558 332 l 558 453 l 385 453 l 385 589 l 581 589 l 581 744 l 385 744 l 385 919 l 176 919 l 176 744 l 57 744 l 57 589 l 176 589 l 176 453 l 64 453 z "},"ť":{"ha":625,"x_min":0,"x_max":0,"o":"m 449 775 l 581 775 l 656 1103 l 489 1103 z m 400 0 l 581 0 l 581 156 l 476 156 b 385 249 415 156 385 176 l 385 589 l 581 589 l 581 744 l 385 744 l 385 919 l 176 919 l 176 744 l 57 744 l 57 589 l 176 589 l 176 224 b 400 0 176 68 246 0 z "},"ţ":{"ha":618,"x_min":0,"x_max":0,"o":"m 356 -322 b 531 -175 453 -322 531 -275 b 397 -43 531 -106 490 -51 l 426 0 l 581 0 l 581 156 l 476 156 b 385 249 415 156 385 176 l 385 589 l 581 589 l 581 744 l 385 744 l 385 919 l 176 919 l 176 744 l 57 744 l 57 589 l 176 589 l 176 224 b 314 10 176 101 219 33 l 271 -62 l 326 -117 b 418 -171 401 -117 418 -139 b 351 -221 418 -203 392 -221 b 268 -168 307 -221 283 -204 l 176 -207 b 356 -322 201 -275 263 -322 z "},"ț":{"ha":618,"x_min":0,"x_max":0,"o":"m 400 0 l 581 0 l 581 156 l 476 156 b 385 249 415 156 385 176 l 385 589 l 581 589 l 581 744 l 385 744 l 385 919 l 176 919 l 176 744 l 57 744 l 57 589 l 176 589 l 176 224 b 400 0 176 68 246 0 z m 249 -351 l 371 -351 l 454 -214 l 454 -68 l 274 -68 l 274 -229 l 321 -229 z "},"u":{"ha":843,"x_min":0,"x_max":0,"o":"m 336 -17 b 560 121 446 -17 522 29 l 563 0 l 753 0 l 753 744 l 544 744 l 544 324 b 410 149 544 206 494 149 b 300 314 335 149 300 199 l 300 744 l 92 744 l 92 265 b 336 -17 92 86 182 -17 z "},"ú":{"ha":843,"x_min":0,"x_max":0,"o":"m 324 821 l 483 821 l 608 1026 l 406 1026 z m 336 -17 b 560 121 446 -17 522 29 l 563 0 l 753 0 l 753 744 l 544 744 l 544 324 b 410 149 544 206 494 149 b 300 314 335 149 300 199 l 300 744 l 92 744 l 92 265 b 336 -17 92 86 182 -17 z "},"ŭ":{"ha":843,"x_min":0,"x_max":0,"o":"m 418 822 b 636 1026 547 822 631 896 l 515 1026 b 418 936 508 963 474 936 b 321 1026 363 936 328 963 l 201 1026 b 418 822 207 896 290 822 z m 336 -17 b 560 121 446 -17 522 29 l 563 0 l 753 0 l 753 744 l 544 744 l 544 324 b 410 149 544 206 494 149 b 300 314 335 149 300 199 l 300 744 l 92 744 l 92 265 b 336 -17 92 86 182 -17 z "},"û":{"ha":843,"x_min":0,"x_max":0,"o":"m 185 821 l 331 821 l 418 944 l 507 821 l 653 821 l 519 1033 l 318 1033 z m 336 -17 b 560 121 446 -17 522 29 l 563 0 l 753 0 l 753 744 l 544 744 l 544 324 b 410 149 544 206 494 149 b 300 314 335 149 300 199 l 300 744 l 92 744 l 92 265 b 336 -17 92 86 182 -17 z "},"ü":{"ha":843,"x_min":0,"x_max":0,"o":"m 169 832 l 369 832 l 369 1000 l 169 1000 z m 468 832 l 667 832 l 667 1000 l 468 1000 z m 336 -17 b 560 121 446 -17 522 29 l 563 0 l 753 0 l 753 744 l 544 744 l 544 324 b 410 149 544 206 494 149 b 300 314 335 149 300 199 l 300 744 l 92 744 l 92 265 b 336 -17 92 86 182 -17 z "},"ù":{"ha":843,"x_min":0,"x_max":0,"o":"m 353 821 l 511 821 l 429 1025 l 228 1025 z m 336 -17 b 560 121 446 -17 522 29 l 563 0 l 753 0 l 753 744 l 544 744 l 544 324 b 410 149 544 206 494 149 b 300 314 335 149 300 199 l 300 744 l 92 744 l 92 265 b 336 -17 92 86 182 -17 z "},"ű":{"ha":843,"x_min":0,"x_max":0,"o":"m 215 821 l 375 821 l 500 1026 l 297 1026 z m 463 821 l 621 821 l 746 1026 l 543 1026 z m 336 -17 b 560 121 446 -17 522 29 l 563 0 l 753 0 l 753 744 l 544 744 l 544 324 b 410 149 544 206 494 149 b 300 314 335 149 300 199 l 300 744 l 92 744 l 92 265 b 336 -17 92 86 182 -17 z "},"ū":{"ha":843,"x_min":0,"x_max":0,"o":"m 211 843 l 626 843 l 626 996 l 211 996 z m 336 -17 b 560 121 446 -17 522 29 l 563 0 l 753 0 l 753 744 l 544 744 l 544 324 b 410 149 544 206 494 149 b 300 314 335 149 300 199 l 300 744 l 92 744 l 92 265 b 336 -17 92 86 182 -17 z "},"ų":{"ha":843,"x_min":0,"x_max":0,"o":"m 336 -17 b 560 121 446 -17 522 29 l 563 0 l 589 0 l 568 -28 b 499 -183 533 -72 499 -126 b 656 -301 499 -260 557 -301 b 804 -265 715 -301 779 -286 l 765 -160 b 703 -178 751 -169 726 -178 b 667 -143 683 -178 667 -165 b 711 -56 667 -119 683 -92 l 753 0 l 753 744 l 544 744 l 544 324 b 410 149 544 206 494 149 b 300 314 335 149 300 199 l 300 744 l 92 744 l 92 265 b 336 -17 92 86 182 -17 z "},"ů":{"ha":843,"x_min":0,"x_max":0,"o":"m 418 799 b 561 939 499 799 561 858 b 418 1081 561 1019 499 1081 b 276 939 338 1081 276 1019 b 418 799 276 858 338 799 z m 418 888 b 367 939 389 888 367 910 b 418 992 367 969 389 992 b 471 939 449 992 471 969 b 418 888 471 910 449 888 z m 336 -17 b 560 121 446 -17 522 29 l 563 0 l 753 0 l 753 744 l 544 744 l 544 324 b 410 149 544 206 494 149 b 300 314 335 149 300 199 l 300 744 l 92 744 l 92 265 b 336 -17 92 86 182 -17 z "},"ũ":{"ha":844,"x_min":0,"x_max":0,"o":"m 489 833 b 647 1033 589 833 646 911 l 544 1033 b 492 957 540 974 521 957 b 439 982 475 957 461 965 b 325 1024 403 1011 369 1024 b 172 826 229 1024 174 947 l 276 826 b 329 900 281 883 303 900 b 383 875 349 900 361 892 b 489 833 418 844 446 833 z m 336 -17 b 560 121 446 -17 522 29 l 563 0 l 753 0 l 753 744 l 544 744 l 544 324 b 410 149 544 206 494 149 b 300 314 335 149 300 199 l 300 744 l 92 744 l 92 265 b 336 -17 92 86 182 -17 z "},"v":{"ha":846,"x_min":0,"x_max":0,"o":"m 301 0 l 543 0 l 817 744 l 599 744 l 424 210 l 247 744 l 29 744 z "},"w":{"ha":1179,"x_min":0,"x_max":0,"o":"m 250 0 l 451 0 l 589 465 l 726 0 l 929 0 l 1150 744 l 940 744 l 811 240 l 674 744 l 504 744 l 367 240 l 239 744 l 29 744 z "},"ẃ":{"ha":1179,"x_min":0,"x_max":0,"o":"m 496 821 l 654 821 l 779 1026 l 578 1026 z m 250 0 l 451 0 l 589 465 l 726 0 l 929 0 l 1150 744 l 940 744 l 811 240 l 674 744 l 504 744 l 367 240 l 239 744 l 29 744 z "},"ŵ":{"ha":1179,"x_min":0,"x_max":0,"o":"m 357 821 l 503 821 l 590 944 l 678 821 l 824 821 l 690 1033 l 490 1033 z m 250 0 l 451 0 l 589 465 l 726 0 l 929 0 l 1150 744 l 940 744 l 811 240 l 674 744 l 504 744 l 367 240 l 239 744 l 29 744 z "},"ẅ":{"ha":1179,"x_min":0,"x_max":0,"o":"m 342 832 l 540 832 l 540 1000 l 342 1000 z m 640 832 l 839 832 l 839 1000 l 640 1000 z m 250 0 l 451 0 l 589 465 l 726 0 l 929 0 l 1150 744 l 940 744 l 811 240 l 674 744 l 504 744 l 367 240 l 239 744 l 29 744 z "},"ẁ":{"ha":1179,"x_min":0,"x_max":0,"o":"m 524 821 l 683 821 l 601 1025 l 399 1025 z m 250 0 l 451 0 l 589 465 l 726 0 l 929 0 l 1150 744 l 940 744 l 811 240 l 674 744 l 504 744 l 367 240 l 239 744 l 29 744 z "},"x":{"ha":903,"x_min":0,"x_max":0,"o":"m 64 0 l 289 0 l 454 253 l 618 0 l 839 0 l 575 376 l 832 744 l 606 744 l 451 506 l 292 744 l 71 744 l 329 378 z "},"y":{"ha":814,"x_min":0,"x_max":0,"o":"m 153 -208 l 294 -208 b 499 -71 407 -208 465 -169 l 785 744 l 572 744 l 413 232 l 242 744 l 29 744 l 290 38 l 347 38 l 332 -6 b 251 -53 318 -42 299 -53 l 153 -53 z "},"ý":{"ha":814,"x_min":0,"x_max":0,"o":"m 314 821 l 472 821 l 597 1026 l 396 1026 z m 153 -208 l 294 -208 b 499 -71 407 -208 465 -169 l 785 744 l 572 744 l 413 232 l 242 744 l 29 744 l 290 38 l 347 38 l 332 -6 b 251 -53 318 -42 299 -53 l 153 -53 z "},"ŷ":{"ha":814,"x_min":0,"x_max":0,"o":"m 175 821 l 321 821 l 408 944 l 497 821 l 642 821 l 508 1033 l 308 1033 z m 153 -208 l 294 -208 b 499 -71 407 -208 465 -169 l 785 744 l 572 744 l 413 232 l 242 744 l 29 744 l 290 38 l 347 38 l 332 -6 b 251 -53 318 -42 299 -53 l 153 -53 z "},"ÿ":{"ha":814,"x_min":0,"x_max":0,"o":"m 160 832 l 358 832 l 358 1000 l 160 1000 z m 458 832 l 657 832 l 657 1000 l 458 1000 z m 153 -208 l 294 -208 b 499 -71 407 -208 465 -169 l 785 744 l 572 744 l 413 232 l 242 744 l 29 744 l 290 38 l 347 38 l 332 -6 b 251 -53 318 -42 299 -53 l 153 -53 z "},"ỳ":{"ha":814,"x_min":0,"x_max":0,"o":"m 342 821 l 501 821 l 419 1025 l 217 1025 z m 153 -208 l 294 -208 b 499 -71 407 -208 465 -169 l 785 744 l 572 744 l 413 232 l 242 744 l 29 744 l 290 38 l 347 38 l 332 -6 b 251 -53 318 -42 299 -53 l 153 -53 z "},"ỹ":{"ha":814,"x_min":0,"x_max":0,"o":"m 486 833 b 646 1033 588 833 643 911 l 542 1033 b 490 957 538 974 518 957 b 436 982 474 957 460 965 b 324 1024 400 1011 368 1024 b 169 826 228 1024 171 947 l 274 826 b 326 900 278 883 300 900 b 381 875 346 900 360 892 b 486 833 417 844 443 833 z m 153 -208 l 294 -208 b 499 -71 407 -208 465 -169 l 785 744 l 572 744 l 413 232 l 242 744 l 29 744 l 290 38 l 347 38 l 332 -6 b 251 -53 318 -42 299 -53 l 153 -53 z "},"z":{"ha":810,"x_min":0,"x_max":0,"o":"m 69 0 l 740 0 l 740 156 l 313 156 l 729 581 l 729 744 l 86 744 l 86 589 l 479 589 l 69 164 z "},"ź":{"ha":810,"x_min":0,"x_max":0,"o":"m 314 821 l 474 821 l 599 1026 l 396 1026 z m 69 0 l 740 0 l 740 156 l 313 156 l 729 581 l 729 744 l 86 744 l 86 589 l 479 589 l 69 164 z "},"ž":{"ha":810,"x_min":0,"x_max":0,"o":"m 175 1033 l 308 821 l 510 821 l 643 1033 l 497 1033 l 410 910 l 321 1033 z m 69 0 l 740 0 l 740 156 l 313 156 l 729 581 l 729 744 l 86 744 l 86 589 l 479 589 l 69 164 z "},"ż":{"ha":810,"x_min":0,"x_max":0,"o":"m 301 836 l 517 836 l 517 1003 l 301 1003 z m 69 0 l 740 0 l 740 156 l 313 156 l 729 581 l 729 744 l 86 744 l 86 589 l 479 589 l 69 164 z "},"ꞌ":{"ha":369,"x_min":0,"x_max":0,"o":"m 110 486 l 260 486 l 278 847 l 278 986 l 92 986 l 92 847 z "},"ﬁ":{"ha":975,"x_min":0,"x_max":0,"o":"m 672 836 l 888 836 l 888 1003 l 672 1003 z m 172 0 l 381 0 l 381 561 l 565 561 l 565 717 l 381 717 l 381 744 b 463 831 381 801 404 831 l 576 831 l 576 986 l 418 986 b 172 754 250 986 172 901 l 172 717 l 64 717 l 64 561 l 172 561 z m 676 0 l 885 0 l 885 744 l 676 744 z "},"ﬂ":{"ha":1033,"x_min":0,"x_max":0,"o":"m 172 0 l 381 0 l 381 561 l 565 561 l 565 717 l 381 717 l 381 744 b 463 831 381 801 404 831 l 576 831 l 576 986 l 418 986 b 172 754 250 986 172 901 l 172 717 l 64 717 l 64 561 l 172 561 z m 885 0 l 1008 0 l 1008 156 l 958 156 b 899 217 919 156 899 172 l 899 986 l 690 986 l 690 194 b 885 0 690 57 764 0 z "},"ª":{"ha":600,"x_min":0,"x_max":0,"o":"m 229 522 b 390 604 313 522 368 554 b 497 522 403 539 451 522 b 558 528 525 522 549 525 l 558 628 l 547 628 b 521 663 531 628 521 633 l 521 813 b 296 1008 521 942 449 1008 b 64 850 160 1008 82 957 l 221 844 b 296 906 228 886 253 906 b 364 824 338 906 364 878 l 219 794 b 56 649 113 772 56 733 b 229 522 56 568 124 522 z m 267 618 b 217 663 232 618 217 635 b 274 715 217 689 238 707 l 364 736 l 364 714 b 267 618 364 653 322 618 z "},"º":{"ha":619,"x_min":0,"x_max":0,"o":"m 310 522 b 564 765 467 522 564 618 b 310 1008 564 911 467 1008 b 56 765 153 1008 56 911 b 310 522 56 618 153 522 z m 310 633 b 217 765 249 633 217 681 b 310 897 217 849 249 897 b 403 765 369 897 403 850 b 310 633 403 679 369 633 z "},"А":{"ha":1014,"x_min":0,"x_max":0,"o":"m 26 0 l 244 0 l 317 210 l 696 210 l 768 0 l 988 0 l 632 986 l 382 986 z m 376 383 l 507 764 l 638 383 z "},"Б":{"ha":947,"x_min":0,"x_max":0,"o":"m 103 0 l 497 0 b 876 313 733 0 876 118 b 497 626 876 508 733 626 l 314 626 l 314 808 l 832 808 l 832 986 l 103 986 z m 314 178 l 314 450 l 485 450 b 660 313 600 450 660 403 b 485 178 660 224 600 178 z "},"В":{"ha":976,"x_min":0,"x_max":0,"o":"m 103 0 l 533 0 b 906 272 772 0 906 89 b 660 510 906 408 819 497 b 864 718 790 522 864 599 b 486 986 864 903 731 986 l 103 986 z m 314 578 l 314 814 l 481 814 b 651 696 588 814 651 778 b 481 578 651 618 585 578 z m 314 172 l 314 425 l 524 425 b 693 297 625 425 693 381 b 524 172 693 213 625 172 z "},"Г":{"ha":847,"x_min":0,"x_max":0,"o":"m 103 0 l 314 0 l 314 808 l 832 808 l 832 986 l 103 986 z "},"Ѓ":{"ha":847,"x_min":0,"x_max":0,"o":"m 372 1063 l 531 1063 l 656 1268 l 453 1268 z m 103 0 l 314 0 l 314 808 l 832 808 l 832 986 l 103 986 z "},"Ґ":{"ha":790,"x_min":0,"x_max":0,"o":"m 103 0 l 314 0 l 314 808 l 775 808 l 775 1201 l 564 1201 l 564 986 l 103 986 z "},"Ғ":{"ha":921,"x_min":0,"x_max":0,"o":"m 176 0 l 388 0 l 388 367 l 689 367 l 689 544 l 388 544 l 388 808 l 906 808 l 906 986 l 176 986 l 176 544 l 75 544 l 75 367 l 176 367 z "},"Д":{"ha":1189,"x_min":0,"x_max":0,"o":"m 69 -208 l 282 -208 l 282 0 l 908 0 l 908 -208 l 1119 -208 l 1119 178 l 997 178 l 997 986 l 317 986 l 244 361 b 113 178 229 240 185 178 l 69 178 z m 403 178 b 458 347 432 218 449 274 l 511 808 l 786 808 l 786 178 z "},"Е":{"ha":864,"x_min":0,"x_max":0,"o":"m 103 0 l 800 0 l 800 178 l 314 178 l 314 407 l 772 407 l 772 582 l 314 582 l 314 808 l 789 808 l 789 986 l 103 986 z "},"Ѐ":{"ha":864,"x_min":0,"x_max":0,"o":"m 390 1063 l 549 1063 l 467 1267 l 265 1267 z m 103 0 l 800 0 l 800 178 l 314 178 l 314 407 l 772 407 l 772 582 l 314 582 l 314 808 l 789 808 l 789 986 l 103 986 z "},"Ё":{"ha":864,"x_min":0,"x_max":0,"o":"m 199 1074 l 397 1074 l 397 1242 l 199 1242 z m 497 1074 l 696 1074 l 696 1242 l 497 1242 z m 103 0 l 800 0 l 800 178 l 314 178 l 314 407 l 772 407 l 772 582 l 314 582 l 314 808 l 789 808 l 789 986 l 103 986 z "},"Ж":{"ha":1428,"x_min":0,"x_max":0,"o":"m 17 0 l 281 0 l 608 439 l 608 0 l 819 0 l 819 439 l 1147 0 l 1411 0 l 1042 493 l 1397 986 l 1133 986 l 819 550 l 819 986 l 608 986 l 608 550 l 294 986 l 31 986 l 385 493 z "},"З":{"ha":951,"x_min":0,"x_max":0,"o":"m 475 -22 b 890 271 724 -22 890 96 b 639 533 890 408 800 501 b 857 751 779 561 857 636 b 475 1008 857 906 704 1008 b 83 740 258 1008 103 901 l 297 731 b 471 831 306 792 371 831 b 639 722 575 831 639 790 b 489 593 639 631 564 592 l 389 594 l 389 447 l 489 449 b 672 304 583 450 672 403 b 476 156 672 214 599 156 b 276 297 363 156 285 211 l 61 289 b 475 -22 71 101 236 -22 z "},"И":{"ha":1042,"x_min":0,"x_max":0,"o":"m 939 0 l 939 986 l 707 986 l 314 306 l 314 986 l 103 986 l 103 0 l 339 0 l 728 657 l 728 0 z "},"Й":{"ha":1039,"x_min":0,"x_max":0,"o":"m 515 1072 b 733 1276 644 1072 728 1146 l 613 1276 b 515 1186 606 1213 571 1186 b 418 1276 460 1186 425 1213 l 297 1276 b 515 1072 303 1146 386 1072 z m 936 0 l 936 986 l 704 986 l 311 306 l 311 986 l 100 986 l 100 0 l 336 0 l 725 657 l 725 0 z "},"Ѝ":{"ha":1039,"x_min":0,"x_max":0,"o":"m 443 1063 l 603 1063 l 521 1267 l 318 1267 z m 936 0 l 936 986 l 704 986 l 311 306 l 311 986 l 100 986 l 100 0 l 336 0 l 725 657 l 725 0 z "},"К":{"ha":954,"x_min":0,"x_max":0,"o":"m 103 0 l 314 0 l 314 481 l 693 0 l 938 0 l 544 493 l 924 986 l 682 986 l 314 506 l 314 986 l 103 986 z "},"Ќ":{"ha":954,"x_min":0,"x_max":0,"o":"m 399 1063 l 557 1063 l 682 1268 l 481 1268 z m 103 0 l 314 0 l 314 481 l 693 0 l 938 0 l 544 493 l 924 986 l 682 986 l 314 506 l 314 986 l 103 986 z "},"Л":{"ha":1085,"x_min":0,"x_max":0,"o":"m 68 0 l 210 0 b 440 240 349 0 426 94 l 492 808 l 772 808 l 772 0 l 982 0 l 982 986 l 300 986 l 236 278 b 147 178 229 215 201 178 l 68 178 z "},"М":{"ha":1271,"x_min":0,"x_max":0,"o":"m 103 0 l 314 0 l 314 639 l 544 3 l 725 3 l 957 639 l 957 0 l 1168 0 l 1168 986 l 886 986 l 636 268 l 385 986 l 103 986 z "},"Н":{"ha":1001,"x_min":0,"x_max":0,"o":"m 103 0 l 314 0 l 314 407 l 688 407 l 688 0 l 899 0 l 899 986 l 688 986 l 688 585 l 314 585 l 314 986 l 103 986 z "},"О":{"ha":1078,"x_min":0,"x_max":0,"o":"m 539 -22 b 1019 492 839 -22 1019 174 b 539 1008 1019 810 839 1008 b 58 492 239 1008 58 810 b 539 -22 58 174 239 -22 z m 539 156 b 276 492 374 156 276 278 b 539 831 276 706 374 831 b 801 492 703 831 801 706 b 539 156 801 278 703 156 z "},"П":{"ha":996,"x_min":0,"x_max":0,"o":"m 103 0 l 314 0 l 314 808 l 682 808 l 682 0 l 893 0 l 893 986 l 103 986 z "},"Р":{"ha":933,"x_min":0,"x_max":0,"o":"m 103 0 l 314 0 l 314 340 l 497 340 b 876 664 733 340 876 464 b 497 986 876 864 733 986 l 103 986 z m 314 518 l 314 808 l 485 808 b 660 664 596 808 660 760 b 485 518 660 568 596 518 z "},"С":{"ha":1013,"x_min":0,"x_max":0,"o":"m 524 -22 b 971 360 779 -22 931 119 l 750 368 b 525 156 729 235 658 156 b 278 492 374 156 278 283 b 526 831 278 697 369 831 b 746 633 649 831 724 757 l 967 642 b 526 1008 924 876 785 1008 b 60 492 243 1008 60 806 b 524 -22 60 169 253 -22 z "},"Т":{"ha":863,"x_min":0,"x_max":0,"o":"m 296 0 l 507 0 l 507 808 l 803 808 l 803 986 l 0 986 l 0 808 l 296 808 z "},"У":{"ha":850,"x_min":0,"x_max":0,"o":"m 147 0 l 314 0 b 519 138 421 0 486 43 l 824 986 l 607 986 l 428 468 l 244 986 l 26 986 l 292 288 l 367 288 l 342 221 b 258 172 331 186 304 172 l 147 172 z "},"Ў":{"ha":850,"x_min":0,"x_max":0,"o":"m 424 1064 b 642 1268 553 1064 636 1138 l 521 1268 b 424 1178 514 1204 479 1178 b 326 1268 368 1178 333 1204 l 207 1268 b 424 1064 213 1138 296 1064 z m 147 0 l 314 0 b 519 138 421 0 486 43 l 824 986 l 607 986 l 428 468 l 244 986 l 26 986 l 292 288 l 367 288 l 342 221 b 258 172 331 186 304 172 l 147 172 z "},"Ф":{"ha":1207,"x_min":0,"x_max":0,"o":"m 504 0 l 703 0 l 703 107 b 1149 493 972 136 1149 283 b 703 879 1149 703 972 850 l 703 986 l 504 986 l 504 879 b 58 493 233 851 58 703 b 504 107 58 283 233 135 z m 276 493 b 504 700 276 601 361 676 l 504 286 b 276 493 361 310 276 385 z m 931 493 b 703 286 931 386 844 310 l 703 700 b 931 493 844 676 931 600 z "},"Х":{"ha":956,"x_min":0,"x_max":0,"o":"m 17 0 l 263 0 l 476 338 l 693 0 l 939 0 l 603 497 l 935 986 l 689 986 l 479 654 l 264 986 l 19 986 l 351 494 z "},"Ц":{"ha":1125,"x_min":0,"x_max":0,"o":"m 839 -208 l 1050 -208 l 1050 178 l 893 178 l 893 986 l 682 986 l 682 178 l 314 178 l 314 986 l 103 986 l 103 0 l 839 0 z "},"Ч":{"ha":933,"x_min":0,"x_max":0,"o":"m 619 0 l 831 0 l 831 986 l 619 986 l 619 683 b 421 504 619 572 542 504 b 261 683 315 504 261 568 l 261 986 l 50 986 l 50 632 b 365 331 50 447 167 331 b 619 451 476 331 569 376 z "},"Ш":{"ha":1344,"x_min":0,"x_max":0,"o":"m 103 0 l 1242 0 l 1242 986 l 1031 986 l 1031 178 l 779 178 l 779 986 l 567 986 l 567 178 l 314 178 l 314 986 l 103 986 z "},"Щ":{"ha":1471,"x_min":0,"x_max":0,"o":"m 103 0 l 1185 0 l 1185 -208 l 1396 -208 l 1396 178 l 1242 178 l 1242 986 l 1031 986 l 1031 178 l 779 178 l 779 986 l 567 986 l 567 178 l 314 178 l 314 986 l 103 986 z "},"Џ":{"ha":996,"x_min":0,"x_max":0,"o":"m 393 -208 l 604 -208 l 604 0 l 893 0 l 893 986 l 682 986 l 682 178 l 314 178 l 314 986 l 103 986 l 103 0 l 393 0 z "},"Ь":{"ha":947,"x_min":0,"x_max":0,"o":"m 103 986 l 103 0 l 497 0 b 876 322 733 0 876 122 b 497 646 876 522 733 646 l 314 646 l 314 986 z m 314 468 l 485 468 b 660 322 596 468 660 418 b 485 178 660 226 596 178 l 314 178 z "},"Ы":{"ha":1288,"x_min":0,"x_max":0,"o":"m 975 0 l 1185 0 l 1185 986 l 975 986 z m 103 986 l 103 0 l 497 0 b 876 322 733 0 876 122 b 497 646 876 522 733 646 l 314 646 l 314 986 z m 314 468 l 485 468 b 660 322 596 468 660 418 b 485 178 660 226 596 178 l 314 178 z "},"Ъ":{"ha":1049,"x_min":0,"x_max":0,"o":"m 75 808 l 219 808 l 219 0 l 614 0 b 993 322 850 0 993 122 b 614 646 993 522 850 646 l 431 646 l 431 986 l 75 986 z m 431 468 l 601 468 b 776 322 711 468 776 418 b 601 178 776 226 713 178 l 431 178 z "},"Љ":{"ha":1615,"x_min":0,"x_max":0,"o":"m 68 0 l 210 0 b 440 240 349 0 426 94 l 492 808 l 771 808 l 771 0 l 1167 0 b 1544 322 1403 0 1544 122 b 1167 646 1544 522 1403 646 l 982 646 l 982 986 l 300 986 l 236 278 b 147 178 229 215 201 178 l 68 178 z m 982 468 l 1154 468 b 1328 322 1264 468 1328 418 b 1154 178 1328 226 1265 178 l 982 178 z "},"Њ":{"ha":1526,"x_min":0,"x_max":0,"o":"m 103 0 l 314 0 l 314 468 l 682 468 l 682 0 l 1078 0 b 1456 322 1314 0 1456 122 b 1078 646 1456 522 1314 646 l 893 646 l 893 986 l 682 986 l 682 646 l 314 646 l 314 986 l 103 986 z m 893 468 l 1065 468 b 1239 322 1175 468 1239 418 b 1065 178 1239 226 1176 178 l 893 178 z "},"Ѕ":{"ha":946,"x_min":0,"x_max":0,"o":"m 493 -22 b 874 276 726 -22 874 92 b 510 581 874 426 783 525 b 304 718 350 614 304 644 b 458 833 304 788 363 833 b 647 664 571 833 636 767 l 858 675 b 461 1008 838 869 706 1008 b 92 711 229 1008 92 888 b 442 417 92 543 189 474 b 661 267 626 375 661 335 b 496 153 661 192 600 153 b 285 335 368 153 301 218 l 72 325 b 493 -22 88 114 238 -22 z "},"Є":{"ha":1056,"x_min":0,"x_max":0,"o":"m 538 -22 b 1006 353 792 -22 958 118 l 782 353 b 538 156 747 228 663 156 b 281 411 394 156 303 249 l 599 411 l 599 574 l 281 574 b 538 831 303 736 394 831 b 782 631 663 831 747 758 l 1006 631 b 538 1008 960 868 792 1008 b 58 492 238 1008 58 811 b 538 -22 58 175 238 -22 z "},"Э":{"ha":1056,"x_min":0,"x_max":0,"o":"m 517 -22 b 997 492 817 -22 997 175 b 517 1008 997 811 817 1008 b 50 631 263 1008 96 868 l 274 631 b 517 831 307 758 393 831 b 775 574 661 831 753 736 l 457 574 l 457 411 l 775 411 b 517 156 753 249 661 156 b 274 353 393 156 307 228 l 50 353 b 517 -22 96 118 263 -22 z "},"І":{"ha":422,"x_min":0,"x_max":0,"o":"m 108 0 l 319 0 l 319 986 l 108 986 z "},"Ї":{"ha":417,"x_min":0,"x_max":0,"o":"m -50 1082 l 149 1082 l 149 1250 l -50 1250 z m 249 1082 l 447 1082 l 447 1250 l 249 1250 z m 100 0 l 311 0 l 311 986 l 100 986 z "},"Ј":{"ha":871,"x_min":0,"x_max":0,"o":"m 429 -22 b 789 354 644 -22 789 125 l 789 986 l 578 986 l 578 354 b 429 156 578 219 522 156 b 281 361 338 156 282 221 l 68 351 b 429 -22 71 135 200 -22 z "},"Ћ":{"ha":1088,"x_min":0,"x_max":0,"o":"m 15 808 l 260 808 l 260 0 l 471 0 l 471 303 b 669 482 471 414 549 482 b 829 303 775 482 829 418 l 829 0 l 1040 0 l 1040 354 b 724 656 1040 539 924 656 b 471 535 613 656 519 610 l 471 808 l 751 808 l 751 986 l 15 986 z "},"Ю":{"ha":1464,"x_min":0,"x_max":0,"o":"m 103 0 l 314 0 l 314 404 l 450 404 b 925 -22 481 138 654 -22 b 1406 492 1225 -22 1406 174 b 925 1008 1406 810 1225 1008 b 450 582 654 1008 482 847 l 314 582 l 314 986 l 103 986 z m 925 156 b 663 492 760 156 663 278 b 925 831 663 706 760 831 b 1188 492 1090 831 1188 706 b 925 156 1188 278 1090 156 z "},"Я":{"ha":985,"x_min":0,"x_max":0,"o":"m 882 0 l 882 986 l 486 986 b 108 674 246 986 108 872 b 290 400 108 547 169 443 l 71 0 l 299 0 l 490 363 l 671 363 l 671 0 z m 671 538 l 499 538 b 324 672 392 538 324 583 b 499 808 324 761 392 808 l 671 808 z "},"Ђ":{"ha":1096,"x_min":0,"x_max":0,"o":"m 260 0 l 471 0 l 471 294 b 667 482 471 410 546 482 b 826 332 764 482 826 424 b 633 178 826 238 757 178 l 633 0 b 1040 338 883 0 1040 129 b 719 656 1040 529 913 656 b 471 536 610 656 519 610 l 471 808 l 751 808 l 751 986 l 15 986 l 15 808 l 260 808 z "},"Ѣ":{"ha":1039,"x_min":0,"x_max":0,"o":"m 61 736 l 194 736 l 194 0 l 590 0 b 968 322 826 0 968 122 b 590 646 968 522 826 646 l 406 646 l 406 736 l 540 736 l 540 860 l 406 860 l 406 986 l 194 986 l 194 860 l 61 860 z m 406 468 l 578 468 b 751 322 688 468 751 418 b 578 178 751 226 689 178 l 406 178 z "},"Ѫ":{"ha":1036,"x_min":0,"x_max":0,"o":"m 17 0 l 229 0 l 318 285 b 415 363 338 350 364 363 l 418 363 l 418 0 l 619 0 l 619 363 l 621 363 b 717 285 672 363 699 350 l 807 0 l 1019 0 l 897 358 b 718 532 865 463 804 519 l 921 808 l 921 986 l 115 986 l 115 808 l 318 532 b 138 358 232 519 171 463 z m 328 808 l 710 808 l 518 547 z "},"Ѳ":{"ha":1078,"x_min":0,"x_max":0,"o":"m 539 -22 b 1019 492 839 -22 1019 174 b 539 1008 1019 810 839 1008 b 58 492 239 1008 58 810 b 539 -22 58 174 239 -22 z m 515 592 b 311 618 447 617 367 629 b 289 614 304 618 297 617 b 539 831 319 753 408 831 b 797 563 685 831 778 732 b 742 546 779 554 761 547 b 515 592 692 536 636 547 z m 539 156 b 279 425 392 156 299 253 b 342 444 300 435 321 440 b 518 414 383 450 451 439 b 772 369 646 371 717 360 b 790 374 778 371 783 372 b 539 156 758 233 669 156 z "},"Ѵ":{"ha":1074,"x_min":0,"x_max":0,"o":"m 383 0 l 631 0 l 881 694 b 1028 808 913 778 951 808 l 1047 808 l 1047 986 l 979 986 b 694 775 844 986 740 908 l 507 239 l 244 986 l 26 986 z "},"Җ":{"ha":1493,"x_min":0,"x_max":0,"o":"m 17 0 l 281 0 l 608 439 l 608 0 l 819 0 l 819 439 l 1147 0 l 1272 0 l 1272 -208 l 1483 -208 l 1483 131 l 1314 131 l 1042 493 l 1397 986 l 1133 986 l 819 550 l 819 986 l 608 986 l 608 550 l 294 986 l 31 986 l 385 493 z "},"Қ":{"ha":1028,"x_min":0,"x_max":0,"o":"m 103 0 l 314 0 l 314 481 l 693 0 l 800 0 l 800 -208 l 1011 -208 l 1011 131 l 833 131 l 544 493 l 924 986 l 682 986 l 314 506 l 314 986 l 103 986 z "},"Ң":{"ha":1096,"x_min":0,"x_max":0,"o":"m 103 0 l 314 0 l 314 407 l 688 407 l 688 0 l 810 0 l 810 -208 l 1021 -208 l 1021 131 l 899 131 l 899 986 l 688 986 l 688 585 l 314 585 l 314 986 l 103 986 z "},"Ү":{"ha":876,"x_min":0,"x_max":0,"o":"m 333 0 l 544 0 l 544 383 l 886 986 l 653 986 l 439 589 l 224 986 l -10 986 l 333 383 z "},"Ұ":{"ha":972,"x_min":0,"x_max":0,"o":"m 169 258 l 339 258 l 339 0 l 550 0 l 550 258 l 808 258 l 808 435 l 581 435 l 893 986 l 660 986 l 444 589 l 229 986 l -4 986 l 310 435 l 169 435 z "},"Ҳ":{"ha":1049,"x_min":0,"x_max":0,"o":"m 17 0 l 263 0 l 476 338 l 693 0 l 821 0 l 821 -208 l 1032 -208 l 1032 131 l 850 131 l 603 497 l 935 986 l 689 986 l 479 654 l 264 986 l 19 986 l 351 494 z "},"Ҷ":{"ha":1029,"x_min":0,"x_max":0,"o":"m 619 0 l 743 0 l 743 -208 l 954 -208 l 954 131 l 831 131 l 831 986 l 619 986 l 619 683 b 421 504 619 572 542 504 b 261 683 315 504 261 568 l 261 986 l 50 986 l 50 632 b 365 331 50 447 167 331 b 619 451 476 331 569 376 z "},"Һ":{"ha":933,"x_min":0,"x_max":0,"o":"m 314 986 l 103 986 l 103 0 l 314 0 l 314 303 b 513 482 314 414 392 482 b 672 303 618 482 672 418 l 672 0 l 883 0 l 883 354 b 567 656 883 539 767 656 b 314 535 457 656 364 610 z "},"Ӏ":{"ha":417,"x_min":0,"x_max":0,"o":"m 103 0 l 314 0 l 314 986 l 103 986 z "},"Ә":{"ha":1051,"x_min":0,"x_max":0,"o":"m 993 493 b 517 1008 993 822 796 1008 b 86 696 303 1008 147 888 l 308 683 b 515 831 349 779 428 831 b 774 561 654 831 754 733 l 58 561 l 58 483 b 517 -22 58 149 274 -22 b 993 493 778 -22 993 154 z m 519 156 b 285 396 393 156 310 229 l 772 396 b 519 156 750 238 657 156 z "},"Ӣ":{"ha":1042,"x_min":0,"x_max":0,"o":"m 304 1085 l 721 1085 l 721 1238 l 304 1238 z m 939 0 l 939 986 l 707 986 l 314 306 l 314 986 l 103 986 l 103 0 l 339 0 l 728 657 l 728 0 z "},"Ө":{"ha":1078,"x_min":0,"x_max":0,"o":"m 539 -22 b 1019 492 839 -22 1019 174 b 539 1008 1019 810 839 1008 b 58 492 239 1008 58 810 b 539 -22 58 174 239 -22 z m 539 831 b 794 582 679 831 771 740 l 282 582 b 539 831 307 740 399 831 z m 539 156 b 282 404 397 156 306 246 l 796 404 b 539 156 771 246 679 156 z "},"Ӯ":{"ha":850,"x_min":0,"x_max":0,"o":"m 219 1085 l 635 1085 l 635 1238 l 219 1238 z m 147 0 l 314 0 b 519 138 421 0 486 43 l 824 986 l 607 986 l 428 468 l 244 986 l 26 986 l 292 288 l 367 288 l 342 221 b 258 172 331 186 304 172 l 147 172 z "},"а":{"ha":825,"x_min":0,"x_max":0,"o":"m 313 -17 b 569 114 440 -17 532 35 b 733 -8 588 19 656 -8 b 807 0 761 -8 794 -4 l 807 143 l 786 143 b 744 196 758 143 744 154 l 744 450 b 410 761 744 653 632 761 b 64 513 215 761 92 676 l 274 503 b 410 610 288 572 331 610 b 536 464 492 610 536 561 l 296 417 b 51 186 133 383 51 317 b 313 -17 51 58 157 -17 z m 363 126 b 265 206 299 126 265 156 b 367 297 265 254 299 283 l 536 333 l 536 297 b 363 126 536 190 467 126 z "},"б":{"ha":888,"x_min":0,"x_max":0,"o":"m 447 -22 b 829 331 676 -22 829 114 b 465 679 829 540 686 679 b 243 575 371 679 292 642 b 440 803 257 708 326 749 b 603 1068 560 860 603 940 l 426 1067 b 313 919 426 993 403 960 b 58 440 133 840 58 707 b 156 106 58 293 92 178 b 447 -22 232 14 338 -22 z m 449 138 b 279 331 346 138 276 217 b 454 518 281 444 353 518 b 615 331 550 518 615 442 b 449 138 615 217 547 138 z "},"в":{"ha":860,"x_min":0,"x_max":0,"o":"m 92 0 l 471 0 b 782 211 674 0 782 76 b 578 385 782 314 710 376 b 751 538 686 392 751 447 b 431 744 751 672 639 744 l 92 744 z m 301 440 l 301 594 l 426 594 b 539 518 496 594 539 567 b 426 440 539 469 496 440 z m 301 150 l 301 315 l 458 315 b 569 229 529 315 569 283 b 458 150 569 179 528 150 z "},"г":{"ha":692,"x_min":0,"x_max":0,"o":"m 92 0 l 300 0 l 300 589 l 654 589 l 654 744 l 92 744 z "},"ѓ":{"ha":692,"x_min":0,"x_max":0,"o":"m 278 821 l 438 821 l 563 1026 l 360 1026 z m 92 0 l 300 0 l 300 589 l 654 589 l 654 744 l 92 744 z "},"ґ":{"ha":649,"x_min":0,"x_max":0,"o":"m 92 0 l 300 0 l 300 589 l 619 589 l 619 961 l 410 961 l 410 744 l 92 744 z "},"ғ":{"ha":757,"x_min":0,"x_max":0,"o":"m 142 0 l 350 0 l 350 275 l 547 275 l 547 431 l 350 431 l 350 589 l 706 589 l 706 744 l 142 744 l 142 431 l 64 431 l 64 275 l 142 275 z "},"д":{"ha":1029,"x_min":0,"x_max":0,"o":"m 50 -208 l 258 -208 l 258 0 l 771 0 l 771 -208 l 979 -208 l 979 154 l 860 154 l 860 744 l 272 744 l 206 288 b 103 154 192 196 161 154 l 50 154 z m 399 281 l 439 589 l 651 589 l 651 154 l 360 154 b 399 281 379 188 392 231 z "},"е":{"ha":840,"x_min":0,"x_max":0,"o":"m 426 -17 b 779 219 606 -17 739 71 l 569 232 b 431 142 550 171 500 142 b 267 317 335 142 272 199 l 790 317 l 790 358 b 425 761 790 608 646 761 b 51 372 199 761 51 607 b 426 -17 51 138 199 -17 z m 267 444 b 425 607 278 547 338 607 b 576 444 511 607 571 553 z "},"ѐ":{"ha":840,"x_min":0,"x_max":0,"o":"m 363 818 l 522 818 l 440 1022 l 238 1022 z m 426 -17 b 779 219 606 -17 739 71 l 569 232 b 431 142 550 171 500 142 b 267 317 335 142 272 199 l 790 317 l 790 358 b 425 761 790 608 646 761 b 51 372 199 761 51 607 b 426 -17 51 138 199 -17 z m 267 444 b 425 607 278 547 338 607 b 576 444 511 607 571 553 z "},"ё":{"ha":840,"x_min":0,"x_max":0,"o":"m 181 829 l 379 829 l 379 997 l 181 997 z m 479 829 l 678 829 l 678 997 l 479 997 z m 426 -17 b 779 219 606 -17 739 71 l 569 232 b 431 142 550 171 500 142 b 267 317 335 142 272 199 l 790 317 l 790 358 b 425 761 790 608 646 761 b 51 372 199 761 51 607 b 426 -17 51 138 199 -17 z m 267 444 b 425 607 278 547 338 607 b 576 444 511 607 571 553 z "},"ж":{"ha":1376,"x_min":0,"x_max":0,"o":"m 64 0 l 321 0 l 585 340 l 585 0 l 793 0 l 793 338 l 1057 0 l 1313 0 l 1010 372 l 1299 744 l 1043 744 l 793 408 l 793 744 l 585 744 l 585 406 l 335 744 l 78 744 l 365 372 z "},"з":{"ha":775,"x_min":0,"x_max":0,"o":"m 393 -17 b 728 203 599 -17 728 68 b 539 399 728 299 658 371 b 706 551 644 424 706 479 b 392 761 706 681 583 761 b 74 556 210 761 86 685 l 285 549 b 388 636 289 604 328 636 b 490 551 451 636 490 604 b 388 454 490 489 451 454 l 325 456 l 325 331 l 388 332 b 515 226 465 332 515 292 b 390 138 515 172 467 138 b 260 238 314 138 264 176 l 47 232 b 393 -17 54 76 186 -17 z "},"и":{"ha":828,"x_min":0,"x_max":0,"o":"m 92 0 l 292 0 l 528 428 l 528 0 l 736 0 l 736 744 l 542 744 l 300 304 l 300 744 l 92 744 z "},"й":{"ha":828,"x_min":0,"x_max":0,"o":"m 411 822 b 628 1026 540 822 622 896 l 507 1026 b 411 936 501 963 467 936 b 314 1026 356 936 321 963 l 193 1026 b 411 822 199 896 282 822 z m 92 0 l 292 0 l 528 428 l 528 0 l 736 0 l 736 744 l 542 744 l 300 304 l 300 744 l 92 744 z "},"ѝ":{"ha":828,"x_min":0,"x_max":0,"o":"m 344 821 l 504 821 l 422 1025 l 219 1025 z m 92 0 l 292 0 l 528 428 l 528 0 l 736 0 l 736 744 l 542 744 l 300 304 l 300 744 l 92 744 z "},"к":{"ha":904,"x_min":0,"x_max":0,"o":"m 92 0 l 301 0 l 301 358 l 593 0 l 842 0 l 529 372 l 825 744 l 579 744 l 301 388 l 301 744 l 92 744 z "},"ќ":{"ha":904,"x_min":0,"x_max":0,"o":"m 344 821 l 504 821 l 629 1026 l 426 1026 z m 92 0 l 301 0 l 301 358 l 593 0 l 842 0 l 529 372 l 825 744 l 579 744 l 301 388 l 301 744 l 92 744 z "},"л":{"ha":946,"x_min":0,"x_max":0,"o":"m 64 0 l 196 0 b 389 207 310 0 375 71 l 429 589 l 646 589 l 646 0 l 854 0 l 854 744 l 240 744 l 188 264 b 107 164 181 199 156 164 l 64 164 z "},"м":{"ha":1042,"x_min":0,"x_max":0,"o":"m 92 0 l 300 0 l 300 408 l 447 0 l 594 0 l 742 408 l 742 0 l 950 0 l 950 744 l 704 744 l 522 189 l 338 744 l 92 744 z "},"н":{"ha":835,"x_min":0,"x_max":0,"o":"m 92 0 l 300 0 l 300 293 l 536 293 l 536 0 l 744 0 l 744 744 l 536 744 l 536 449 l 300 449 l 300 746 l 92 746 z "},"о":{"ha":858,"x_min":0,"x_max":0,"o":"m 429 -17 b 807 372 657 -17 807 136 b 429 761 807 607 657 761 b 51 372 201 761 51 607 b 429 -17 51 136 201 -17 z m 429 143 b 265 372 325 143 265 228 b 429 601 265 517 325 601 b 593 372 533 601 593 517 b 429 143 593 228 533 143 z "},"п":{"ha":854,"x_min":0,"x_max":0,"o":"m 92 0 l 300 0 l 300 589 l 554 589 l 554 0 l 763 0 l 763 744 l 92 744 z "},"р":{"ha":881,"x_min":0,"x_max":0,"o":"m 92 -208 l 300 -208 l 300 104 b 514 -17 340 29 421 -17 b 829 372 722 -17 829 154 b 515 761 829 590 724 761 b 294 633 418 761 338 717 l 292 744 l 92 744 z m 457 143 b 300 372 358 143 300 222 b 457 601 300 522 360 601 b 615 372 554 601 615 514 b 457 143 615 231 554 143 z "},"с":{"ha":831,"x_min":0,"x_max":0,"o":"m 429 -17 b 793 283 632 -17 772 100 l 578 292 b 429 143 567 190 510 143 b 265 372 325 143 265 228 b 429 600 265 517 325 600 b 578 460 508 600 565 551 l 793 469 b 429 761 771 653 628 761 b 51 372 200 761 51 607 b 429 -17 51 138 200 -17 z "},"т":{"ha":814,"x_min":0,"x_max":0,"o":"m 304 0 l 514 0 l 514 589 l 763 589 l 763 744 l 54 744 l 54 589 l 304 589 z "},"у":{"ha":814,"x_min":0,"x_max":0,"o":"m 153 -208 l 294 -208 b 499 -71 407 -208 465 -169 l 785 744 l 572 744 l 413 232 l 242 744 l 29 744 l 290 38 l 347 38 l 332 -6 b 251 -53 318 -42 299 -53 l 153 -53 z "},"ў":{"ha":814,"x_min":0,"x_max":0,"o":"m 404 822 b 621 1026 533 822 615 896 l 500 1026 b 404 936 494 963 460 936 b 307 1026 349 936 314 963 l 186 1026 b 404 822 192 896 275 822 z m 153 -208 l 294 -208 b 499 -71 407 -208 465 -169 l 785 744 l 572 744 l 413 232 l 242 744 l 29 744 l 290 38 l 347 38 l 332 -6 b 251 -53 318 -42 299 -53 l 153 -53 z "},"ф":{"ha":1004,"x_min":0,"x_max":0,"o":"m 410 -211 l 596 -211 l 596 35 b 953 376 819 63 953 190 b 596 718 953 563 819 690 l 596 986 l 410 986 l 410 718 b 51 376 186 690 51 564 b 410 35 51 189 186 63 z m 261 376 b 410 549 261 464 315 525 l 410 204 b 261 376 315 228 261 289 z m 743 376 b 596 204 743 289 690 228 l 596 549 b 743 376 690 525 743 464 z "},"х":{"ha":903,"x_min":0,"x_max":0,"o":"m 64 0 l 289 0 l 454 253 l 618 0 l 839 0 l 575 376 l 832 744 l 606 744 l 451 506 l 292 744 l 71 744 l 329 378 z "},"ц":{"ha":986,"x_min":0,"x_max":0,"o":"m 700 -211 l 910 -211 l 910 154 l 763 154 l 763 744 l 554 744 l 554 156 l 300 156 l 300 744 l 92 744 l 92 0 l 700 0 z "},"ч":{"ha":900,"x_min":0,"x_max":0,"o":"m 600 0 l 810 0 l 810 744 l 600 744 l 600 578 b 435 386 600 457 539 386 b 300 578 350 386 300 457 l 300 744 l 92 744 l 92 528 b 379 222 92 340 203 222 b 600 339 476 222 557 267 z "},"ш":{"ha":1194,"x_min":0,"x_max":0,"o":"m 92 0 l 1103 0 l 1103 744 l 894 744 l 894 154 l 697 154 l 697 744 l 499 744 l 499 154 l 300 154 l 300 744 l 92 744 z "},"щ":{"ha":1315,"x_min":0,"x_max":0,"o":"m 92 0 l 1043 0 l 1043 -211 l 1253 -211 l 1253 154 l 1103 154 l 1103 744 l 894 744 l 894 154 l 697 154 l 697 744 l 499 744 l 499 154 l 300 154 l 300 744 l 92 744 z "},"џ":{"ha":854,"x_min":0,"x_max":0,"o":"m 324 -211 l 532 -211 l 532 0 l 763 0 l 763 744 l 554 744 l 554 156 l 300 156 l 300 744 l 92 744 l 92 0 l 324 0 z "},"ь":{"ha":847,"x_min":0,"x_max":0,"o":"m 92 0 l 450 0 b 796 235 678 0 796 81 b 450 476 796 393 678 476 l 300 476 l 300 744 l 92 744 z m 300 144 l 300 328 l 432 328 b 582 235 533 328 582 299 b 432 144 582 172 533 144 z "},"ы":{"ha":1210,"x_min":0,"x_max":0,"o":"m 910 0 l 1118 0 l 1118 744 l 910 744 z m 92 0 l 450 0 b 796 235 678 0 796 81 b 450 476 796 393 678 476 l 300 476 l 300 744 l 92 744 z m 300 144 l 300 328 l 432 328 b 582 235 533 328 582 299 b 432 144 582 172 533 144 z "},"ъ":{"ha":935,"x_min":0,"x_max":0,"o":"m 179 0 l 539 0 b 883 235 765 0 883 81 b 539 476 883 393 765 476 l 388 476 l 388 744 l 64 744 l 64 589 l 179 589 z m 388 144 l 388 328 l 519 328 b 669 235 621 328 669 299 b 519 144 669 172 621 144 z "},"љ":{"ha":1403,"x_min":0,"x_max":0,"o":"m 64 0 l 196 0 b 389 207 310 0 375 71 l 429 589 l 646 589 l 646 0 l 1006 0 b 1351 235 1233 0 1351 81 b 1006 476 1351 393 1233 476 l 854 476 l 854 744 l 240 744 l 188 264 b 107 164 181 199 156 164 l 64 164 z m 854 144 l 854 328 l 988 328 b 1138 235 1089 328 1138 299 b 988 144 1138 172 1089 144 z "},"њ":{"ha":1292,"x_min":0,"x_max":0,"o":"m 92 0 l 300 0 l 300 322 l 535 322 l 535 0 l 894 0 b 1240 235 1121 0 1240 81 b 894 476 1240 393 1121 476 l 743 476 l 743 744 l 535 744 l 535 478 l 300 478 l 300 746 l 92 746 z m 743 144 l 743 328 l 876 328 b 1026 235 976 328 1026 299 b 876 144 1026 172 976 144 z "},"ѕ":{"ha":792,"x_min":0,"x_max":0,"o":"m 410 -17 b 739 208 613 -17 739 64 b 422 439 739 338 657 404 b 289 531 319 454 289 476 b 403 614 289 581 329 614 b 532 497 489 614 529 567 l 740 506 b 406 761 729 651 629 761 b 74 522 185 761 74 665 b 376 293 74 393 143 333 b 525 206 500 272 525 251 b 410 131 525 156 485 131 b 263 242 315 131 275 171 l 51 235 b 410 -17 63 89 169 -17 z "},"є":{"ha":846,"x_min":0,"x_max":0,"o":"m 429 -17 b 794 269 617 -17 753 88 l 575 269 b 429 143 554 188 501 143 b 271 306 343 143 288 201 l 454 306 l 454 439 l 271 439 b 429 600 288 542 343 600 b 576 469 506 600 556 554 l 796 469 b 429 761 756 653 619 761 b 51 372 201 761 51 607 b 429 -17 51 136 201 -17 z "},"э":{"ha":846,"x_min":0,"x_max":0,"o":"m 417 -17 b 796 372 646 -17 796 136 b 417 761 796 607 646 761 b 51 469 228 761 92 653 l 269 469 b 417 600 292 554 342 600 b 575 439 504 600 560 542 l 392 439 l 392 306 l 575 306 b 417 143 560 201 504 143 b 271 269 344 143 293 188 l 53 269 b 417 -17 93 88 229 -17 z "},"і":{"ha":390,"x_min":0,"x_max":0,"o":"m 88 836 l 303 836 l 303 1003 l 88 1003 z m 92 0 l 300 0 l 300 744 l 92 744 z "},"ї":{"ha":390,"x_min":0,"x_max":0,"o":"m -53 832 l 146 832 l 146 1000 l -53 1000 z m 244 832 l 444 832 l 444 1000 l 244 1000 z m 92 0 l 300 0 l 300 744 l 92 744 z "},"ј":{"ha":460,"x_min":0,"x_max":0,"o":"m 157 836 l 372 836 l 372 1003 l 157 1003 z m -4 -208 l 121 -208 b 369 25 303 -208 369 -142 l 369 744 l 160 744 l 160 31 b 78 -53 160 -35 132 -53 l -4 -53 z "},"ћ":{"ha":849,"x_min":0,"x_max":0,"o":"m 92 0 l 300 0 l 300 424 b 436 596 300 536 350 596 b 549 429 517 596 549 539 l 549 0 l 757 0 l 757 479 b 506 761 757 644 672 761 b 300 653 417 761 340 726 l 300 800 l 481 800 l 481 921 l 300 921 l 300 986 l 92 986 l 92 921 l -3 921 l -3 800 l 92 800 z "},"ю":{"ha":1196,"x_min":0,"x_max":0,"o":"m 92 0 l 300 0 l 300 294 l 394 294 b 767 -17 424 104 565 -17 b 1144 372 994 -17 1144 136 b 767 761 1144 607 994 761 b 394 450 565 761 424 640 l 300 450 l 300 744 l 92 744 z m 767 143 b 604 372 663 143 604 228 b 767 601 604 517 663 601 b 931 372 871 601 931 517 b 767 143 931 228 871 143 z "},"я":{"ha":868,"x_min":0,"x_max":0,"o":"m 92 0 l 306 0 l 456 269 l 569 269 l 569 0 l 776 0 l 776 744 l 450 744 b 119 508 233 744 119 663 b 267 300 119 417 174 344 z m 450 414 b 329 506 374 414 329 447 b 450 599 329 565 374 599 l 569 599 l 569 414 z "},"ђ":{"ha":906,"x_min":0,"x_max":0,"o":"m 149 0 l 357 0 l 357 404 b 492 590 357 524 404 590 b 606 404 578 590 606 525 l 606 39 b 526 -53 606 -17 575 -53 l 479 -53 l 479 -208 l 568 -208 b 814 39 736 -208 814 -124 l 814 479 b 567 761 814 647 721 761 b 357 649 478 761 400 731 l 357 808 l 510 808 l 510 925 l 357 925 l 357 997 l 149 997 l 149 925 l 64 925 l 64 808 l 149 808 z "},"ѣ":{"ha":964,"x_min":0,"x_max":0,"o":"m 207 0 l 565 0 b 913 249 788 0 913 89 b 565 504 913 413 788 504 l 415 504 l 415 739 l 558 739 l 558 863 l 415 863 l 415 997 l 207 997 l 207 863 l 64 863 l 64 739 l 207 739 z m 415 144 l 415 356 l 549 356 b 697 249 643 356 697 317 b 549 144 697 181 643 144 z "},"ѫ":{"ha":1049,"x_min":0,"x_max":0,"o":"m 64 0 l 269 0 l 343 231 b 428 293 357 276 379 293 l 428 0 l 622 0 l 622 293 b 706 231 669 293 692 278 l 779 0 l 985 0 l 879 275 b 715 393 854 342 793 385 l 918 594 l 918 744 l 132 744 l 132 594 l 335 393 b 169 275 257 385 194 343 z m 328 594 l 722 594 l 525 400 z "},"ѳ":{"ha":858,"x_min":0,"x_max":0,"o":"m 429 -17 b 807 372 657 -17 807 136 b 429 761 807 607 657 761 b 51 372 201 761 51 607 b 429 -17 51 136 201 -17 z m 418 451 b 279 476 367 475 319 483 b 429 601 301 557 354 601 b 590 411 524 601 581 532 b 418 451 549 403 521 407 z m 429 143 b 269 318 339 143 282 207 b 290 325 276 322 283 324 b 426 300 328 331 369 325 b 576 257 500 269 543 258 b 429 143 551 183 501 143 z "},"ѵ":{"ha":890,"x_min":0,"x_max":0,"o":"m 301 0 l 543 0 l 724 492 b 847 589 747 558 789 589 l 861 589 l 861 744 l 801 744 b 531 536 675 744 576 674 l 422 208 l 243 744 l 29 744 z "},"җ":{"ha":1401,"x_min":0,"x_max":0,"o":"m 64 0 l 321 0 l 585 340 l 585 0 l 793 0 l 793 338 l 1057 0 l 1129 0 l 1129 -211 l 1338 -211 l 1338 104 l 1228 104 l 1010 372 l 1299 744 l 1043 744 l 793 408 l 793 744 l 585 744 l 585 406 l 335 744 l 78 744 l 365 372 z "},"қ":{"ha":944,"x_min":0,"x_max":0,"o":"m 92 0 l 301 0 l 301 358 l 593 0 l 674 0 l 674 -211 l 882 -211 l 882 104 l 754 104 l 529 372 l 825 744 l 579 744 l 301 388 l 301 744 l 92 744 z "},"ң":{"ha":961,"x_min":0,"x_max":0,"o":"m 92 0 l 300 0 l 300 293 l 536 293 l 536 0 l 663 0 l 663 -211 l 871 -211 l 871 104 l 744 104 l 744 744 l 536 744 l 536 449 l 300 449 l 300 746 l 92 746 z "},"ү":{"ha":846,"x_min":0,"x_max":0,"o":"m 318 0 l 318 -208 l 526 -208 l 526 0 l 817 744 l 601 744 l 422 217 l 243 744 l 29 744 z "},"ұ":{"ha":846,"x_min":0,"x_max":0,"o":"m 157 -78 l 318 -78 l 318 -208 l 526 -208 l 526 -78 l 689 -78 l 689 78 l 557 78 l 817 744 l 601 744 l 422 217 l 243 744 l 29 744 l 288 78 l 157 78 z "},"ҳ":{"ha":963,"x_min":0,"x_max":0,"o":"m 64 0 l 289 0 l 454 253 l 618 0 l 690 0 l 690 -211 l 899 -211 l 899 104 l 767 104 l 575 376 l 832 744 l 606 744 l 451 506 l 292 744 l 71 744 l 329 378 z "},"ҷ":{"ha":1003,"x_min":0,"x_max":0,"o":"m 600 0 l 724 0 l 724 -208 l 932 -208 l 932 104 l 810 104 l 810 744 l 600 744 l 600 578 b 435 386 600 457 539 386 b 300 578 350 386 300 457 l 300 744 l 92 744 l 92 528 b 379 222 92 340 203 222 b 600 339 476 222 557 267 z "},"һ":{"ha":849,"x_min":0,"x_max":0,"o":"m 92 0 l 300 0 l 300 424 b 436 596 300 536 350 596 b 549 429 517 596 549 539 l 549 0 l 757 0 l 757 479 b 506 761 757 644 672 761 b 300 653 417 761 340 726 l 300 986 l 92 986 z "},"ӏ":{"ha":414,"x_min":0,"x_max":0,"o":"m 103 0 l 311 0 l 311 986 l 103 986 z "},"ә":{"ha":840,"x_min":0,"x_max":0,"o":"m 414 761 b 61 525 235 761 101 674 l 271 513 b 411 603 292 574 340 603 b 574 428 507 603 569 546 l 51 428 l 51 386 b 417 -17 51 136 194 -17 b 790 372 642 -17 790 138 b 414 761 790 607 642 761 z m 574 300 b 417 138 563 197 503 138 b 264 300 329 138 269 192 z "},"ӣ":{"ha":828,"x_min":0,"x_max":0,"o":"m 207 843 l 622 843 l 622 996 l 207 996 z m 92 0 l 292 0 l 528 428 l 528 0 l 736 0 l 736 744 l 542 744 l 300 304 l 300 744 l 92 744 z "},"ө":{"ha":861,"x_min":0,"x_max":0,"o":"m 426 -17 b 804 372 654 -17 804 136 b 426 761 804 607 654 761 b 49 372 199 761 49 607 b 426 -17 49 136 199 -17 z m 426 601 b 583 450 511 601 565 546 l 269 450 b 426 601 288 546 343 601 z m 426 143 b 269 294 343 143 288 197 l 583 294 b 426 143 565 197 511 143 z "},"ӯ":{"ha":814,"x_min":0,"x_max":0,"o":"m 199 843 l 614 843 l 614 996 l 199 996 z m 153 -208 l 294 -208 b 499 -71 407 -208 465 -169 l 785 744 l 572 744 l 413 232 l 242 744 l 29 744 l 290 38 l 347 38 l 332 -6 b 251 -53 318 -42 299 -53 l 153 -53 z "},"Λ":{"ha":1001,"x_min":0,"x_max":0,"o":"m 26 0 l 239 0 l 500 764 l 763 0 l 975 0 l 619 986 l 382 986 z "},"Ω":{"ha":1067,"x_min":0,"x_max":0,"o":"m 60 0 l 476 0 l 476 178 b 274 506 363 185 274 326 b 533 831 274 704 371 831 b 793 506 696 831 793 704 b 590 178 793 326 706 185 l 590 0 l 1007 0 l 1007 178 l 803 174 b 1008 546 925 233 1008 367 b 533 1008 1008 810 825 1008 b 58 546 242 1008 58 810 b 264 174 58 367 143 233 l 60 178 z "},"λ":{"ha":888,"x_min":0,"x_max":0,"o":"m 26 0 l 240 0 l 429 440 l 528 197 b 754 -1 583 61 636 -1 l 861 0 l 861 154 l 813 154 b 721 244 760 154 747 183 l 501 789 b 271 986 449 921 390 986 l 139 986 l 139 832 l 210 832 b 308 740 265 832 283 803 l 328 692 z "},"μ":{"ha":843,"x_min":0,"x_max":0,"o":"m 92 -208 l 300 -208 l 300 -15 b 336 -17 313 -17 324 -17 b 560 121 446 -17 522 29 l 563 0 l 753 0 l 753 744 l 544 744 l 544 324 b 410 149 544 206 494 149 b 300 314 335 149 300 199 l 300 744 l 92 744 z "},"π":{"ha":929,"x_min":0,"x_max":0,"o":"m 199 0 l 372 0 l 372 589 l 582 589 l 582 246 b 832 0 582 86 660 0 l 890 0 l 890 156 l 840 156 b 756 246 786 156 756 190 l 756 589 l 893 589 l 893 744 l 57 744 l 57 589 l 199 589 z "},"⓿":{"ha":1128,"x_min":0,"x_max":0,"o":"m 564 -17 b 1076 497 847 -17 1076 213 b 564 1008 1076 779 847 1008 b 51 497 281 1008 51 779 b 564 -17 51 213 281 -17 z m 567 211 b 325 492 417 211 325 317 b 567 771 325 668 415 771 b 807 492 717 771 807 668 b 567 211 807 317 715 211 z m 472 408 l 617 650 b 567 664 603 660 586 664 b 463 492 494 664 463 610 b 472 408 463 460 465 432 z m 567 318 b 671 492 636 318 671 375 b 661 575 671 525 667 553 l 517 333 b 567 318 531 324 547 318 z "},"❶":{"ha":1128,"x_min":0,"x_max":0,"o":"m 564 -17 b 1076 497 847 -17 1076 213 b 564 1008 1076 779 847 1008 b 51 497 281 1008 51 779 b 564 -17 51 213 281 -17 z m 529 222 l 529 532 l 385 531 l 385 633 l 424 633 b 553 760 508 633 553 682 l 665 760 l 665 222 z "},"❷":{"ha":1128,"x_min":0,"x_max":0,"o":"m 564 -17 b 1076 497 847 -17 1076 213 b 564 1008 1076 779 847 1008 b 51 497 281 1008 51 779 b 564 -17 51 213 281 -17 z m 374 222 b 519 493 374 372 399 433 l 585 526 b 646 604 631 549 646 564 b 576 665 646 640 621 665 b 493 586 526 665 501 643 l 368 593 b 575 771 381 707 454 771 b 771 607 708 771 771 703 b 643 435 771 521 726 476 l 581 404 b 515 338 531 379 515 357 l 772 338 l 772 222 z "},"❸":{"ha":1128,"x_min":0,"x_max":0,"o":"m 564 -17 b 1076 497 847 -17 1076 213 b 564 1008 1076 779 847 1008 b 51 497 281 1008 51 779 b 564 -17 51 213 281 -17 z m 571 211 b 349 369 406 211 357 264 l 485 375 b 571 317 488 339 514 317 b 656 383 624 317 656 340 b 565 450 656 424 626 450 l 522 450 l 522 544 l 565 544 b 636 601 608 544 636 565 b 564 665 636 640 615 665 b 489 606 521 665 493 643 l 354 613 b 564 771 365 714 429 771 b 769 626 710 771 769 713 b 668 504 769 561 736 521 b 792 375 756 488 792 443 b 571 211 792 279 719 211 z "},"❹":{"ha":1128,"x_min":0,"x_max":0,"o":"m 564 -17 b 1076 497 847 -17 1076 213 b 564 1008 1076 779 847 1008 b 51 497 281 1008 51 779 b 564 -17 51 213 281 -17 z m 569 222 l 569 328 l 315 328 l 315 426 l 557 760 l 706 760 l 706 435 l 774 435 l 774 328 l 706 328 l 706 222 z m 444 435 l 569 435 l 569 596 z "},"❺":{"ha":1128,"x_min":0,"x_max":0,"o":"m 564 -17 b 1076 497 847 -17 1076 213 b 564 1008 1076 779 847 1008 b 51 497 281 1008 51 779 b 564 -17 51 213 281 -17 z m 568 211 b 354 363 428 211 363 268 l 489 369 b 567 317 496 335 524 317 b 650 403 624 317 650 351 b 574 488 650 454 621 488 b 492 443 529 488 507 469 l 364 443 l 404 760 l 753 760 l 753 653 l 519 653 l 506 547 b 606 579 526 567 558 579 b 786 403 728 579 786 510 b 568 211 786 286 708 211 z "},"❻":{"ha":1128,"x_min":0,"x_max":0,"o":"m 564 -17 b 1076 497 847 -17 1076 213 b 564 1008 1076 779 847 1008 b 51 497 281 1008 51 779 b 564 -17 51 213 281 -17 z m 571 211 b 346 469 431 211 346 294 b 593 771 346 649 424 771 b 792 635 707 771 774 722 l 668 619 b 589 668 663 650 632 668 b 479 540 525 668 486 625 b 594 588 499 565 536 588 b 792 401 715 588 792 524 b 571 211 792 282 704 211 z m 574 317 b 665 404 629 317 665 351 b 574 492 665 461 631 492 b 485 406 522 492 486 460 b 574 317 483 351 519 317 z "},"❼":{"ha":1128,"x_min":0,"x_max":0,"o":"m 564 -17 b 1076 497 847 -17 1076 213 b 564 1008 1076 779 847 1008 b 51 497 281 1008 51 779 b 564 -17 51 213 281 -17 z m 472 222 b 625 646 472 375 531 525 l 382 646 l 382 761 l 765 761 l 765 658 b 608 222 657 529 608 403 z "},"❽":{"ha":1128,"x_min":0,"x_max":0,"o":"m 564 -17 b 1076 497 847 -17 1076 213 b 564 1008 1076 779 847 1008 b 51 497 281 1008 51 779 b 564 -17 51 213 281 -17 z m 571 211 b 344 365 410 211 344 271 b 469 513 344 439 388 488 b 368 633 404 532 368 565 b 571 771 368 719 426 771 b 774 633 717 771 774 719 b 672 513 774 565 738 532 b 797 365 753 486 797 438 b 571 211 797 271 732 211 z m 571 551 b 642 610 614 551 642 569 b 571 665 642 646 618 665 b 500 610 524 665 500 646 b 571 551 500 569 528 551 z m 571 317 b 661 386 629 317 661 338 b 571 463 661 428 629 463 b 481 386 513 463 481 428 b 571 317 481 338 513 317 z "},"❾":{"ha":1128,"x_min":0,"x_max":0,"o":"m 564 -17 b 1076 497 847 -17 1076 213 b 564 1008 1076 779 847 1008 b 51 497 281 1008 51 779 b 564 -17 51 213 281 -17 z m 574 771 b 797 513 714 771 797 688 b 550 211 797 333 719 211 b 353 347 436 211 369 260 l 475 363 b 554 314 481 332 511 314 b 664 442 618 314 657 357 b 549 394 644 417 607 394 b 351 581 428 394 351 458 b 574 771 351 700 439 771 z m 569 665 b 478 578 514 665 478 631 b 569 490 478 521 513 490 b 658 576 621 490 657 522 b 569 665 660 631 624 665 z "},"⓪":{"ha":1168,"x_min":0,"x_max":0,"o":"m 583 -36 b 1117 497 878 -36 1117 201 b 583 1028 1117 790 878 1028 b 51 497 289 1028 51 790 b 583 -36 51 201 289 -36 z m 583 81 b 169 497 353 81 169 265 b 583 911 169 726 353 911 b 999 497 814 911 999 726 b 583 81 999 265 814 81 z m 588 211 b 828 492 736 211 828 317 b 588 771 828 668 738 771 b 346 492 436 771 346 668 b 588 211 346 317 438 211 z m 483 492 b 588 664 483 610 515 664 b 638 650 607 664 624 660 l 493 407 b 483 492 486 431 483 460 z m 588 318 b 538 333 568 318 551 324 l 682 578 b 692 492 689 554 692 525 b 588 318 692 375 657 318 z "},"①":{"ha":1168,"x_min":0,"x_max":0,"o":"m 583 -36 b 1117 497 878 -36 1117 201 b 583 1028 1117 790 878 1028 b 51 497 289 1028 51 790 b 583 -36 51 201 289 -36 z m 583 81 b 169 497 353 81 169 265 b 583 911 169 726 353 911 b 999 497 814 911 999 726 b 583 81 999 265 814 81 z m 544 222 l 681 222 l 681 760 l 569 760 b 439 633 569 682 524 633 l 401 633 l 401 531 l 544 532 z "},"②":{"ha":1168,"x_min":0,"x_max":0,"o":"m 583 -36 b 1117 497 878 -36 1117 201 b 583 1028 1117 790 878 1028 b 51 497 289 1028 51 790 b 583 -36 51 201 289 -36 z m 583 81 b 169 497 353 81 169 265 b 583 911 169 726 353 911 b 999 497 814 911 999 726 b 583 81 999 265 814 81 z m 386 222 l 786 222 l 786 338 l 529 338 b 594 404 529 357 544 379 l 657 435 b 783 607 739 476 783 521 b 589 771 783 703 722 771 b 382 593 468 771 394 707 l 506 586 b 590 665 514 643 540 665 b 658 604 635 665 658 640 b 599 526 658 564 644 549 l 533 493 b 386 222 413 433 386 372 z "},"③":{"ha":1168,"x_min":0,"x_max":0,"o":"m 583 -36 b 1117 497 878 -36 1117 201 b 583 1028 1117 790 878 1028 b 51 497 289 1028 51 790 b 583 -36 51 201 289 -36 z m 583 81 b 169 497 353 81 169 265 b 583 911 169 726 353 911 b 999 497 814 911 999 726 b 583 81 999 265 814 81 z m 588 211 b 808 375 736 211 808 279 b 685 504 808 443 772 488 b 786 626 753 521 786 561 b 581 771 786 713 726 771 b 371 613 444 771 382 714 l 506 606 b 581 665 510 643 538 665 b 651 601 632 665 651 640 b 582 544 651 565 625 544 l 539 544 l 539 450 l 582 450 b 672 383 643 450 672 424 b 588 317 672 340 640 317 b 501 375 531 317 504 339 l 365 369 b 588 211 374 264 422 211 z "},"④":{"ha":1168,"x_min":0,"x_max":0,"o":"m 583 -36 b 1117 497 878 -36 1117 201 b 583 1028 1117 790 878 1028 b 51 497 289 1028 51 790 b 583 -36 51 201 289 -36 z m 583 81 b 169 497 353 81 169 265 b 583 911 169 726 353 911 b 999 497 814 911 999 726 b 583 81 999 265 814 81 z m 585 222 l 721 222 l 721 328 l 789 328 l 789 435 l 721 435 l 721 760 l 572 760 l 331 426 l 331 328 l 585 328 z m 460 435 l 585 596 l 585 435 z "},"⑤":{"ha":1168,"x_min":0,"x_max":0,"o":"m 583 -36 b 1117 497 878 -36 1117 201 b 583 1028 1117 790 878 1028 b 51 497 289 1028 51 790 b 583 -36 51 201 289 -36 z m 583 81 b 169 497 353 81 169 265 b 583 911 169 726 353 911 b 999 497 814 911 999 726 b 583 81 999 265 814 81 z m 585 211 b 803 403 726 211 803 286 b 624 579 803 510 744 579 b 524 547 575 579 544 567 l 536 653 l 769 653 l 769 760 l 422 760 l 381 443 l 508 443 b 590 488 524 469 547 488 b 667 403 639 488 667 454 b 585 317 667 351 642 317 b 507 369 540 317 514 335 l 371 363 b 585 211 379 268 444 211 z "},"⑥":{"ha":1168,"x_min":0,"x_max":0,"o":"m 583 -36 b 1117 497 878 -36 1117 201 b 583 1028 1117 790 878 1028 b 51 497 289 1028 51 790 b 583 -36 51 201 289 -36 z m 583 81 b 169 497 353 81 169 265 b 583 911 169 726 353 911 b 999 497 814 911 999 726 b 583 81 999 265 814 81 z m 588 211 b 808 401 721 211 808 282 b 613 588 808 524 732 588 b 496 540 554 588 515 565 b 607 668 504 625 542 668 b 685 619 650 668 679 650 l 808 635 b 611 771 790 722 724 771 b 363 469 440 771 363 649 b 588 211 363 294 447 211 z m 590 317 b 501 406 536 317 500 351 b 590 492 503 460 539 492 b 682 404 647 492 682 461 b 590 317 682 351 647 317 z "},"⑦":{"ha":1168,"x_min":0,"x_max":0,"o":"m 583 -36 b 1117 497 878 -36 1117 201 b 583 1028 1117 790 878 1028 b 51 497 289 1028 51 790 b 583 -36 51 201 289 -36 z m 583 81 b 169 497 353 81 169 265 b 583 911 169 726 353 911 b 999 497 814 911 999 726 b 583 81 999 265 814 81 z m 489 222 l 624 222 b 781 658 624 403 674 529 l 781 761 l 399 761 l 399 646 l 640 646 b 489 222 546 525 489 375 z "},"⑧":{"ha":1168,"x_min":0,"x_max":0,"o":"m 583 -36 b 1117 497 878 -36 1117 201 b 583 1028 1117 790 878 1028 b 51 497 289 1028 51 790 b 583 -36 51 201 289 -36 z m 583 81 b 169 497 353 81 169 265 b 583 911 169 726 353 911 b 999 497 814 911 999 726 b 583 81 999 265 814 81 z m 588 211 b 814 365 749 211 814 271 b 689 513 814 438 769 486 b 790 633 753 532 790 565 b 588 771 790 719 732 771 b 383 633 442 771 383 719 b 486 513 383 565 421 532 b 361 365 403 488 361 439 b 588 211 361 271 425 211 z m 588 551 b 517 610 543 551 517 569 b 588 665 517 646 540 665 b 658 610 633 665 658 646 b 588 551 658 569 631 551 z m 588 317 b 497 386 528 317 497 338 b 588 463 497 428 528 463 b 676 386 646 463 676 428 b 588 317 676 338 646 317 z "},"⑨":{"ha":1168,"x_min":0,"x_max":0,"o":"m 583 -36 b 1117 497 878 -36 1117 201 b 583 1028 1117 790 878 1028 b 51 497 289 1028 51 790 b 583 -36 51 201 289 -36 z m 583 81 b 169 497 353 81 169 265 b 583 911 169 726 353 911 b 999 497 814 911 999 726 b 583 81 999 265 814 81 z m 593 771 b 372 581 460 771 372 700 b 569 394 372 458 449 394 b 685 442 628 394 665 417 b 575 314 678 357 639 314 b 496 363 532 314 501 332 l 372 347 b 571 211 390 260 457 211 b 818 513 740 211 818 333 b 593 771 818 688 733 771 z m 590 665 b 679 576 644 665 681 631 b 590 490 678 522 642 490 b 499 578 533 490 499 521 b 590 665 499 631 535 665 z "},"⁄":{"ha":228,"x_min":0,"x_max":0,"o":"m -278 0 l -150 0 l 506 986 l 378 986 z "},"½":{"ha":1175,"x_min":0,"x_max":0,"o":"m 171 449 l 308 449 l 308 986 l 196 986 b 67 860 196 908 151 860 l 28 860 l 28 757 l 171 758 z m 153 0 l 281 0 l 936 986 l 808 986 z m 718 0 l 1118 0 l 1118 115 l 861 115 b 926 182 861 135 875 157 l 989 213 b 1115 385 1071 254 1115 299 b 921 549 1115 481 1054 549 b 714 371 800 549 726 485 l 838 364 b 921 443 846 421 872 443 b 990 382 967 443 990 418 b 931 304 990 342 976 326 l 865 271 b 718 0 744 211 718 150 z "},"⅓":{"ha":1171,"x_min":0,"x_max":0,"o":"m 171 449 l 308 449 l 308 986 l 196 986 b 67 860 196 908 151 860 l 28 860 l 28 757 l 171 758 z m 153 0 l 281 0 l 936 986 l 808 986 z m 907 -11 b 1129 153 1056 -11 1129 57 b 1004 282 1129 221 1092 265 b 1107 404 1072 299 1107 339 b 901 549 1107 490 1047 549 b 690 390 765 549 701 492 l 826 383 b 901 443 829 421 857 443 b 972 379 951 443 972 418 b 901 322 972 343 944 322 l 858 322 l 858 228 l 901 228 b 992 161 963 228 992 201 b 907 94 992 118 960 94 b 821 153 851 94 825 117 l 686 147 b 907 -11 693 42 743 -11 z "},"⅔":{"ha":1257,"x_min":0,"x_max":0,"o":"m 61 449 l 460 449 l 460 564 l 203 564 b 268 631 203 583 218 606 l 331 661 b 458 833 414 703 458 747 b 263 997 458 929 396 997 b 56 819 142 997 68 933 l 181 813 b 264 892 189 869 214 892 b 333 831 308 892 333 867 b 272 753 333 790 318 775 l 207 719 b 61 449 86 660 61 599 z m 239 0 l 367 0 l 1022 986 l 894 986 z m 994 -11 b 1215 153 1143 -11 1215 57 b 1092 282 1215 221 1179 265 b 1193 404 1160 299 1193 339 b 988 549 1193 490 1133 549 b 778 390 851 549 789 492 l 913 383 b 988 443 917 421 944 443 b 1058 379 1039 443 1058 418 b 989 322 1058 343 1032 322 l 946 322 l 946 228 l 989 228 b 1079 161 1050 228 1079 201 b 994 94 1079 118 1047 94 b 908 153 938 94 911 117 l 772 147 b 994 -11 781 42 829 -11 z "},"¼":{"ha":1097,"x_min":0,"x_max":0,"o":"m 171 449 l 308 449 l 308 986 l 196 986 b 67 860 196 908 151 860 l 28 860 l 28 757 l 171 758 z m 153 0 l 281 0 l 936 986 l 808 986 z m 864 0 l 1000 0 l 1000 106 l 1069 106 l 1069 213 l 1000 213 l 1000 538 l 851 538 l 611 204 l 611 106 l 864 106 z m 739 213 l 864 374 l 864 213 z "},"¾":{"ha":1179,"x_min":0,"x_max":0,"o":"m 250 438 b 471 601 399 438 471 506 b 347 731 471 669 435 714 b 449 853 415 747 449 788 b 243 997 449 939 389 997 b 33 839 107 997 44 940 l 168 832 b 243 892 172 869 200 892 b 314 828 294 892 314 867 b 244 771 314 792 288 771 l 201 771 l 201 676 l 244 676 b 335 610 306 676 335 650 b 250 543 335 567 303 543 b 164 601 193 543 167 565 l 28 596 b 250 438 36 490 85 438 z m 235 0 l 363 0 l 1018 986 l 890 986 z m 947 0 l 1083 0 l 1083 106 l 1151 106 l 1151 213 l 1083 213 l 1083 538 l 933 538 l 693 204 l 693 106 l 947 106 z m 822 213 l 947 374 l 947 213 z "},"⅕":{"ha":1188,"x_min":0,"x_max":0,"o":"m 171 449 l 308 449 l 308 986 l 196 986 b 67 860 196 908 151 860 l 28 860 l 28 757 l 171 758 z m 153 0 l 281 0 l 936 986 l 808 986 z m 928 -11 b 1146 181 1068 -11 1146 64 b 965 357 1146 288 1088 357 b 865 325 918 357 886 344 l 879 431 l 1113 431 l 1113 538 l 764 538 l 724 221 l 851 221 b 933 265 867 247 889 265 b 1010 181 981 265 1010 232 b 926 94 1010 129 983 94 b 849 147 883 94 856 113 l 714 140 b 928 -11 722 46 788 -11 z "},"⅛":{"ha":1194,"x_min":0,"x_max":0,"o":"m 171 449 l 308 449 l 308 986 l 196 986 b 67 860 196 908 151 860 l 28 860 l 28 757 l 171 758 z m 153 0 l 281 0 l 936 986 l 808 986 z m 926 -11 b 1153 143 1088 -11 1153 49 b 1028 290 1153 215 1108 264 b 1129 411 1092 310 1129 343 b 926 549 1129 497 1071 549 b 722 411 781 549 722 497 b 825 290 722 343 760 310 b 700 143 742 265 700 217 b 926 -11 700 49 764 -11 z m 926 329 b 856 388 882 329 856 347 b 926 443 856 424 879 443 b 997 388 972 443 997 424 b 926 329 997 347 969 329 z m 926 94 b 836 164 867 94 836 115 b 926 240 836 206 867 240 b 1015 164 985 240 1015 206 b 926 94 1015 115 985 94 z "},"⅜":{"ha":1276,"x_min":0,"x_max":0,"o":"m 250 438 b 471 601 399 438 471 506 b 347 731 471 669 435 714 b 449 853 415 747 449 788 b 243 997 449 939 389 997 b 33 839 107 997 44 940 l 168 832 b 243 892 172 869 200 892 b 314 828 294 892 314 867 b 244 771 314 792 288 771 l 201 771 l 201 676 l 244 676 b 335 610 306 676 335 650 b 250 543 335 567 303 543 b 164 601 193 543 167 565 l 28 596 b 250 438 36 490 85 438 z m 235 0 l 363 0 l 1018 986 l 890 986 z m 1008 -11 b 1235 143 1169 -11 1235 49 b 1110 290 1235 215 1192 264 b 1213 411 1175 310 1213 343 b 1008 549 1213 497 1154 549 b 806 411 864 549 806 497 b 907 290 806 343 842 310 b 782 143 825 265 782 217 b 1008 -11 782 49 847 -11 z m 1008 329 b 938 388 965 329 938 347 b 1008 443 938 424 963 443 b 1079 388 1056 443 1079 424 b 1008 329 1079 347 1051 329 z m 1008 94 b 919 164 950 94 919 115 b 1008 240 919 206 950 240 b 1099 164 1067 240 1099 206 b 1008 94 1099 115 1067 94 z "},"⅝":{"ha":1293,"x_min":0,"x_max":0,"o":"m 269 438 b 488 629 411 438 488 513 b 308 806 488 736 429 806 b 208 774 260 806 229 793 l 221 879 l 454 879 l 454 986 l 107 986 l 65 669 l 193 669 b 275 714 208 696 232 714 b 351 629 324 714 351 681 b 269 543 351 578 326 543 b 192 596 225 543 199 561 l 56 589 b 269 438 64 494 129 438 z m 251 0 l 379 0 l 1035 986 l 907 986 z m 1025 -11 b 1251 143 1186 -11 1251 49 b 1126 290 1251 215 1207 264 b 1228 411 1192 310 1228 343 b 1025 549 1228 497 1171 549 b 822 411 881 549 822 497 b 924 290 822 343 858 310 b 799 143 842 265 799 217 b 1025 -11 799 49 864 -11 z m 1025 329 b 954 388 982 329 954 347 b 1025 443 954 424 978 443 b 1096 388 1072 443 1096 424 b 1025 329 1096 347 1068 329 z m 1025 94 b 935 164 967 94 935 115 b 1025 240 935 206 967 240 b 1115 164 1083 240 1115 206 b 1025 94 1115 115 1083 94 z "},"⅞":{"ha":1161,"x_min":0,"x_max":0,"o":"m 118 447 l 254 447 b 411 883 254 628 303 754 l 411 986 l 28 986 l 28 871 l 271 871 b 118 447 176 750 118 600 z m 119 0 l 247 0 l 903 986 l 775 986 z m 893 -11 b 1119 143 1054 -11 1119 49 b 994 290 1119 215 1075 264 b 1096 411 1058 310 1096 343 b 893 549 1096 497 1038 549 b 689 411 747 549 689 497 b 792 290 689 343 726 310 b 667 143 708 265 667 217 b 893 -11 667 49 731 -11 z m 893 329 b 822 388 849 329 822 347 b 893 443 822 424 846 443 b 964 388 939 443 964 424 b 893 329 964 347 936 329 z m 893 94 b 803 164 833 94 803 115 b 893 240 803 206 833 240 b 982 164 951 240 982 206 b 893 94 982 115 951 94 z "},"₀":{"ha":593,"x_min":0,"x_max":0,"o":"m 296 -150 b 538 131 446 -150 538 -44 b 296 410 538 307 447 410 b 56 131 146 410 56 307 b 296 -150 56 -44 147 -150 z m 192 131 b 296 303 192 249 225 303 b 347 289 317 303 333 299 l 201 46 b 192 131 196 69 192 99 z m 296 -43 b 247 -28 278 -43 261 -37 l 392 217 b 400 131 397 193 400 164 b 296 -43 400 14 367 -43 z "},"₁":{"ha":392,"x_min":0,"x_max":0,"o":"m 171 -139 l 308 -139 l 308 399 l 196 399 b 67 272 196 321 151 272 l 28 272 l 28 169 l 171 171 z "},"₂":{"ha":517,"x_min":0,"x_max":0,"o":"m 61 -139 l 460 -139 l 460 -24 l 203 -24 b 268 43 203 -4 218 18 l 331 74 b 458 246 414 115 458 160 b 263 410 458 342 396 410 b 56 232 142 410 68 346 l 181 225 b 264 304 189 282 214 304 b 333 243 308 304 333 279 b 272 165 333 203 318 188 l 207 132 b 61 -139 86 72 61 11 z "},"₃":{"ha":513,"x_min":0,"x_max":0,"o":"m 250 -150 b 471 14 399 -150 471 -82 b 347 143 471 82 435 126 b 449 265 415 160 449 200 b 243 410 449 351 389 410 b 33 251 107 410 44 353 l 168 244 b 243 304 172 282 200 304 b 314 240 294 304 314 279 b 244 183 314 204 288 183 l 201 183 l 201 89 l 244 89 b 335 22 306 89 335 63 b 250 -44 335 -21 303 -44 b 164 14 193 -44 167 -22 l 28 8 b 250 -150 36 -97 85 -150 z "},"₄":{"ha":500,"x_min":0,"x_max":0,"o":"m 267 -139 l 404 -139 l 404 -33 l 472 -33 l 472 74 l 404 74 l 404 399 l 254 399 l 14 65 l 14 -33 l 267 -33 z m 143 74 l 267 235 l 267 74 z "},"₅":{"ha":529,"x_min":0,"x_max":0,"o":"m 269 -150 b 488 42 411 -150 488 -75 b 308 218 488 149 429 218 b 208 186 260 218 229 206 l 221 292 l 454 292 l 454 399 l 107 399 l 65 82 l 193 82 b 275 126 208 108 232 126 b 351 42 324 126 351 93 b 269 -44 351 -10 326 -44 b 192 8 225 -44 199 -26 l 56 1 b 269 -150 64 -93 129 -150 z "},"₆":{"ha":558,"x_min":0,"x_max":0,"o":"m 279 -150 b 501 40 414 -150 501 -79 b 304 226 501 163 425 226 b 189 179 246 226 208 204 b 299 307 196 264 235 307 b 378 258 342 307 372 289 l 500 274 b 303 410 483 361 417 410 b 56 108 133 410 56 288 b 279 -150 56 -67 139 -150 z m 283 -44 b 194 44 229 -44 193 -10 b 283 131 196 99 232 131 b 375 43 340 131 375 100 b 283 -44 375 -10 339 -44 z "},"₇":{"ha":439,"x_min":0,"x_max":0,"o":"m 118 -139 l 254 -139 b 411 297 254 42 303 168 l 411 400 l 28 400 l 28 285 l 271 285 b 118 -139 176 164 118 14 z "},"₈":{"ha":536,"x_min":0,"x_max":0,"o":"m 268 -150 b 494 4 429 -150 494 -90 b 369 151 494 76 450 125 b 471 272 435 171 471 204 b 268 410 471 358 414 410 b 65 272 124 410 65 358 b 167 151 65 204 101 171 b 42 4 85 126 42 78 b 268 -150 42 -90 107 -150 z m 268 190 b 197 249 225 190 197 208 b 268 304 197 285 221 304 b 339 249 315 304 339 285 b 268 190 339 208 311 190 z m 268 -44 b 178 25 210 -44 178 -24 b 268 101 178 67 210 101 b 358 25 326 101 358 67 b 268 -44 358 -24 326 -44 z "},"₉":{"ha":558,"x_min":0,"x_max":0,"o":"m 279 410 b 58 219 144 410 58 339 b 254 33 58 97 135 33 b 369 81 313 33 350 56 b 260 -47 363 -4 325 -47 b 181 1 217 -47 188 -29 l 58 -14 b 256 -150 76 -101 142 -150 b 503 151 425 -150 503 -28 b 279 410 503 326 419 410 z m 276 304 b 365 215 329 304 367 269 b 275 129 364 161 328 129 b 185 217 218 129 185 160 b 276 304 185 269 219 304 z "},"⁰":{"ha":593,"x_min":0,"x_max":0,"o":"m 296 438 b 538 718 446 438 538 543 b 296 997 538 894 447 997 b 56 718 146 997 56 894 b 296 438 56 543 147 438 z m 192 718 b 296 890 192 836 225 890 b 347 876 317 890 333 886 l 201 633 b 192 718 196 657 192 686 z m 296 544 b 247 560 278 544 261 550 l 392 804 b 400 718 397 781 400 751 b 296 544 400 601 367 544 z "},"¹":{"ha":392,"x_min":0,"x_max":0,"o":"m 171 449 l 308 449 l 308 986 l 196 986 b 67 860 196 908 151 860 l 28 860 l 28 757 l 171 758 z "},"²":{"ha":517,"x_min":0,"x_max":0,"o":"m 61 449 l 460 449 l 460 564 l 203 564 b 268 631 203 583 218 606 l 331 661 b 458 833 414 703 458 747 b 263 997 458 929 396 997 b 56 819 142 997 68 933 l 181 813 b 264 892 189 869 214 892 b 333 831 308 892 333 867 b 272 753 333 790 318 775 l 207 719 b 61 449 86 660 61 599 z "},"³":{"ha":513,"x_min":0,"x_max":0,"o":"m 250 438 b 471 601 399 438 471 506 b 347 731 471 669 435 714 b 449 853 415 747 449 788 b 243 997 449 939 389 997 b 33 839 107 997 44 940 l 168 832 b 243 892 172 869 200 892 b 314 828 294 892 314 867 b 244 771 314 792 288 771 l 201 771 l 201 676 l 244 676 b 335 610 306 676 335 650 b 250 543 335 567 303 543 b 164 601 193 543 167 565 l 28 596 b 250 438 36 490 85 438 z "},"⁴":{"ha":500,"x_min":0,"x_max":0,"o":"m 267 449 l 404 449 l 404 554 l 472 554 l 472 661 l 404 661 l 404 986 l 254 986 l 14 653 l 14 554 l 267 554 z m 143 661 l 267 822 l 267 661 z "},"⁵":{"ha":529,"x_min":0,"x_max":0,"o":"m 269 438 b 488 629 411 438 488 513 b 308 806 488 736 429 806 b 208 774 260 806 229 793 l 221 879 l 454 879 l 454 986 l 107 986 l 65 669 l 193 669 b 275 714 208 696 232 714 b 351 629 324 714 351 681 b 269 543 351 578 326 543 b 192 596 225 543 199 561 l 56 589 b 269 438 64 494 129 438 z "},"⁶":{"ha":558,"x_min":0,"x_max":0,"o":"m 279 438 b 501 628 414 438 501 508 b 304 814 501 750 425 814 b 189 767 246 814 208 792 b 299 894 196 851 235 894 b 378 846 342 894 372 876 l 500 861 b 303 997 483 949 417 997 b 56 696 133 997 56 875 b 279 438 56 521 139 438 z m 283 543 b 194 632 229 543 193 578 b 283 718 196 686 232 718 b 375 631 340 718 375 688 b 283 543 375 578 339 543 z "},"⁷":{"ha":439,"x_min":0,"x_max":0,"o":"m 118 447 l 254 447 b 411 883 254 628 303 754 l 411 986 l 28 986 l 28 871 l 271 871 b 118 447 176 750 118 600 z "},"⁸":{"ha":536,"x_min":0,"x_max":0,"o":"m 268 438 b 494 592 429 438 494 497 b 369 739 494 664 450 713 b 471 860 435 758 471 792 b 268 997 471 946 414 997 b 65 860 124 997 65 946 b 167 739 65 792 101 758 b 42 592 85 714 42 665 b 268 438 42 497 107 438 z m 268 778 b 197 836 225 778 197 796 b 268 892 197 872 221 892 b 339 836 315 892 339 872 b 268 778 339 796 311 778 z m 268 543 b 178 613 210 543 178 564 b 268 689 178 654 210 689 b 358 613 326 689 358 654 b 268 543 358 564 326 543 z "},"⁹":{"ha":558,"x_min":0,"x_max":0,"o":"m 279 997 b 58 807 144 997 58 926 b 254 621 58 685 135 621 b 369 668 313 621 350 643 b 260 540 363 583 325 540 b 181 589 217 540 188 558 l 58 574 b 256 438 76 486 142 438 b 503 739 425 438 503 560 b 279 997 503 914 419 997 z m 276 892 b 365 803 329 892 367 857 b 275 717 364 749 328 717 b 185 804 218 717 185 747 b 276 892 185 857 219 892 z "}," ":{"ha":317,"x_min":0,"x_max":0,"o":""}," ":{"ha":317,"x_min":0,"x_max":0,"o":""},".":{"ha":328,"x_min":0,"x_max":0,"o":"m 51 0 l 278 0 l 278 213 l 51 213 z "},",":{"ha":328,"x_min":0,"x_max":0,"o":"m 67 -219 l 181 -219 l 278 22 l 278 213 l 51 213 l 51 0 l 142 0 z "},":":{"ha":432,"x_min":0,"x_max":0,"o":"m 103 494 l 329 494 l 329 708 l 103 708 z m 103 0 l 329 0 l 329 213 l 103 213 z "},";":{"ha":432,"x_min":0,"x_max":0,"o":"m 103 494 l 329 494 l 329 708 l 103 708 z m 118 -219 l 232 -219 l 329 22 l 329 213 l 103 213 l 103 0 l 193 0 z "},"…":{"ha":965,"x_min":0,"x_max":0,"o":"m 51 0 l 278 0 l 278 213 l 51 213 z m 369 0 l 596 0 l 596 213 l 369 213 z m 689 0 l 914 0 l 914 213 l 689 213 z "},"!":{"ha":357,"x_min":0,"x_max":0,"o":"m 111 315 l 253 315 b 286 689 267 410 286 578 l 286 986 l 76 986 l 76 689 b 111 315 76 578 97 410 z m 65 0 l 292 0 l 292 213 l 65 213 z "},"¡":{"ha":357,"x_min":0,"x_max":0,"o":"m 65 761 l 65 549 l 292 549 l 292 761 z m 76 -225 l 286 -225 l 286 72 b 253 446 286 183 267 351 l 111 446 b 76 72 97 351 76 183 z "},"?":{"ha":821,"x_min":0,"x_max":0,"o":"m 301 311 l 508 311 b 599 475 508 399 531 435 b 771 719 724 546 771 599 b 426 1008 771 885 650 1008 b 51 696 199 1008 68 876 l 268 685 b 426 836 278 785 332 836 b 557 719 510 836 557 789 b 438 578 557 657 540 631 b 301 311 339 529 301 460 z m 289 0 l 515 0 l 515 213 l 289 213 z "},"¿":{"ha":821,"x_min":0,"x_max":0,"o":"m 532 783 l 306 783 l 306 571 l 532 571 z m 394 -225 b 771 88 622 -225 754 -93 l 554 99 b 394 -53 543 -1 490 -53 b 264 64 311 -53 264 -6 b 383 206 264 126 282 153 b 519 472 482 254 519 324 l 314 472 b 222 308 314 385 292 349 b 51 64 99 238 51 185 b 394 -225 51 -101 171 -225 z "},"·":{"ha":328,"x_min":0,"x_max":0,"o":"m 51 313 l 278 313 l 278 525 l 51 525 z "},"•":{"ha":503,"x_min":0,"x_max":0,"o":"m 253 224 b 454 421 372 224 454 308 b 253 618 454 536 372 618 b 50 421 133 618 50 536 b 253 224 50 308 133 224 z "},"*":{"ha":586,"x_min":0,"x_max":0,"o":"m 222 504 l 293 631 l 365 504 l 474 567 l 393 688 l 535 685 l 535 824 l 393 822 l 474 943 l 365 1004 l 293 879 l 222 1004 l 114 943 l 193 822 l 51 824 l 51 685 l 193 688 l 114 567 z "},"#":{"ha":818,"x_min":0,"x_max":0,"o":"m 69 0 l 260 0 l 294 226 l 438 226 l 403 0 l 593 0 l 628 226 l 735 226 l 758 393 l 653 393 l 683 585 l 786 585 l 810 750 l 708 750 l 744 986 l 554 986 l 518 750 l 376 750 l 413 986 l 222 986 l 185 750 l 81 750 l 57 585 l 160 585 l 131 393 l 28 393 l 4 226 l 106 226 z m 321 393 l 350 585 l 493 585 l 463 393 z "},"/":{"ha":725,"x_min":0,"x_max":0,"o":"m 44 -153 l 250 -153 l 661 1042 l 456 1042 z "},"\\":{"ha":696,"x_min":0,"x_max":0,"o":"m 657 -153 l 244 1042 l 39 1042 l 450 -153 z "},"-":{"ha":579,"x_min":0,"x_max":0,"o":"m 51 319 l 528 319 l 528 490 l 51 490 z "},"–":{"ha":826,"x_min":0,"x_max":0,"o":"m 51 321 l 775 321 l 775 490 l 51 490 z "},"—":{"ha":1265,"x_min":0,"x_max":0,"o":"m 51 321 l 1214 321 l 1214 490 l 51 490 z "},"_":{"ha":779,"x_min":0,"x_max":0,"o":"m 51 -168 l 728 -168 l 728 0 l 51 0 z "},"〜":{"ha":1201,"x_min":0,"x_max":0,"o":"m 828 254 b 1150 408 931 254 1042 306 l 1054 543 b 828 429 956 457 904 429 b 618 500 758 429 719 447 b 382 574 531 547 453 574 b 51 414 265 574 179 532 l 146 279 b 378 399 228 357 297 399 b 572 339 446 399 506 375 b 828 254 678 283 728 254 z "},"(":{"ha":449,"x_min":0,"x_max":0,"o":"m 246 -153 l 432 -153 b 264 444 319 47 264 246 b 432 1042 264 643 319 843 l 246 1042 b 58 444 122 847 58 646 b 246 -153 58 243 122 42 z "},")":{"ha":449,"x_min":0,"x_max":0,"o":"m 201 -153 b 390 444 326 42 390 243 b 201 1042 390 646 326 847 l 17 1042 b 185 444 128 843 185 643 b 17 -153 185 246 128 47 z "},"{":{"ha":567,"x_min":0,"x_max":0,"o":"m 463 -174 l 550 -174 l 550 0 b 382 121 433 -4 382 36 l 382 218 b 222 436 382 349 310 425 l 222 444 b 382 663 307 456 382 532 l 382 758 b 550 874 382 842 433 878 l 550 1053 l 463 1053 b 183 792 285 1053 183 944 l 183 676 b 58 522 183 560 144 521 l 58 358 b 183 204 144 358 183 319 l 183 89 b 463 -174 183 -64 285 -174 z "},"}":{"ha":567,"x_min":0,"x_max":0,"o":"m 104 -174 b 382 89 281 -174 382 -64 l 382 204 b 508 358 382 319 421 358 l 508 522 b 382 676 421 521 382 560 l 382 792 b 104 1053 382 944 281 1053 l 17 1053 l 17 874 b 183 758 132 878 183 842 l 183 663 b 344 444 183 532 258 456 l 344 436 b 183 218 257 425 183 349 l 183 121 b 17 0 183 36 132 -4 l 17 -174 z "},"[":{"ha":542,"x_min":0,"x_max":0,"o":"m 525 -153 l 525 11 l 303 11 l 303 878 l 525 878 l 525 1042 l 103 1042 l 103 -153 z "},"]":{"ha":542,"x_min":0,"x_max":0,"o":"m 17 -153 l 439 -153 l 439 1042 l 17 1042 l 17 878 l 239 878 l 239 11 l 17 11 z "},"‚":{"ha":328,"x_min":0,"x_max":0,"o":"m 67 -219 l 181 -219 l 278 22 l 278 213 l 51 213 l 51 0 l 142 0 z "},"„":{"ha":628,"x_min":0,"x_max":0,"o":"m 367 -226 l 479 -226 l 576 17 l 576 206 l 350 206 l 350 -7 l 442 -7 z m 67 -226 l 181 -226 l 278 17 l 278 206 l 51 206 l 51 -7 l 142 -7 z "},"“":{"ha":642,"x_min":0,"x_max":0,"o":"m 268 1008 l 156 1008 l 58 765 l 58 575 l 285 575 l 285 789 l 193 789 z m 568 1008 l 454 1008 l 357 765 l 357 575 l 583 575 l 583 789 l 493 789 z "},"”":{"ha":642,"x_min":0,"x_max":0,"o":"m 374 553 l 488 553 l 583 796 l 583 986 l 357 986 l 357 774 l 449 774 z m 74 553 l 188 553 l 285 796 l 285 986 l 58 986 l 58 774 l 149 774 z "},"‘":{"ha":343,"x_min":0,"x_max":0,"o":"m 268 1008 l 156 1008 l 58 765 l 58 575 l 285 575 l 285 789 l 193 789 z "},"’":{"ha":343,"x_min":0,"x_max":0,"o":"m 74 553 l 188 553 l 285 796 l 285 986 l 58 986 l 58 774 l 149 774 z "},"«":{"ha":896,"x_min":0,"x_max":0,"o":"m 478 106 l 240 383 l 478 661 l 246 661 l 51 433 l 51 333 l 246 106 z m 844 106 l 607 383 l 844 661 l 613 661 l 418 433 l 418 333 l 613 106 z "},"»":{"ha":910,"x_min":0,"x_max":0,"o":"m 425 106 l 658 106 l 853 333 l 853 433 l 658 661 l 425 661 l 663 383 z m 60 106 l 292 106 l 486 333 l 486 433 l 292 661 l 60 661 l 296 383 z "},"‹":{"ha":529,"x_min":0,"x_max":0,"o":"m 478 106 l 240 383 l 478 661 l 246 661 l 51 433 l 51 333 l 246 106 z "},"›":{"ha":529,"x_min":0,"x_max":0,"o":"m 51 106 l 283 106 l 478 333 l 478 433 l 283 661 l 51 661 l 289 383 z "},"\"":{"ha":542,"x_min":0,"x_max":0,"o":"m 88 599 l 214 599 l 224 986 l 58 986 l 58 869 z m 328 599 l 454 599 l 483 869 l 483 986 l 318 986 z "},"'":{"ha":282,"x_min":0,"x_max":0,"o":"m 79 599 l 203 599 l 224 869 l 224 986 l 58 986 l 58 869 z "},"ƒ":{"ha":733,"x_min":0,"x_max":0,"o":"m 64 0 l 196 -1 b 422 196 325 -3 408 72 l 463 550 l 689 550 l 689 706 l 479 706 l 483 740 b 568 817 489 790 518 817 l 689 817 l 689 985 l 514 986 b 288 789 388 988 301 910 l 278 706 l 143 706 l 143 550 l 261 550 l 228 244 b 149 168 222 196 193 168 l 64 168 z "},"฿":{"ha":950,"x_min":0,"x_max":0,"o":"m 103 0 l 404 0 l 404 -126 l 513 -126 l 513 0 b 879 279 750 6 879 107 b 635 510 879 417 793 497 b 838 713 760 522 838 599 b 513 983 838 878 726 967 l 513 1118 l 404 1118 l 404 986 l 103 986 z m 314 578 l 314 814 l 404 814 l 404 578 z m 628 694 b 513 583 628 633 590 596 l 513 810 b 628 694 590 796 628 757 z m 314 172 l 314 425 l 404 425 l 404 172 z m 669 297 b 513 172 669 221 615 178 l 513 424 b 669 297 617 418 669 375 z "},"☹":{"ha":1168,"x_min":0,"x_max":0,"o":"m 583 -36 b 1117 497 878 -36 1117 201 b 583 1028 1117 790 878 1028 b 51 497 289 1028 51 790 b 583 -36 51 201 289 -36 z m 583 81 b 169 497 353 81 169 265 b 583 911 169 726 353 911 b 999 497 814 911 999 726 b 583 81 999 265 814 81 z m 456 564 b 529 640 494 564 529 597 b 456 714 529 681 494 714 b 379 640 413 714 379 681 b 456 564 379 597 413 564 z m 726 564 b 800 640 767 564 800 597 b 726 714 800 681 767 714 b 650 640 685 714 650 681 b 726 564 650 597 685 564 z m 319 294 l 436 294 b 589 406 461 365 517 406 b 743 294 663 406 717 365 l 860 294 b 589 513 828 426 725 513 b 319 294 454 513 353 426 z "},"☺":{"ha":1168,"x_min":0,"x_max":0,"o":"m 583 -36 b 1117 497 878 -36 1117 201 b 583 1028 1117 790 878 1028 b 51 497 289 1028 51 790 b 583 -36 51 201 289 -36 z m 583 81 b 169 497 353 81 169 265 b 583 911 169 726 353 911 b 999 497 814 911 999 726 b 583 81 999 265 814 81 z m 456 564 b 529 640 494 564 529 597 b 456 714 529 681 494 714 b 379 640 413 714 379 681 b 456 564 379 597 413 564 z m 726 564 b 800 640 767 564 800 597 b 726 714 800 681 767 714 b 650 640 685 714 650 681 b 726 564 650 597 685 564 z m 589 232 b 889 492 742 232 867 342 l 779 492 b 589 338 760 403 682 338 b 399 492 497 338 419 403 l 290 492 b 589 232 313 342 436 232 z "},"":{"ha":833,"x_min":0,"x_max":0,"o":"m 146 0 l 688 0 b 822 135 765 0 822 57 l 822 676 b 688 811 822 754 765 811 l 146 811 b 11 676 68 811 11 754 l 11 135 b 146 0 11 57 68 0 z m 119 172 l 415 688 l 713 172 z "},"@":{"ha":1336,"x_min":0,"x_max":0,"o":"m 946 -101 l 914 14 b 613 -46 815 -29 724 -46 b 190 350 343 -46 190 100 b 707 864 190 658 400 864 b 1147 478 999 864 1147 733 b 1006 232 1147 321 1093 232 b 940 292 965 232 940 254 b 949 415 940 322 944 372 l 974 689 l 817 689 l 811 622 b 635 699 776 669 713 699 b 349 361 464 699 349 554 b 600 101 349 201 440 101 b 811 215 682 101 767 149 b 983 108 835 150 894 108 b 1278 494 1158 108 1278 257 b 714 986 1278 792 1053 986 b 58 342 322 986 58 726 b 608 -168 58 18 260 -168 b 946 -101 726 -168 835 -147 z m 643 239 b 528 375 563 239 528 293 b 671 561 528 481 582 561 b 790 422 751 561 790 506 b 643 239 790 324 738 239 z "},"&":{"ha":981,"x_min":0,"x_max":0,"o":"m 400 -22 b 681 43 518 -22 619 4 l 715 0 l 961 0 l 826 156 b 939 435 889 226 931 329 l 726 456 b 690 308 726 393 714 342 l 535 503 b 749 772 679 585 749 656 b 449 1008 749 908 646 1008 b 151 757 257 1008 151 908 b 253 540 151 671 189 611 b 47 243 104 450 47 369 b 400 -22 47 72 169 -22 z m 429 625 b 365 749 382 676 365 710 b 453 831 365 799 397 831 b 533 754 503 831 533 803 b 429 625 533 703 501 667 z m 418 158 b 265 267 317 158 265 201 b 363 414 265 325 293 369 l 543 192 b 418 158 518 172 478 158 z "},"¶":{"ha":918,"x_min":0,"x_max":0,"o":"m 347 0 l 533 0 l 533 828 l 629 828 l 629 0 l 815 0 l 815 986 l 381 986 b 58 704 188 986 58 875 b 347 429 58 539 176 429 z "},"§":{"ha":842,"x_min":0,"x_max":0,"o":"m 439 -92 b 768 131 639 -92 768 -8 b 657 296 768 207 735 257 b 767 450 732 328 767 379 b 444 689 767 590 656 650 b 310 782 347 710 310 733 b 419 861 310 829 354 861 b 560 749 496 861 549 819 l 769 757 b 428 1008 746 917 618 1008 b 93 779 219 1008 93 924 b 206 625 93 715 128 665 b 93 468 132 590 96 535 b 363 240 88 347 167 279 b 553 135 506 214 553 181 b 433 58 553 89 514 58 b 283 172 346 58 296 101 l 72 161 b 439 -92 86 8 218 -92 z m 449 367 b 290 468 336 369 290 415 b 408 556 290 518 340 556 b 571 456 482 556 571 525 b 449 367 571 401 521 367 z "},"©":{"ha":1142,"x_min":0,"x_max":0,"o":"m 571 -17 b 1083 497 854 -17 1083 213 b 571 1008 1083 779 854 1008 b 58 497 288 1008 58 779 b 571 -17 58 213 288 -17 z m 571 111 b 189 497 364 111 189 282 b 571 881 189 710 364 881 b 953 497 778 881 953 710 b 571 111 953 282 778 111 z m 576 217 b 839 443 721 217 826 310 l 689 449 b 576 339 681 378 638 339 b 451 497 501 339 451 399 b 576 654 451 594 501 654 b 686 550 633 654 676 615 l 835 557 b 576 775 822 686 717 775 b 303 497 414 775 303 663 b 576 217 303 331 414 217 z "},"®":{"ha":901,"x_min":0,"x_max":0,"o":"m 451 222 b 843 617 668 222 843 399 b 451 1008 843 833 668 1008 b 58 617 233 1008 58 833 b 451 222 58 399 233 222 z m 451 313 b 151 617 282 313 151 451 b 451 918 151 781 282 918 b 750 617 621 918 750 781 b 451 313 750 451 621 313 z m 288 410 l 397 410 l 397 558 l 442 558 l 518 410 l 638 410 l 547 575 b 628 693 600 593 628 639 b 454 825 628 774 560 825 l 288 825 z m 396 642 l 396 738 l 444 738 b 515 690 488 738 515 722 b 444 642 515 657 488 642 z "},"℗":{"ha":901,"x_min":0,"x_max":0,"o":"m 451 222 b 843 617 668 222 843 399 b 451 1008 843 833 668 1008 b 58 617 233 1008 58 833 b 451 222 58 399 233 222 z m 451 313 b 151 617 282 313 151 451 b 451 918 151 781 282 918 b 750 617 621 918 750 781 b 451 313 750 451 621 313 z m 306 410 l 415 410 l 415 558 l 472 558 b 646 693 586 558 646 611 b 472 825 646 774 586 825 l 306 825 z m 414 642 l 414 738 l 463 738 b 533 690 506 738 533 722 b 463 642 533 657 506 642 z "},"™":{"ha":1264,"x_min":0,"x_max":0,"o":"m 572 499 l 699 499 l 699 781 l 808 499 l 925 499 l 1035 793 l 1035 499 l 1161 499 l 1161 986 l 999 986 l 867 632 l 736 986 l 572 986 z m 240 499 l 375 499 l 375 868 l 511 868 l 511 986 l 103 986 l 103 868 l 240 868 z "},"°":{"ha":594,"x_min":0,"x_max":0,"o":"m 297 517 b 543 763 432 517 543 622 b 297 1008 543 900 432 1008 b 51 763 164 1008 51 900 b 297 517 51 624 164 517 z m 297 661 b 196 763 243 661 196 703 b 297 865 196 821 243 865 b 399 763 353 865 399 822 b 297 661 399 701 354 661 z "},"′":{"ha":354,"x_min":0,"x_max":0,"o":"m 56 660 l 226 660 l 299 986 l 110 986 z "},"″":{"ha":606,"x_min":0,"x_max":0,"o":"m 56 660 l 226 660 l 299 986 l 110 986 z m 307 660 l 478 660 l 550 986 l 361 986 z "},"|":{"ha":408,"x_min":0,"x_max":0,"o":"m 103 -153 l 306 -153 l 306 1042 l 103 1042 z "},"¦":{"ha":408,"x_min":0,"x_max":0,"o":"m 103 549 l 306 549 l 306 1042 l 103 1042 z m 103 -153 l 306 -153 l 306 340 l 103 340 z "},"†":{"ha":814,"x_min":0,"x_max":0,"o":"m 310 0 l 504 0 l 504 586 l 711 586 l 711 744 l 504 744 l 504 986 l 310 986 l 310 744 l 103 744 l 103 586 l 310 586 z "},"‡":{"ha":814,"x_min":0,"x_max":0,"o":"m 103 236 l 310 236 l 310 0 l 504 0 l 504 236 l 711 236 l 711 394 l 504 394 l 504 586 l 711 586 l 711 744 l 504 744 l 504 986 l 310 986 l 310 744 l 103 744 l 103 586 l 310 586 l 310 394 l 103 394 z "},"№":{"ha":1624,"x_min":0,"x_max":0,"o":"m 103 0 l 314 0 l 314 657 l 703 0 l 939 0 l 939 986 l 728 986 l 728 306 l 336 986 l 103 986 z m 1267 239 b 1521 482 1424 239 1521 335 b 1267 725 1521 628 1424 725 b 1013 482 1110 725 1013 628 b 1267 239 1013 335 1110 239 z m 1267 350 b 1174 482 1206 350 1174 397 b 1267 614 1174 565 1206 614 b 1360 482 1326 614 1360 567 b 1267 350 1360 396 1326 350 z m 1054 0 l 1479 0 l 1479 142 l 1054 142 z "},"¢":{"ha":831,"x_min":0,"x_max":0,"o":"m 329 -17 l 435 -17 l 446 107 b 793 407 639 113 774 228 l 578 415 b 460 269 568 326 524 279 l 497 708 b 578 582 540 688 569 646 l 793 593 b 511 878 774 749 667 851 l 522 1008 l 417 1008 l 407 883 b 51 494 190 874 51 721 b 340 114 51 292 163 150 z m 265 494 b 392 719 265 621 311 701 l 356 285 b 265 494 297 315 265 389 z "},"¤":{"ha":879,"x_min":0,"x_max":0,"o":"m 139 101 l 265 228 b 439 174 315 194 375 174 b 614 228 504 174 564 194 l 740 101 l 821 182 l 693 308 b 747 482 728 358 747 418 b 693 657 747 547 728 607 l 821 783 l 740 864 l 613 736 b 439 790 564 769 504 790 b 267 736 375 790 315 771 l 139 864 l 58 783 l 186 657 b 131 482 151 607 131 547 b 185 308 131 418 151 357 l 58 182 z m 439 318 b 275 482 349 318 275 392 b 439 646 275 572 349 646 b 603 482 528 646 603 572 b 439 318 603 392 528 318 z "},"$":{"ha":931,"x_min":0,"x_max":0,"o":"m 415 -125 l 529 -125 l 529 -14 b 858 278 732 0 858 108 b 529 569 858 419 775 514 l 529 810 b 636 658 592 786 628 731 l 843 668 b 529 990 824 838 721 964 l 529 1111 l 415 1111 l 415 993 b 90 704 211 982 90 867 b 415 419 90 543 182 474 l 415 165 b 281 335 338 186 293 244 l 72 325 b 415 -11 86 139 208 11 z m 300 711 b 415 821 300 769 343 811 l 415 597 b 300 711 328 624 300 654 z m 649 268 b 529 158 649 204 606 168 l 529 390 b 649 268 628 357 649 321 z "},"€":{"ha":1063,"x_min":0,"x_max":0,"o":"m 72 326 l 190 326 b 613 -22 246 117 410 -22 b 1011 335 815 -22 971 117 l 790 346 b 608 156 769 232 701 156 b 408 326 510 156 442 221 l 631 326 l 646 439 l 388 439 b 386 492 386 456 386 474 b 388 535 386 507 386 521 l 658 535 l 675 647 l 406 647 b 608 831 436 760 506 831 b 789 656 697 831 764 761 l 1007 667 b 613 1008 964 875 807 1008 b 188 647 406 1008 240 863 l 72 647 l 72 535 l 171 535 b 169 492 169 521 169 507 b 171 439 169 474 169 456 l 72 439 z "},"₴":{"ha":1010,"x_min":0,"x_max":0,"o":"m 72 531 l 938 531 l 938 644 l 854 644 b 875 721 865 661 875 688 b 511 1008 875 896 743 1008 b 147 736 326 1008 194 904 l 363 718 b 521 833 394 792 444 833 b 660 713 608 833 660 781 b 629 644 660 683 649 663 l 72 644 z m 500 -17 b 892 243 703 -17 851 82 l 661 256 b 494 160 633 196 572 160 b 360 267 415 160 360 204 b 378 325 360 290 367 310 l 938 325 l 938 439 l 72 439 l 72 325 l 156 325 b 143 257 149 310 143 286 b 500 -17 143 90 281 -17 z "},"₱":{"ha":1044,"x_min":0,"x_max":0,"o":"m 153 0 l 364 0 l 364 281 l 513 281 b 874 507 700 281 829 360 l 1003 507 l 1003 604 l 890 604 b 892 635 892 614 892 624 b 890 663 892 644 892 654 l 1003 663 l 1003 760 l 875 760 b 513 986 831 907 701 986 l 153 986 l 153 760 l 42 760 l 42 663 l 153 663 l 153 604 l 42 604 l 42 507 l 153 507 z m 364 822 l 500 822 b 650 760 569 822 621 804 l 364 760 z m 681 635 b 679 604 681 624 679 614 l 364 604 l 364 663 l 679 663 b 681 635 679 654 681 644 z m 364 444 l 364 507 l 650 507 b 500 444 619 463 569 444 z "},"₽":{"ha":1022,"x_min":0,"x_max":0,"o":"m 56 138 l 193 138 l 193 0 l 404 0 l 404 138 l 606 138 l 606 254 l 404 254 l 404 340 l 588 340 b 967 664 824 340 967 464 b 588 986 967 864 824 986 l 193 986 l 193 254 l 56 254 z m 404 518 l 404 808 l 575 808 b 750 664 686 808 750 760 b 575 518 750 568 685 518 z "},"₹":{"ha":986,"x_min":0,"x_max":0,"o":"m 475 0 l 743 0 l 357 349 l 432 349 b 806 600 639 349 776 442 l 915 600 l 915 714 l 808 714 b 729 874 799 779 771 832 l 915 874 l 915 986 l 103 986 l 103 811 l 419 811 b 589 714 514 811 569 779 l 103 714 l 103 600 l 588 600 b 419 507 567 538 511 507 l 103 507 l 103 344 z "},"₪":{"ha":1201,"x_min":0,"x_max":0,"o":"m 383 0 l 890 0 b 1099 208 1018 0 1099 81 l 1099 986 l 925 986 l 925 218 b 842 133 925 167 893 133 l 547 133 l 547 753 l 383 753 z m 103 0 l 275 0 l 275 853 l 569 853 b 654 768 622 853 654 819 l 654 233 l 818 233 l 818 778 b 611 986 818 906 739 986 l 103 986 z "},"£":{"ha":899,"x_min":0,"x_max":0,"o":"m 74 0 l 832 3 l 832 182 l 290 182 b 433 431 386 226 429 313 l 633 431 l 633 544 l 421 544 b 374 708 400 604 374 658 b 496 831 374 779 424 831 b 618 725 557 831 604 794 l 849 735 b 494 1008 821 899 703 1008 b 163 728 296 1008 163 889 b 206 544 163 675 181 614 l 72 544 l 72 431 l 231 431 b 236 382 233 415 236 397 b 74 156 236 288 181 207 z "},"¥":{"ha":876,"x_min":0,"x_max":0,"o":"m 144 169 l 333 169 l 333 0 l 544 0 l 544 169 l 821 169 l 821 296 l 544 296 l 544 383 l 821 383 l 821 510 l 617 510 l 886 986 l 653 986 l 439 589 l 224 986 l -10 986 l 261 510 l 144 510 l 144 383 l 333 383 l 333 296 l 144 296 z "},"+":{"ha":792,"x_min":0,"x_max":0,"o":"m 311 58 l 481 58 l 481 314 l 736 314 l 736 482 l 481 482 l 481 739 l 311 739 l 311 482 l 56 482 l 56 314 l 311 314 z "},"−":{"ha":756,"x_min":0,"x_max":0,"o":"m 56 314 l 700 314 l 700 482 l 56 482 z "},"×":{"ha":750,"x_min":0,"x_max":0,"o":"m 56 197 l 175 78 l 375 279 l 576 78 l 694 197 l 494 399 l 694 599 l 576 718 l 375 517 l 175 718 l 56 599 l 257 399 z "},"÷":{"ha":783,"x_min":0,"x_max":0,"o":"m 392 554 b 506 664 458 554 506 601 b 392 775 506 729 458 775 b 279 664 325 775 279 729 b 392 554 279 601 325 554 z m 56 319 l 728 319 l 728 478 l 56 478 z m 392 19 b 506 131 458 19 506 67 b 392 242 506 194 458 242 b 279 131 325 242 279 194 b 392 19 279 67 325 19 z "},"=":{"ha":767,"x_min":0,"x_max":0,"o":"m 56 482 l 711 482 l 711 651 l 56 651 z m 56 163 l 711 163 l 711 331 l 56 331 z "},"≠":{"ha":767,"x_min":0,"x_max":0,"o":"m 56 163 l 231 163 l 193 31 l 357 31 l 394 163 l 711 163 l 711 331 l 443 331 l 488 482 l 711 482 l 711 651 l 535 651 l 574 785 l 410 785 l 371 651 l 56 651 l 56 482 l 324 482 l 279 331 l 56 331 z "},">":{"ha":764,"x_min":0,"x_max":0,"o":"m 69 31 l 708 301 l 708 510 l 69 781 l 69 600 l 531 406 l 69 211 z "},"<":{"ha":764,"x_min":0,"x_max":0,"o":"m 694 31 l 694 211 l 233 406 l 694 600 l 694 781 l 56 510 l 56 301 z "},"≥":{"ha":774,"x_min":0,"x_max":0,"o":"m 69 186 l 708 389 l 708 604 l 69 807 l 69 635 l 546 496 l 69 357 z m 69 0 l 718 0 l 718 147 l 69 147 z "},"≤":{"ha":774,"x_min":0,"x_max":0,"o":"m 704 186 l 704 357 l 228 496 l 704 635 l 704 807 l 65 604 l 65 389 z m 704 0 l 704 147 l 56 147 l 56 0 z "},"±":{"ha":764,"x_min":0,"x_max":0,"o":"m 297 203 l 467 203 l 467 431 l 708 431 l 708 593 l 467 593 l 467 822 l 297 822 l 297 593 l 56 593 l 56 431 l 297 431 z m 56 0 l 708 0 l 708 147 l 56 147 z "},"≈":{"ha":726,"x_min":0,"x_max":0,"o":"m 478 486 b 671 738 596 486 671 582 l 522 738 b 467 624 522 661 504 624 b 389 676 440 624 428 632 b 250 744 346 724 308 744 b 56 493 131 744 56 647 l 204 493 b 261 607 204 568 224 607 b 340 551 285 607 293 603 b 478 486 385 504 421 486 z m 478 181 b 671 432 596 181 671 276 l 522 432 b 467 318 522 356 504 318 b 389 371 440 318 428 326 b 250 439 346 418 308 439 b 56 188 131 439 56 342 l 204 188 b 261 301 204 263 224 301 b 340 246 285 301 293 297 b 478 181 385 199 421 181 z "},"~":{"ha":726,"x_min":0,"x_max":0,"o":"m 478 333 b 671 585 596 333 671 429 l 522 585 b 467 471 522 508 504 471 b 389 524 440 471 428 479 b 250 592 346 571 308 592 b 56 340 131 592 56 494 l 204 340 b 261 454 204 415 224 454 b 340 399 285 454 293 450 b 478 333 385 351 421 333 z "},"¬":{"ha":711,"x_min":0,"x_max":0,"o":"m 514 92 l 656 92 l 656 458 l 56 458 l 56 318 l 514 318 z "},"^":{"ha":640,"x_min":0,"x_max":0,"o":"m 56 532 l 207 532 l 321 801 l 435 532 l 585 532 l 418 935 l 222 935 z "},"∞":{"ha":1171,"x_min":0,"x_max":0,"o":"m 303 118 b 586 268 429 118 519 171 b 869 118 658 163 743 118 b 1115 376 1025 118 1115 231 b 869 635 1115 522 1019 635 b 586 483 739 635 657 583 b 303 635 518 581 428 635 b 56 376 154 635 56 528 b 303 118 56 222 154 118 z m 338 267 b 226 376 271 267 226 310 b 338 485 226 438 271 485 b 521 376 407 486 481 446 b 338 267 482 307 407 267 z m 832 267 b 647 375 761 267 688 307 b 832 483 689 446 763 486 b 940 376 899 483 940 438 b 832 267 940 315 899 267 z "},"∫":{"ha":628,"x_min":0,"x_max":0,"o":"m 140 -208 b 367 -11 268 -208 353 -132 l 454 742 b 540 818 460 790 489 818 l 592 818 l 610 985 l 485 986 b 261 789 358 988 275 910 l 175 36 b 96 -40 168 -22 144 -40 l 36 -40 l 18 -208 z "},"∆":{"ha":906,"x_min":0,"x_max":0,"o":"m 26 0 l 879 0 l 879 172 l 550 986 l 358 986 l 26 171 z m 196 172 l 454 815 l 711 172 z "},"∏":{"ha":946,"x_min":0,"x_max":0,"o":"m 168 -208 l 374 -208 l 374 813 l 578 813 l 578 -208 l 783 -208 l 783 813 l 931 813 l 931 986 l 15 986 l 15 813 l 168 813 z "},"∑":{"ha":757,"x_min":0,"x_max":0,"o":"m 38 0 l 719 0 l 719 178 l 243 178 l 457 493 l 243 808 l 719 808 l 719 986 l 38 986 l 38 808 l 249 493 l 38 178 z "},"√":{"ha":1015,"x_min":0,"x_max":0,"o":"m 211 -208 l 499 -208 l 707 817 l 988 817 l 988 986 l 544 986 l 350 -14 l 225 483 l 29 483 z "},"∂":{"ha":790,"x_min":0,"x_max":0,"o":"m 386 -15 b 732 363 590 -15 732 122 b 168 1006 732 719 603 950 l 132 844 b 543 597 374 806 492 740 b 363 653 490 631 429 653 b 51 318 176 653 51 521 b 386 -15 51 117 181 -15 z m 386 132 b 246 318 292 132 246 203 b 392 506 246 435 297 506 b 538 343 483 506 538 442 b 386 132 538 193 479 132 z "},"%":{"ha":1146,"x_min":0,"x_max":0,"o":"m 282 508 b 511 753 415 508 511 588 b 282 997 511 918 415 997 b 51 753 149 997 51 918 b 282 508 51 588 149 508 z m 182 0 l 310 0 l 965 986 l 838 986 z m 282 614 b 193 753 224 614 193 660 b 282 892 193 844 224 892 b 371 753 340 892 371 844 b 282 614 371 660 340 614 z m 865 -11 b 1096 233 999 -11 1096 68 b 865 478 1096 399 999 478 b 635 233 732 478 635 399 b 865 -11 635 68 732 -11 z m 865 94 b 776 233 807 94 776 140 b 865 372 776 325 807 372 b 954 233 924 372 954 325 b 865 94 954 140 924 94 z "},"‰":{"ha":1681,"x_min":0,"x_max":0,"o":"m 282 508 b 511 753 415 508 511 588 b 282 997 511 918 415 997 b 51 753 149 997 51 918 b 282 508 51 588 149 508 z m 182 0 l 310 0 l 965 986 l 838 986 z m 282 614 b 193 753 224 614 193 660 b 282 892 193 844 224 892 b 371 753 340 892 371 844 b 282 614 371 660 340 614 z m 865 -11 b 1096 233 999 -11 1096 68 b 865 478 1096 399 999 478 b 635 233 732 478 635 399 b 865 -11 635 68 732 -11 z m 1400 -11 b 1629 233 1533 -11 1629 68 b 1400 478 1629 399 1533 478 b 1169 233 1267 478 1169 399 b 1400 -11 1169 68 1267 -11 z m 865 94 b 776 233 807 94 776 140 b 865 372 776 325 807 372 b 954 233 924 372 954 325 b 865 94 954 140 924 94 z m 1400 94 b 1311 233 1342 94 1311 140 b 1400 372 1311 325 1342 372 b 1489 233 1458 372 1489 325 b 1400 94 1489 140 1458 94 z "},"∶":{"ha":432,"x_min":0,"x_max":0,"o":"m 103 633 l 329 633 l 329 847 l 103 847 z m 103 139 l 329 139 l 329 351 l 103 351 z "},"↑":{"ha":981,"x_min":0,"x_max":0,"o":"m 389 0 l 592 0 l 592 671 l 922 342 l 922 554 l 490 986 l 58 556 l 58 343 l 389 674 z "},"↗":{"ha":885,"x_min":0,"x_max":0,"o":"m 58 360 l 201 217 l 676 690 l 676 225 l 826 375 l 826 986 l 217 988 l 67 836 l 535 836 z "},"→":{"ha":1103,"x_min":0,"x_max":0,"o":"m 400 57 l 613 57 l 1044 489 l 614 921 l 401 921 l 732 590 l 58 590 l 58 388 l 729 388 z "},"↘":{"ha":888,"x_min":0,"x_max":0,"o":"m 67 151 l 217 1 l 828 1 l 829 611 l 678 761 l 678 293 l 201 769 l 58 626 l 532 151 z "},"↓":{"ha":981,"x_min":0,"x_max":0,"o":"m 389 986 l 389 313 l 58 643 l 58 431 l 490 0 l 922 432 l 922 644 l 592 315 l 592 986 z "},"↙":{"ha":888,"x_min":0,"x_max":0,"o":"m 821 151 l 354 151 l 829 626 l 686 769 l 208 293 l 208 761 l 58 611 l 60 1 l 671 1 z "},"←":{"ha":1103,"x_min":0,"x_max":0,"o":"m 703 57 l 374 388 l 1044 388 l 1044 590 l 371 590 l 701 921 l 489 921 l 58 489 l 490 57 z "},"↖":{"ha":885,"x_min":0,"x_max":0,"o":"m 208 225 l 210 690 l 683 217 l 826 360 l 350 836 l 818 836 l 668 988 l 58 986 l 58 375 z "},"↔":{"ha":1503,"x_min":0,"x_max":0,"o":"m 703 57 l 374 388 l 1129 388 l 800 57 l 1013 57 l 1444 489 l 1014 921 l 801 921 l 1132 590 l 371 590 l 701 921 l 489 921 l 58 489 l 490 57 z "},"↕":{"ha":981,"x_min":0,"x_max":0,"o":"m 58 374 l 58 161 l 490 -271 l 922 160 l 922 372 l 592 42 l 592 804 l 922 474 l 922 686 l 490 1117 l 58 685 l 58 472 l 389 800 l 389 46 z "},"↝":{"ha":899,"x_min":0,"x_max":0,"o":"m 514 240 b 728 389 593 240 671 297 l 840 324 l 810 676 l 492 526 l 600 464 b 510 386 568 413 538 386 b 443 479 469 386 453 426 b 285 622 422 572 363 622 b 58 404 188 622 82 538 l 207 404 b 282 481 222 454 253 481 b 349 379 324 481 335 442 b 514 240 372 279 450 240 z "},"⇤":{"ha":925,"x_min":0,"x_max":0,"o":"m 58 218 l 181 218 l 181 760 l 58 760 z m 521 239 l 521 413 l 867 413 l 867 564 l 521 564 l 519 738 l 222 489 z "},"⇥":{"ha":925,"x_min":0,"x_max":0,"o":"m 867 218 l 867 760 l 746 760 l 746 218 z m 404 239 l 703 489 l 406 738 l 406 564 l 58 564 l 58 413 l 404 413 z "},"↩":{"ha":917,"x_min":0,"x_max":0,"o":"m 483 161 l 325 319 l 535 319 b 858 632 715 319 858 457 b 535 943 858 807 715 943 l 125 943 l 125 793 l 533 793 b 706 632 629 793 706 722 b 533 472 706 542 629 472 l 324 472 l 482 629 l 290 629 l 58 396 l 293 161 z "},"↪":{"ha":917,"x_min":0,"x_max":0,"o":"m 433 161 l 624 161 l 858 396 l 625 629 l 435 629 l 593 472 l 383 472 b 211 632 286 472 211 542 b 383 793 211 722 286 793 l 792 793 l 792 943 l 382 943 b 58 632 201 943 58 807 b 382 319 58 457 201 319 l 592 319 z "},"↰":{"ha":918,"x_min":0,"x_max":0,"o":"m 376 354 l 376 542 l 704 542 l 704 0 l 860 0 l 860 694 l 376 694 l 375 882 l 58 618 z "},"↱":{"ha":918,"x_min":0,"x_max":0,"o":"m 213 0 l 213 542 l 542 542 l 540 354 l 860 618 l 542 882 l 542 694 l 58 694 l 58 0 z "},"↳":{"ha":918,"x_min":0,"x_max":0,"o":"m 540 632 l 542 444 l 213 444 l 213 986 l 58 986 l 58 292 l 542 292 l 542 104 l 860 368 z "},"↴":{"ha":918,"x_min":0,"x_max":0,"o":"m 610 0 l 860 299 l 686 299 l 686 986 l 58 986 l 58 833 l 535 833 l 535 299 l 361 300 z "},"↵":{"ha":918,"x_min":0,"x_max":0,"o":"m 376 632 l 58 368 l 375 104 l 376 292 l 860 292 l 860 986 l 704 986 l 704 444 l 376 444 z "},"⇧":{"ha":1225,"x_min":0,"x_max":0,"o":"m 338 0 l 892 0 l 892 435 l 1199 435 l 614 1019 l 26 435 l 338 435 z m 488 151 l 488 563 l 351 563 l 614 824 l 875 563 l 740 563 l 740 151 z "},"●":{"ha":1164,"x_min":0,"x_max":0,"o":"m 582 -17 b 1106 494 878 -17 1106 199 b 582 1008 1106 793 878 1008 b 58 494 286 1008 58 793 b 582 -17 58 199 286 -17 z "},"○":{"ha":1164,"x_min":0,"x_max":0,"o":"m 582 -17 b 1106 494 878 -17 1106 199 b 582 1008 1106 793 878 1008 b 58 494 286 1008 58 793 b 582 -17 58 199 286 -17 z m 582 147 b 228 494 382 147 228 294 b 582 844 228 697 382 844 b 936 494 782 844 936 697 b 582 147 936 294 782 147 z "},"◌":{"ha":1164,"x_min":0,"x_max":0,"o":"m 504 903 b 582 910 531 907 556 910 l 582 1029 b 481 1019 547 1029 514 1025 z m 728 889 l 771 1001 b 671 1029 739 1014 706 1022 l 651 911 b 728 889 678 906 703 899 z m 358 842 b 428 879 379 856 403 868 l 382 990 b 292 942 350 976 319 961 z m 861 806 l 943 893 b 863 956 918 917 892 938 l 799 854 b 861 806 821 840 842 824 z m 247 732 b 297 793 263 754 278 772 l 211 878 b 146 799 188 854 165 828 z m 951 679 l 1063 728 b 1011 817 1049 758 1031 789 l 913 746 b 951 679 928 725 942 703 z m 188 589 b 210 664 192 613 199 639 l 97 708 b 68 610 83 678 74 644 z m 985 526 l 1106 528 b 1094 629 1106 563 1101 597 l 976 604 b 985 526 982 579 985 554 z m 69 407 l 189 432 b 179 510 182 457 179 482 l 58 508 b 69 407 58 474 63 439 z m 1067 328 b 1096 426 1081 358 1090 392 l 978 447 b 956 372 974 424 965 397 z m 153 219 l 251 290 b 214 357 238 311 224 333 l 101 308 b 153 219 115 278 133 247 z m 953 158 b 1018 238 976 182 999 208 l 917 304 b 868 243 903 282 886 264 z m 301 81 l 365 182 b 304 231 343 196 324 213 l 221 143 b 301 81 246 119 272 99 z m 782 46 b 872 94 814 60 844 75 l 806 194 b 736 157 785 181 761 168 z m 493 7 l 514 125 b 438 147 488 131 463 138 l 393 35 b 493 7 425 22 458 14 z m 582 7 b 683 17 617 7 650 11 l 661 133 b 582 126 633 129 608 126 z "},"◊":{"ha":826,"x_min":0,"x_max":0,"o":"m 293 0 l 533 0 l 768 447 l 533 894 l 293 894 l 58 447 z m 257 447 l 414 743 l 569 447 l 414 151 z "},"▲":{"ha":1208,"x_min":0,"x_max":0,"o":"m 36 0 l 1174 0 l 604 986 z "},"▶":{"ha":1208,"x_min":0,"x_max":0,"o":"m 111 -1 l 1097 494 l 111 989 z "},"▼":{"ha":1208,"x_min":0,"x_max":0,"o":"m 36 986 l 604 0 l 1174 986 z "},"◀":{"ha":1208,"x_min":0,"x_max":0,"o":"m 1097 -1 l 1097 989 l 111 494 z "},"△":{"ha":1208,"x_min":0,"x_max":0,"o":"m 36 0 l 1174 0 l 604 986 z m 307 171 l 603 703 l 903 171 z "},"▷":{"ha":1208,"x_min":0,"x_max":0,"o":"m 111 -1 l 1097 494 l 111 989 z m 256 235 l 256 753 l 772 494 z "},"▽":{"ha":1208,"x_min":0,"x_max":0,"o":"m 36 986 l 604 0 l 1174 986 z m 307 815 l 903 815 l 603 283 z "},"◁":{"ha":1208,"x_min":0,"x_max":0,"o":"m 1097 -1 l 1097 989 l 111 494 z m 953 235 l 436 494 l 953 753 z "},"̈":{"ha":0,"x_min":0,"x_max":0,"o":"m 51 832 l 250 832 l 250 1000 l 51 1000 z m 350 832 l 549 832 l 549 1000 l 350 1000 z "},"̇":{"ha":0,"x_min":0,"x_max":0,"o":"m 51 836 l 267 836 l 267 1003 l 51 1003 z "},"̀":{"ha":0,"x_min":0,"x_max":0,"o":"m 176 821 l 335 821 l 253 1025 l 51 1025 z "},"́":{"ha":0,"x_min":0,"x_max":0,"o":"m 51 821 l 210 821 l 335 1026 l 133 1026 z "},"̋":{"ha":0,"x_min":0,"x_max":0,"o":"m 51 821 l 210 821 l 335 1026 l 133 1026 z m 297 821 l 456 821 l 581 1026 l 379 1026 z "},"̂":{"ha":0,"x_min":0,"x_max":0,"o":"m 51 821 l 197 821 l 285 944 l 372 821 l 518 821 l 385 1033 l 185 1033 z "},"̌":{"ha":0,"x_min":0,"x_max":0,"o":"m 51 1033 l 185 821 l 385 821 l 518 1033 l 372 1033 l 285 910 l 197 1033 z "},"̆":{"ha":0,"x_min":0,"x_max":0,"o":"m 269 822 b 486 1026 397 822 481 896 l 365 1026 b 269 936 358 963 325 936 b 172 1026 214 936 178 963 l 51 1026 b 269 822 57 896 140 822 z "},"̊":{"ha":0,"x_min":0,"x_max":0,"o":"m 194 799 b 336 939 275 799 336 858 b 194 1081 336 1019 275 1081 b 51 939 114 1081 51 1019 b 194 799 51 858 114 799 z m 194 888 b 142 939 164 888 142 910 b 194 992 142 969 164 992 b 246 939 224 992 246 969 b 194 888 246 910 224 888 z "},"̃":{"ha":0,"x_min":0,"x_max":0,"o":"m 368 833 b 526 1033 468 833 525 911 l 424 1033 b 371 957 419 974 400 957 b 318 982 354 957 340 965 b 204 1024 282 1011 249 1024 b 51 826 108 1024 53 947 l 156 826 b 208 900 160 883 182 900 b 263 875 228 900 240 892 b 368 833 297 844 325 833 z "},"̄":{"ha":0,"x_min":0,"x_max":0,"o":"m 51 843 l 467 843 l 467 996 l 51 996 z "},"̒":{"ha":0,"x_min":0,"x_max":0,"o":"m 51 822 l 232 822 l 232 983 l 183 983 l 256 1106 l 133 1106 l 51 967 z "},"̦":{"ha":0,"x_min":0,"x_max":0,"o":"m 51 -351 l 174 -351 l 256 -214 l 256 -68 l 75 -68 l 75 -229 l 124 -229 z "},"̧":{"ha":0,"x_min":0,"x_max":0,"o":"m 229 -322 b 406 -175 326 -322 406 -275 b 272 -43 406 -106 364 -51 l 310 14 l 190 14 l 144 -62 l 201 -117 b 292 -171 275 -117 292 -139 b 225 -221 292 -203 265 -221 b 143 -168 182 -221 158 -204 l 51 -207 b 229 -322 75 -275 136 -322 z "},"̨":{"ha":0,"x_min":0,"x_max":0,"o":"m 208 -301 b 357 -265 268 -301 332 -286 l 318 -160 b 256 -178 304 -169 279 -178 b 219 -143 236 -178 219 -165 b 264 -56 219 -119 236 -92 l 306 0 l 167 33 l 121 -28 b 51 -183 86 -72 51 -126 b 208 -301 51 -260 110 -301 z "},"̵":{"ha":0,"x_min":0,"x_max":0,"o":"m 140 390 l 624 390 l 624 511 l 140 511 z "},"̶":{"ha":0,"x_min":0,"x_max":0,"o":"m 28 686 l 1022 686 l 1022 840 l 28 840 z "},"̷":{"ha":0,"x_min":0,"x_max":0,"o":"m 56 396 l 478 563 l 478 699 l 56 532 z "},"̸":{"ha":0,"x_min":0,"x_max":0,"o":"m 56 -22 l 188 -22 l 742 761 l 610 761 z "},"¨":{"ha":600,"x_min":0,"x_max":0,"o":"m 51 832 l 250 832 l 250 1000 l 51 1000 z m 350 832 l 549 832 l 549 1000 l 350 1000 z "},"˙":{"ha":318,"x_min":0,"x_max":0,"o":"m 51 836 l 267 836 l 267 1003 l 51 1003 z "},"`":{"ha":386,"x_min":0,"x_max":0,"o":"m 176 821 l 335 821 l 253 1025 l 51 1025 z "},"´":{"ha":386,"x_min":0,"x_max":0,"o":"m 51 821 l 210 821 l 335 1026 l 133 1026 z "},"˝":{"ha":632,"x_min":0,"x_max":0,"o":"m 51 821 l 210 821 l 335 1026 l 133 1026 z m 297 821 l 456 821 l 581 1026 l 379 1026 z "},"ˆ":{"ha":569,"x_min":0,"x_max":0,"o":"m 51 821 l 197 821 l 285 944 l 372 821 l 518 821 l 385 1033 l 185 1033 z "},"ˇ":{"ha":569,"x_min":0,"x_max":0,"o":"m 51 1033 l 185 821 l 385 821 l 518 1033 l 372 1033 l 285 910 l 197 1033 z "},"˘":{"ha":538,"x_min":0,"x_max":0,"o":"m 269 822 b 486 1026 397 822 481 896 l 365 1026 b 269 936 358 963 325 936 b 172 1026 214 936 178 963 l 51 1026 b 269 822 57 896 140 822 z "},"˚":{"ha":388,"x_min":0,"x_max":0,"o":"m 194 799 b 336 939 275 799 336 858 b 194 1081 336 1019 275 1081 b 51 939 114 1081 51 1019 b 194 799 51 858 114 799 z m 194 888 b 142 939 164 888 142 910 b 194 992 142 969 164 992 b 246 939 224 992 246 969 b 194 888 246 910 224 888 z "},"˜":{"ha":578,"x_min":0,"x_max":0,"o":"m 368 833 b 526 1033 468 833 525 911 l 424 1033 b 371 957 419 974 400 957 b 318 982 354 957 340 965 b 204 1024 282 1011 249 1024 b 51 826 108 1024 53 947 l 156 826 b 208 900 160 883 182 900 b 263 875 228 900 240 892 b 368 833 297 844 325 833 z "},"¯":{"ha":518,"x_min":0,"x_max":0,"o":"m 51 843 l 467 843 l 467 996 l 51 996 z "},"¸":{"ha":456,"x_min":0,"x_max":0,"o":"m 229 -322 b 406 -175 326 -322 406 -275 b 272 -43 406 -106 364 -51 l 310 14 l 190 14 l 144 -62 l 201 -117 b 292 -171 275 -117 292 -139 b 225 -221 292 -203 265 -221 b 143 -168 182 -221 158 -204 l 51 -207 b 229 -322 75 -275 136 -322 z "},"˛":{"ha":407,"x_min":0,"x_max":0,"o":"m 208 -301 b 357 -265 268 -301 332 -286 l 318 -160 b 256 -178 304 -169 279 -178 b 219 -143 236 -178 219 -165 b 264 -56 219 -119 236 -92 l 306 0 l 167 33 l 121 -28 b 51 -183 86 -72 51 -126 b 208 -301 51 -260 110 -301 z "},"ʼ":{"ha":336,"x_min":0,"x_max":0,"o":"m 79 608 l 203 608 l 279 986 l 119 986 z "},"ʹ":{"ha":363,"x_min":0,"x_max":0,"o":"m 56 660 l 226 660 l 299 986 l 110 986 z "},"ˈ":{"ha":269,"x_min":0,"x_max":0,"o":"m 74 608 l 197 608 l 215 869 l 215 986 l 54 986 l 54 869 z "}}}
